<?xml version="1.0" encoding="UTF-8"?>
<svg id="Layer_2" data-name="Layer 2" xmlns="http://www.w3.org/2000/svg" viewBox="0 0 500 500">
  <g id="Layer_1-2" data-name="Layer 1">
    <g>
      <rect width="500" height="500" fill="none"/>
      <g>
        <g>
          <path d="m190.11,274.15c-12.64-12.64-30.05-20.41-49.28-20.41-1.63,0-3.2.05-4.78.19-.24-.05-.49-.09-.74-.09-.63-.05-1.23-.09-1.87-.09-3,0-5.8.64-8.36,1.82-7.18,3.19-12.15,10.37-12.15,18.7v139.35c0,5.66,2.31,10.77,6,14.5,3.73,3.69,8.85,6.01,14.51,6.01,11.31,0,20.51-9.2,20.51-20.51v-32.13c6.3-27.59,28.04-49.34,55.63-55.58h.94v-2.46c0-19.23-7.82-36.69-20.41-49.28Z" fill="#a5b5b6"/>
          <path d="m154,412.32v27c0,4.07-3.3,7.38-7.38,7.38h-26.41c-4.09,0-7.38-3.31-7.38-7.38v-27c0-.35,0-.69.1-.99.44-3.63,3.54-6.38,7.28-6.38h26.41c3.94,0,7.09,3.05,7.33,6.87.05.15.05.35.05.5Z" fill="#455556"/>
        </g>
        <g>
          <path d="m346.69,274.15c-12.64-12.64-30.05-20.41-49.28-20.41-1.62,0-3.19.05-4.77.19-.24-.05-.49-.09-.74-.09-.63-.05-1.23-.09-1.87-.09-3,0-5.8.64-8.36,1.82-7.18,3.19-12.15,10.37-12.15,18.7v139.35c0,5.66,2.31,10.77,6,14.5,3.74,3.69,8.86,6.01,14.51,6.01,11.31,0,20.51-9.2,20.51-20.51v-32.13c6.3-27.59,28.04-49.34,55.63-55.58h.94v-2.46c0-19.23-7.82-36.69-20.42-49.28Z" fill="#a5b5b6"/>
          <path d="m310.59,412.32v27c0,4.07-3.3,7.38-7.38,7.38h-26.42c-4.08,0-7.38-3.31-7.38-7.38v-27c0-.35,0-.69.1-.99.44-3.63,3.54-6.38,7.28-6.38h26.42c3.93,0,7.08,3.05,7.32,6.87.05.15.05.35.05.5Z" fill="#455556"/>
        </g>
        <path d="m379.39,413.6c0,11.32-9.18,20.5-20.5,20.5h0c-11.32,0-20.5-9.18-20.5-20.5v-139.36c0-11.32,9.18-20.49,20.5-20.49h0c11.32,0,20.5,9.17,20.5,20.49v139.36Z" fill="#c5d5d6"/>
        <path d="m279.14,325.89h-126.12c5.27-1.18,10.72-1.82,16.33-1.82h93.45c5.61,0,11.07.64,16.33,1.82Z" fill="#9d6c4e"/>
        <path d="m354.79,183.25H80.96c-13.58,0-24.59,11.02-24.59,24.59v93.45c0,.14.02.26.02.4v111.91c0,11.32,9.17,20.5,20.49,20.5s20.5-9.18,20.5-20.5v-31.73c6.15-27.78,27.93-49.72,55.64-55.99h126.12c1.82.42,4.88.35,8.7,0h66.95c13.58,0,24.59-11.02,24.59-24.59v-93.45c0-13.58-11.02-24.59-24.59-24.59Z" fill="#c5d5d6"/>
        <rect x="56.27" y="404.93" width="41.15" height="41.76" rx="7.37" ry="7.37" fill="#556566"/>
        <path d="m379.44,439.32c0,4.07-3.3,7.37-7.37,7.37h-26.42c-4.07,0-7.36-3.29-7.36-7.37v-27.02c0-4.07,3.29-7.37,7.36-7.37h26.42c4.07,0,7.37,3.29,7.37,7.37v27.02Z" fill="#556566"/>
        <path d="m393.31,304.99c0,38.93-31.55,70.48-70.48,70.48H113.75c-38.93,0-70.48-31.56-70.48-70.48v-95.14c0-38.93,31.55-70.48,70.48-70.48h209.08c38.93,0,70.48,31.55,70.48,70.48v95.14Z" fill="#d5e5e6"/>
        <path d="m67.71,178.39c7.78,10.3,5.73,24.95-4.56,32.73l-15.71,11.86c-10.3,7.77-24.95,5.73-32.73-4.56h0c-7.78-10.3-5.73-24.95,4.56-32.73l15.71-11.85c10.3-7.78,24.95-5.73,32.72,4.56h0Z" fill="#d5e5e6"/>
        <g>
          <path d="m331.22,159.47c-19.35,19.34-47.72,22.33-47.72,22.33,0,0,2.99-28.38,22.33-47.71,19.35-19.35,47.72-22.33,47.72-22.33,0,0-2.99,28.37-22.33,47.71Z" fill="#e9b899"/>
          <path d="m442.29,160.39c19.34,19.34,47.71,22.33,47.71,22.33,0,0-2.99-28.37-22.33-47.71-19.33-19.35-47.71-22.32-47.71-22.32,0,0,2.98,28.37,22.32,47.71Z" fill="#e9b899"/>
          <path d="m436.21,221.8c0,27.82-22.55,50.38-50.37,50.38h0c-27.82,0-50.37-22.56-50.37-50.38v-92.5c0-27.81,22.55-50.37,50.37-50.37h0c27.82,0,50.37,22.56,50.37,50.37v92.5Z" fill="#f5c4a5"/>
          <path d="m449.04,95.89c0,23.52-19.07,42.59-42.59,42.59h-43.05c-23.51,0-42.58-19.07-42.58-42.59h0c0-23.53,19.07-42.59,42.58-42.59h43.05c23.52,0,42.59,19.06,42.59,42.59h0Z" fill="#d5e5e6"/>
          <path d="m376.26,247.28c-.99,2.27-5.83,2.35-10.81.17-4.98-2.18-8.22-5.79-7.22-8.06.99-2.28,5.84-2.35,10.82-.18,4.98,2.18,8.21,5.79,7.22,8.07Z" fill="#455556"/>
          <path d="m373.22,175.78c0,2.6-2.11,4.72-4.72,4.72s-4.72-2.11-4.72-4.72,2.11-4.72,4.72-4.72,4.72,2.11,4.72,4.72Z" fill="#455556"/>
          <path d="m396.02,247.28c1,2.27,5.85,2.35,10.82.17,4.98-2.18,8.22-5.79,7.22-8.06-.99-2.28-5.83-2.35-10.82-.18-4.98,2.18-8.21,5.79-7.22,8.07Z" fill="#455556"/>
          <path d="m399.06,175.78c0,2.6,2.11,4.72,4.72,4.72s4.72-2.11,4.72-4.72-2.12-4.72-4.72-4.72-4.72,2.11-4.72,4.72Z" fill="#455556"/>
        </g>
      </g>
    </g>
  </g>
</svg>