<?xml version="1.0" encoding="UTF-8"?>
<svg id="Layer_2" data-name="Layer 2" xmlns="http://www.w3.org/2000/svg" viewBox="0 0 500 500">
  <g id="Layer_1-2" data-name="Layer 1">
    <g>
      <rect width="500" height="500" fill="none"/>
      <g>
        <path d="m49.4,342.08H10v-55.83c0-57.94,43.94-105.08,97.96-105.08l.18,8.39c-32.3,0-58.74,60.47-58.74,96.68v55.83Z" fill="#5d2c10"/>
        <path d="m418.96,51.28c14.94,17.18-19.73,71.77-77.43,121.96-57.71,50.17-116.59,76.93-131.53,59.76-14.94-17.18,19.73-71.78,77.43-121.96,57.7-50.18,116.59-76.93,131.53-59.76Z" fill="#5d2c10"/>
        <g>
          <path d="m176.75,261.45v163.45c0,10.07-8.19,18.25-18.26,18.25-5.03,0-9.59-2.05-12.91-5.33-3.29-3.33-5.34-7.88-5.34-12.92v-163.45c0-7.39,4.42-13.78,10.81-16.63,2.28-1.05,4.78-1.62,7.45-1.62.57,0,1.1.04,1.66.09.22,0,.44.04.66.08,4.11.48,7.79,2.41,10.59,5.17,3.28,3.32,5.34,7.88,5.34,12.91Z" fill="#8d5c3e"/>
          <path d="m227.1,305.24v2.19h-.83c-24.56,5.56-43.92,64.32-49.52,88.88-1.05,4.69-1.62,9.58-1.62,14.58v4.78c-16.68-11.91-27.54-70.84-27.54-92.86v-40.85c0-14.41,4.64-27.71,12.47-38.52.05-.05.05-.09.09-.13.22,0,.44.04.66.08,1.4-.13,2.8-.17,4.24-.17,17.12,0,32.62,6.92,43.87,18.17,11.21,11.21,18.17,26.75,18.17,43.87Z" fill="#8d5c3e"/>
          <path d="m176.8,423.76v24.04c0,3.63-2.94,6.56-6.57,6.56h-23.52c-3.63,0-6.56-2.93-6.56-6.56v-24.04c0-.31,0-.61.08-.87.39-3.24,3.15-5.69,6.48-5.69h23.52c3.5,0,6.3,2.72,6.52,6.12.05.14.05.31.05.44Z" fill="#1c2929"/>
        </g>
        <g>
          <path d="m316.12,261.45v163.45c0,10.07-8.18,18.25-18.26,18.25-5.03,0-9.59-2.05-12.91-5.33-3.29-3.33-5.34-7.88-5.34-12.92v-163.45c0-7.39,4.42-13.78,10.82-16.63,2.27-1.05,4.77-1.62,7.44-1.62.57,0,1.1.04,1.66.09.22,0,.44.04.65.08,4.12.48,7.8,2.41,10.61,5.17,3.28,3.32,5.33,7.88,5.33,12.91Z" fill="#8d5c3e"/>
          <path d="m366.47,305.24v2.19h-.83c-24.56,5.56-43.91,64.32-49.51,88.88-1.05,4.69-1.62,9.58-1.62,14.58v4.78c-16.68-11.91-27.55-70.84-27.55-92.86v-40.85c0-14.41,4.64-27.71,12.48-38.52.05-.05.05-.09.09-.13.22,0,.44.04.65.08,1.41-.13,2.8-.17,4.25-.17,17.12,0,32.62,6.92,43.87,18.17,11.21,11.21,18.17,26.75,18.17,43.87Z" fill="#8d5c3e"/>
          <path d="m316.17,423.76v24.04c0,3.63-2.94,6.56-6.57,6.56h-23.51c-3.63,0-6.57-2.93-6.57-6.56v-24.04c0-.31,0-.61.09-.87.39-3.24,3.15-5.69,6.48-5.69h23.51c3.5,0,6.31,2.72,6.52,6.12.05.14.05.31.05.44Z" fill="#1c2929"/>
        </g>
        <path d="m377.4,424.91c0,10.07-8.16,18.25-18.23,18.25h0c-10.08,0-18.25-8.17-18.25-18.25v-163.45c0-10.08,8.17-18.24,18.25-18.24h0c10.07,0,18.23,8.16,18.23,18.24v163.45Z" fill="#9d6c4e"/>
        <path d="m288.17,307.43h-112.26c4.68-1.05,9.55-1.62,14.53-1.62h83.19c5,0,9.86.57,14.54,1.62Z" fill="#9d6c4e"/>
        <path d="m355.51,180.46H111.78c-12.09,0-21.89,9.81-21.89,21.89v83.18c0,.12.02.24.02.35v139.01c0,10.07,8.16,18.25,18.24,18.25s18.24-8.17,18.24-18.25v-28.25c5.49-24.72,24.86-83.65,49.53-89.23h112.26c1.62.37,4.34.32,7.74,0h59.59c12.08,0,21.89-9.81,21.89-21.89v-83.18c0-12.08-9.81-21.89-21.89-21.89Z" fill="#9d6c4e"/>
        <path d="m126.43,447.8c0,3.62-2.94,6.56-6.57,6.56h-23.5c-3.63,0-6.56-2.94-6.56-6.56v-24.05c0-3.63,2.93-6.57,6.56-6.57h23.5c3.63,0,6.57,2.94,6.57,6.57v24.05Z" fill="#263536"/>
        <path d="m377.45,447.8c0,3.62-2.94,6.56-6.57,6.56h-23.51c-3.62,0-6.56-2.94-6.56-6.56v-24.05c0-3.63,2.94-6.57,6.56-6.57h23.51c3.62,0,6.57,2.94,6.57,6.57v24.05Z" fill="#263536"/>
        <path d="m362.69,235.64c-15.28,15.28-40.06,15.28-55.34,0h0c-15.28-15.28-15.28-40.06,0-55.34l49.92-49.92c15.28-15.28,40.06-15.28,55.34,0h0c15.28,15.28,15.28,40.06,0,55.34l-49.92,49.92Z" fill="#9d6c4e"/>
        <g>
          <path d="m353.01,102.24c-18.34-12.18-25.22-34.11-25.22-34.11,0,0,22.87-2.16,41.22,10.02,18.34,12.18,25.21,34.11,25.21,34.11,0,0-22.87,2.16-41.22-10.02Z" fill="#9d6c4e"/>
          <path d="m464.78,102.24c18.35-12.18,25.22-34.11,25.22-34.11,0,0-22.88-2.16-41.22,10.02-18.35,12.18-25.22,34.11-25.22,34.11,0,0,22.86,2.16,41.21-10.02Z" fill="#9d6c4e"/>
          <path d="m448.36,187.66c0,21.61-17.52,39.13-39.13,39.13h0c-21.61,0-39.13-17.52-39.13-39.13v-70.6c0-21.61,17.52-39.13,39.13-39.13h0c21.61,0,39.13,17.52,39.13,39.13v70.6Z" fill="#ad7c5e"/>
          <path d="m457.67,209c0,18.59-15.07,33.66-33.66,33.66h-28.46c-18.59,0-33.66-15.07-33.66-33.66h0c0-18.59,15.07-33.66,33.66-33.66h28.46c18.59,0,33.66,15.07,33.66,33.66h0Z" fill="#cd9c7d"/>
          <path d="m423.19,91.33c0,8.01-6.49,14.5-14.5,14.5h0c-8.01,0-14.5-6.49-14.5-14.5v-31.19c0-8.01,6.49-14.51,14.5-14.51h0c8.01,0,14.5,6.5,14.5,14.51v31.19Z" fill="#6d3c1f"/>
          <circle cx="388.52" cy="136.89" r="5.64" fill="#263536"/>
          <circle cx="426.84" cy="136.89" r="5.64" fill="#263536"/>
          <path d="m397,225.48c-1.19,2.72-6.98,2.81-12.93.21-5.95-2.6-9.82-6.91-8.63-9.63,1.19-2.71,6.98-2.81,12.93-.21,5.95,2.61,9.82,6.91,8.63,9.63Z" fill="#455556"/>
          <path d="m420.62,225.48c1.19,2.72,6.97,2.81,12.92.21,5.96-2.6,9.82-6.91,8.63-9.63-1.18-2.71-6.98-2.81-12.93-.21-5.95,2.61-9.81,6.91-8.62,9.63Z" fill="#455556"/>
        </g>
      </g>
    </g>
  </g>
</svg>