<?xml version="1.0" encoding="UTF-8"?>
<svg id="Layer_2" data-name="Layer 2" xmlns="http://www.w3.org/2000/svg" viewBox="0 0 500 500">
  <g id="Layer_1-2" data-name="Layer 1">
    <g>
      <rect width="500" height="500" fill="none"/>
      <g>
        <path d="m339.8,345.02h-175.92l-45.37,67.82s-3.33,63.99,66.66,49.33l28-46,38.67,1.34,38.66-1.34,28,46c69.99,14.66,66.66-49.33,66.66-49.33l-45.37-67.82Z" fill="#c3bec5"/>
        <path d="m185.74,472.1c-13.76,20.7-45.29,23.92-70.43,7.21-25.14-16.71-34.37-47.04-20.61-67.74,13.76-20.69,45.29-23.92,70.44-7.21s34.37,47.04,20.61,67.74Z"/>
        <path d="m317.93,472.1c13.76,20.7,45.29,23.92,70.44,7.21,25.14-16.71,34.37-47.04,20.61-67.74-13.76-20.69-45.29-23.92-70.43-7.21-25.14,16.71-34.37,47.04-20.61,67.74Z"/>
        <path d="m173.11,469.03c-9.94,14.95-32.72,17.28-50.89,5.21-18.17-12.08-24.83-33.99-14.89-48.94,9.94-14.95,32.72-17.28,50.89-5.2,18.16,12.08,24.83,33.99,14.89,48.94Z" fill="#505050"/>
        <path d="m330.56,469.03c9.94,14.95,32.73,17.28,50.89,5.21,18.16-12.08,24.83-33.99,14.89-48.94-9.94-14.95-32.72-17.28-50.89-5.2-18.16,12.08-24.83,33.99-14.89,48.94Z" fill="#505050"/>
        <g>
          <path d="m194.21,199.21s-71.35,15.09-110.67,49.34c-20.66,17.99-38.89,44.82-20.49,70.41,6.79,9.44,24.47,16.48,44.65,7.71,41.44-18.01,94.67-69.89,94.67-69.89l-8.16-57.56Z"/>
          <path d="m305.8,199.21s71.35,15.09,110.67,49.34c20.66,17.99,38.89,44.82,20.49,70.41-6.79,9.44-24.47,16.48-44.65,7.71-41.44-18.01-94.66-69.89-94.66-69.89l8.16-57.56Z"/>
        </g>
        <path d="m251.8,429.4c-68.6,0-124.4-55.81-124.4-124.4,0-21.21,5.64-41.84,16.76-61.3l2.77-4.85,1.5,5.38c11.67,41.8,54.17,71,103.38,71s91.7-29.19,103.37-71l1.5-5.38,2.77,4.85c11.12,19.47,16.76,40.1,16.76,61.3,0,68.6-55.8,124.4-124.39,124.4Z" fill="#e4e2e5"/>
        <path d="m251.8,316.28c51.87,0,95.08-31.4,106.84-73.55-20.91-42.05-60.89-67-106.84-67s-85.98,26.81-106.84,67c11.76,42.15,54.97,73.55,106.84,73.55Z"/>
        <g>
          <path d="m292.13,40.34s18.16-50.52,70.78-21.18c52.62,29.34-5.12,78.76-5.12,78.76l-65.66-57.58Z"/>
          <path d="m211.25,40.34s-18.16-50.52-70.78-21.18c-52.62,29.34,5.12,78.76,5.12,78.76l65.66-57.58Z"/>
          <path d="m369.88,118.27c0,49.04-52.85,88.79-118.05,88.79s-118.05-39.75-118.05-88.79S186.64,29.48,251.84,29.48s118.05,39.75,118.05,88.79Z" fill="#e4e2e5"/>
          <path d="m261.76,118.27s-12.11-71.17,31.2-57.2c43.31,13.97,84.75,79.47-31.2,57.2Z"/>
          <path d="m305.45,97.92c0,10.24-8.3,18.54-18.54,18.54s-18.54-8.3-18.54-18.54,8.3-18.54,18.54-18.54,18.54,8.3,18.54,18.54Z" fill="#e2e2e2"/>
          <path d="m206.15,97.92c0,5.86,4.75,10.62,10.62,10.62s10.62-4.75,10.62-10.62-4.75-10.62-10.62-10.62-10.62,4.75-10.62,10.62Z" fill="#fff"/>
          <path d="m241.91,118.27s12.11-71.17-31.2-57.2c-43.31,13.97-84.75,79.47,31.2,57.2Z"/>
          <path d="m295.75,97.92c0,4.89-3.96,8.85-8.85,8.85s-8.85-3.96-8.85-8.85,3.96-8.85,8.85-8.85,8.85,3.96,8.85,8.85Z"/>
          <path d="m235.31,97.92c0,10.24-8.3,18.54-18.54,18.54s-18.54-8.3-18.54-18.54,8.3-18.54,18.54-18.54,18.54,8.3,18.54,18.54Z" fill="#e2e2e2"/>
          <path d="m225.61,97.92c0,4.89-3.96,8.85-8.85,8.85s-8.85-3.96-8.85-8.85,3.96-8.85,8.85-8.85,8.85,3.96,8.85,8.85Z"/>
          <path d="m253.93,109.5c-78.23,6.99,0,41.91,0,41.91,0,0,78.23-34.92,0-41.91Z"/>
          <g>
            <path d="m253.5,151.41c-.6,1.18-1.2,2.27-1.8,3.32h3.6c-.6-1.05-1.2-2.14-1.8-3.32Z" fill="#f99"/>
            <path d="m255.3,154.74h-3.6c-3.93,6.89-7.82,11.1-11.56,13.41,3.28,3.7,8.02,6.09,13.36,6.09s10.08-2.38,13.36-6.09c-3.74-2.31-7.63-6.52-11.56-13.41Z" fill="#f99"/>
          </g>
          <g>
            <path d="m232.5,172.44c-13.27,0-22.61-17.51-23-18.26l3.48-1.82c.09.16,8.63,16.16,19.53,16.16h.07c6.66-.05,13.11-6.1,19.18-18l3.5,1.78c-6.79,13.32-14.41,20.09-22.66,20.14h-.09Z"/>
            <path d="m274.49,172.44h-.09c-8.25-.05-15.87-6.82-22.66-20.14l3.5-1.78c6.07,11.9,12.52,17.96,19.18,18h.07c10.92,0,19.44-16,19.52-16.16l3.48,1.82c-.39.75-9.74,18.26-23,18.26Z"/>
          </g>
        </g>
      </g>
    </g>
  </g>
</svg>