<?xml version="1.0" encoding="UTF-8"?>
<svg id="Layer_2" data-name="Layer 2" xmlns="http://www.w3.org/2000/svg" viewBox="0 0 500 500">
  <g id="Layer_1-2" data-name="Layer 1">
    <g>
      <rect width="500" height="500" fill="none"/>
      <g>
        <path d="m318.1,312.4s-14.16,7.4-12.55,9.97c1.61,2.57,5.15,20.17,32.18,63.81,0,0,.19,12.69,4.54,27.79,3.18,11.03-2.94,62.19-2.94,62.19h12.87s0-46.33,1.29-58.23c1.28-11.91-3.22-25.42-4.51-33.46-1.28-8.04-6.43-77.22-6.43-77.22,0,0-14.6-.98-24.45,5.15Z" fill="#7b9bac"/>
        <path d="m186.83,298.41s19.15,80.12,19.63,89.76c.48,9.65-1.93,13.52,2.89,26.55,4.83,13.03,9.65,50.83,7.73,59.84h11.58s-5.47-56.95-4.83-74.32c.65-17.37-3.22-14.48-3.86-20.91-.64-6.44,3.22-63.06,7.4-66.92,0,0-17.37-18.02-40.54-14Z" fill="#7b9bac"/>
        <path d="m399.98,209.61l7.73,22.68s41.75,29.2,47.29-12.79c0,0-19.54,13.51-55.02-9.89Z" fill="#c9d5df"/>
        <path d="m238.79,259.08l4.35,76.98s68.05-17.37,97.49,2.89c0,0,19.79-57.43,13.03-67.56-6.76-10.14-116.23-36.63-114.86-12.31Z" fill="#c9d5df"/>
        <path d="m216.75,156.18s-12.87,83.51,178.25,42.97c0,0,59.2,32.82-10.94,137.71,0,0-13.03,22.36-9.17,49.39,0,0,4.35,5.63-1.77,25.58-6.11,19.95,2.58,62.74,2.58,62.74h-13.19s2.25-47.62-1.93-59.2c-4.18-11.58-1.61-24.13-2.25-28.31-.64-4.19-35.4-47.94-32.18-58.24,3.22-10.29,19.3-37.64,16.73-47.29,0,0-99.74-18.34-92.66-2.9,7.08,15.45,13.51,21.56,7.72,32.18-5.79,10.62-8.36,40.86-4.51,64.35,3.86,23.49-2.89,18.34-1.93,36.36.96,18.02-2.25,45.04,1.93,63.06h-8.85s-1.93-50.19-7.24-67.81c-5.31-17.61,0-12.79-.96-18.82-.96-6.03-13.27-55.74-16.65-60.08-3.38-4.34-60.25-19.3-56.06-87.51,4.18-68.21-7.08-76.25-9.81-83.01,0,0,35.23-58.6,62.9-1.15Z" fill="#9bb2c4"/>
        <polygon points="233.24 490 212.49 490 215.14 473.11 230.59 473.11 233.24 490" fill="#755e61"/>
        <polygon points="259.55 490 238.79 490 241.45 473.11 256.89 473.11 259.55 490" fill="#755e61"/>
        <polygon points="378.99 490 358.24 490 360.89 473.11 376.34 473.11 378.99 490" fill="#755e61"/>
        <polygon points="355.83 490 335.07 490 337.73 473.11 353.17 473.11 355.83 490" fill="#755e61"/>
        <g>
          <path d="m186.82,218.99s-21.77-1.62-9.74,18.52c0,0,3-3.57,4.47,4.47,1.46,8.04-2.35,7.8,5.28,15.11,7.64-7.31,3.82-7.07,5.28-15.11,1.46-8.04,4.47-4.47,4.47-4.47,12.02-20.14-9.75-18.52-9.75-18.52Z" fill="#e1dfe2"/>
          <path d="m231.72,89.22s54.34,17.16,92.84-8.72c0,0,13.78,5.94-9.1,30-18.84,19.82-37.22,7.47-83.74,40.28,0,0,15.66-40.28,0-61.56Z" fill="#fcd6dc"/>
          <path d="m233.65,145.03c7.08-12.67,15.32-24.99,28.04-30.88,22.22-10.28,43.55-19.25,64.23-32.73-.75-.64-1.37-.93-1.37-.93-38.5,25.88-92.84,8.72-92.84,8.72,12.04,16.36,5.57,43.93,1.93,55.81Z" fill="#abbdcd"/>
          <path d="m141.95,89.22s-54.34,17.16-92.84-8.72c0,0-13.78,5.94,9.09,30,18.84,19.82,37.22,7.47,83.74,40.28,0,0-15.66-40.28,0-61.56Z" fill="#fcd6dc"/>
          <path d="m140.02,145.03c-7.08-12.67-15.31-24.99-28.04-30.88-22.22-10.28-43.55-19.25-64.23-32.73.75-.64,1.37-.93,1.37-.93,38.5,25.88,92.84,8.72,92.84,8.72-12.04,16.36-5.57,43.93-1.93,55.81Z" fill="#abbdcd"/>
          <path d="m131.26,96.53s-30.54-45.48,13-86.41c0,0,10.23-3.25,0,24.53-10.24,27.77.32,44.66,15.92,46.94,0,0-11.37,14.29-28.92,14.94Z" fill="#755e61"/>
          <path d="m240.97,96.53s30.54-45.48-12.99-86.41c0,0-10.24-3.25,0,24.53,10.23,27.77-.32,44.66-15.92,46.94,0,0,11.37,14.29,28.92,14.94Z" fill="#755e61"/>
          <path d="m237.82,84.68c-2.92.73-10.83-1.31-19.57-4.14-20.45-6.63-42.42-6.63-62.87,0-8.74,2.83-16.64,4.87-19.57,4.14-7.41-1.86-22.45,49.65,14.59,78.97,6.23,4.93,11.45,11.04,14.5,18.37,2.19,5.27,3.95,11.74,3.95,18.89,0,18.84,13.74,25.87,17.96,25.87s17.96-7.03,17.96-25.87c0-7.15,1.77-13.62,3.96-18.89,3.04-7.33,8.28-13.44,14.5-18.37,37.04-29.32,22-80.83,14.59-78.97Z" fill="#c9d5df"/>
          <path d="m199.16,198.53c0,6.46-5.52,13.97-12.34,13.97s-12.34-7.51-12.34-13.97,5.52-11.7,12.34-11.7,12.34,5.24,12.34,11.7Z"/>
          <path d="m227.26,133.56c0,3.95-3.2,7.14-7.15,7.14s-7.14-3.2-7.14-7.14,3.2-7.15,7.14-7.15,7.15,3.2,7.15,7.15Z"/>
          <path d="m160.67,133.56c0,3.95-3.2,7.14-7.15,7.14s-7.14-3.2-7.14-7.14,3.2-7.15,7.14-7.15,7.15,3.2,7.15,7.15Z"/>
          <path d="m165.52,77.25l-12,3.24c5.9,7.46,19.04,25.81,26.93,36.92,3.12,4.39,9.62,4.39,12.74,0,7.9-11.12,21.03-29.47,26.93-36.92l-12-3.24c-13.95-3.77-28.65-3.77-42.59,0Z" fill="#9bb2c4"/>
        </g>
      </g>
    </g>
  </g>
</svg>