<?xml version="1.0" encoding="UTF-8"?>
<svg id="Layer_2" data-name="Layer 2" xmlns="http://www.w3.org/2000/svg" viewBox="0 0 500 500">
  <g id="Layer_1-2" data-name="Layer 1">
    <g>
      <rect width="500" height="500" fill="none"/>
      <g>
        <g>
          <path d="m193.3,401.38c-14.02-8.09-28.67-16.39-44.82-17.51-16.15-1.12-34.19,7.26-38.62,22.84-2.43,8.57-.42,17.91,3.64,25.85,6.11,11.96,16.58,21.27,28.22,27.96,11.64,6.7,24.49,10.99,37.33,14.91,22.38,6.84,45.22,12.72,68.58,14.22,23.35,1.5,47.38-1.59,68.35-11.96,20.98-10.36,38.63-28.53,45.52-50.89-20.63,9.12-44.11,7.63-66.64,8.42-20.87.73-41.63,3.57-62.52,3.9-20.88.34-42.26-1.94-61.13-10.88-4.87-2.3-10.13-5.98-10.25-11.37-.15-6.89,8.01-10.69,14.85-11.54,6.85-.85,14.84-1.09,18.92-6.65l-1.43,2.72Z" fill="#f3753c"/>
          <path d="m294.85,435.21c-8.86.32-17.7,1-26.54,1.72l24.62,13.88-24.62,7.42,25.29,8.71-25.29,22.72c16.53-1.01,32.86-4.65,47.66-11.97,20.98-10.36,38.63-28.53,45.52-50.89-20.63,9.12-44.11,7.63-66.64,8.42Z" fill="#f9cda0"/>
        </g>
        <path d="m314.17,303.11c-14.76-17.79-39.3-26.88-62.01-23.19l7.85-1.75c-3-.14-6.01-.28-9.01-.41v-.56c-2.05.09-4.09.19-6.14.28-2.05-.1-4.09-.19-6.14-.28v.56c-3,.14-6,.28-9,.41l7.85,1.75c-22.71-3.69-47.25,5.4-62.01,23.19-16.41,19.78-20.16,49.01-9.95,72.6,6.77,15.64,19.26,28.74,34.57,36.23,13.74,6.72,29.63,8.84,44.68,6.14,15.04,2.7,30.94.58,44.68-6.14,15.31-7.49,27.81-20.58,34.57-36.23,10.21-23.59,6.46-52.82-9.95-72.6Z" fill="#e06221"/>
        <path d="m227.59,410.98s-31.93-29.32-66.04-13.35c-1.75.82-2.86,2.6-2.95,4.53-.33,7.07,1.61,23.16,26.58,21.21,31.88-2.48,42.42-12.4,42.42-12.4Z" fill="#f6b776"/>
        <path d="m262.75,410.98s31.93-29.32,66.04-13.35c1.75.82,2.86,2.6,2.95,4.53.33,7.07-1.61,23.16-26.58,21.21-31.88-2.48-42.42-12.4-42.42-12.4Z" fill="#f6b776"/>
        <path d="m215.97,291.96c-9.23-4.2-20.35,3.45-23.64,13.04-3.29,9.6-1.03,20.1,1.25,29.98,4.76,20.67,9.52,41.34,14.29,62.01,1.98,8.62,4.09,17.51,9.37,24.61,5.27,7.1,14.6,11.98,23.04,9.34,8.44-29.06-11.34-59.43-8.32-89.54,1-9.91,4.46-19.56,4.3-29.51-.16-9.96-5.49-21.01-15.24-23.05l-5.04,3.12Z" fill="#f3753c"/>
        <path d="m210.78,408.21c1.51,4.79,3.47,9.39,6.45,13.4,5.27,7.1,14.6,11.98,23.04,9.34,2.18-7.5,2.46-15.09,1.75-22.74h-31.24Z" fill="#f9cda0"/>
        <path d="m274.99,291.96c9.23-4.2,20.35,3.45,23.64,13.04,3.28,9.6,1.03,20.1-1.25,29.98-4.77,20.67-9.53,41.34-14.29,62.01-1.99,8.62-4.1,17.51-9.36,24.61-5.27,7.1-14.61,11.98-23.05,9.34-8.43-29.06,11.34-59.43,8.32-89.54-.99-9.91-4.46-19.56-4.29-29.51.16-9.96,5.49-21.01,15.23-23.05l5.05,3.12Z" fill="#f3753c"/>
        <path d="m280.17,408.21c-1.5,4.79-3.46,9.39-6.44,13.4-5.27,7.1-14.61,11.98-23.05,9.34-2.17-7.5-2.45-15.09-1.75-22.74h31.23Z" fill="#f9cda0"/>
        <path d="m340.84,250.55c.87-8.32-3.04-16.48-8.19-23.07-9.57-12.21-23.91-20.58-39.25-22.93-15.12-2.31-31.04,1.3-43.73,9.83v-.24c-.42.14-.75.26-1.1.39-.35-.13-.68-.26-1.1-.39v.24c-12.69-8.53-28.61-12.14-43.73-9.83-15.34,2.34-29.67,10.72-39.25,22.93-5.16,6.59-9.06,14.75-8.2,23.07.86,8.32,7.79,16.33,16.15,16.15-7.02-.32-13.3,6.95-11.98,13.84,1.31,6.9,9.84,11.33,16.24,8.46-4.82,3.87-5.28,11.58-2.02,16.84,3.26,5.25,9.37,8.21,15.48,9.11,6.12.9,12.34.02,18.46-.87-4.1,1.05-4.87,7.11-2.31,10.48,2.56,3.36,6.95,4.66,11.04,5.76,10.32,2.78,20.63,5.55,30.95,8.32v.15c.09-.03.18-.05.27-.07.09.02.17.05.26.07v-.15c10.32-2.77,20.63-5.54,30.95-8.32,4.09-1.1,8.47-2.39,11.04-5.76,2.57-3.36,1.79-9.42-2.3-10.48,6.12.89,12.34,1.77,18.45.87,6.12-.9,12.23-3.85,15.48-9.11,3.26-5.26,2.79-12.97-2.02-16.84,6.4,2.87,14.93-1.56,16.24-8.46,1.32-6.89-4.98-14.16-11.98-13.84,8.37.19,15.29-7.83,16.15-16.15Z" fill="#e8e6de"/>
        <g>
          <path d="m188.54,176.91c-14.53,1.99-28.38,7.08-42.27,12.29h0c-.6.46-1.31,1-2.07,1.58-.12.1-.25.2-.37.29-.69.53-1.43,1.12-2.2,1.73-.11.1-.23.18-.34.28-.83.67-1.7,1.37-2.6,2.12-.23.19-.46.38-.68.57-.81.68-1.63,1.37-2.46,2.09-.14.12-.28.24-.42.37-.92.8-1.83,1.63-2.74,2.47-.24.23-.48.45-.73.68-.85.79-1.69,1.61-2.5,2.42-.08.08-.17.16-.25.24-.86.87-1.67,1.75-2.45,2.61-.2.21-.38.43-.57.64-.77.89-1.51,1.77-2.15,2.63,0,0,101.31-16.36,108.86,39.01h2.56c-.01-.21-.03-.42-.04-.63-.39-38.08-14.11-61.22-46.57-71.39Z" fill="#f9cda0"/>
          <path d="m353.48,189.2c-13.88-5.21-27.74-10.29-42.27-12.29-32.46,10.18-46.18,33.31-46.57,71.39,0,.21-.03.42-.04.63h2.56c4.73-34.68,46.21-41.22,76.57-41.27,16.74-.05,30.14,1.89,32.26,2.21-5.78-7.67-17.33-16.77-22.51-20.67Z" fill="#f9cda0"/>
          <path d="m279.56,66.54s8.18-62.93,78.03-56.01c0,0,4.41,73.63-47.83,83.7,0,0-8.81-31.46-30.2-27.69Z" fill="#f9cda0"/>
          <path d="m294.72,70.32c30.15-43.35,62.87-59.78,62.87-59.78-69.85-6.92-78.03,56.01-78.03,56.01,6.04-1.07,11.04.73,15.16,3.78Z" fill="#f3753c"/>
          <path d="m220.44,66.54S212.26,3.61,142.41,10.53c0,0-4.41,73.63,47.83,83.7,0,0,8.81-31.46,30.2-27.69Z" fill="#f9cda0"/>
          <path d="m205.28,70.32c-30.15-43.35-62.87-59.78-62.87-59.78,69.85-6.92,78.03,56.01,78.03,56.01-6.04-1.07-11.04.73-15.16,3.78Z" fill="#f3753c"/>
          <path d="m138.69,195.2c.9-.74,1.77-1.45,2.6-2.12-.83.67-1.7,1.37-2.6,2.12Z" fill="#f3753c"/>
          <path d="m144.2,190.78c.76-.58,1.46-1.12,2.07-1.58-.61.46-1.3.99-2.07,1.58Z" fill="#f3753c"/>
          <path d="m132.39,200.69c.91-.84,1.82-1.67,2.74-2.47-.92.81-1.83,1.63-2.74,2.47Z" fill="#f3753c"/>
          <path d="m141.63,192.8c.78-.61,1.52-1.2,2.2-1.73-.69.53-1.43,1.11-2.2,1.73Z" fill="#f3753c"/>
          <path d="m129.16,203.79c.81-.81,1.65-1.62,2.5-2.42-.86.79-1.69,1.6-2.5,2.42Z" fill="#f3753c"/>
          <path d="m267.16,248.94h.25c4.72-34.58,45.98-41.18,76.32-41.27-30.36.05-71.84,6.6-76.57,41.27Z" fill="#f3753c"/>
          <path d="m123.73,209.92c.64-.86,1.38-1.74,2.15-2.63-.77.89-1.51,1.77-2.15,2.63Z" fill="#f3753c"/>
          <path d="m406.48,146.36c-56,0-59.99-13.64-59.99-13.64-46.15-109.91-96.49-75.51-96.49-75.51,0,0-50.34-34.4-96.49,75.51,0,0-3.98,13.64-59.99,13.64,0,0,13.21,20.76,45.31,18.25,0,0-18.88,13.84-29.58,8.18,0,0,13.84,17.62,39.65,14.48,0,0-1.01.73-2.63,1.94,13.88-5.21,27.74-10.29,42.27-12.29,32.46,10.18,46.18,33.31,46.57,71.39,0,.21.03.42.04.63h29.45c.01-.21.04-.42.04-.63.39-38.08,14.11-61.22,46.57-71.39,14.53,1.99,28.38,7.08,42.27,12.29,5.18,3.9,16.74,13,22.51,20.67.19.03.29.05.29.05-7.55-10.07-25.17-22.66-25.17-22.66,25.8,3.14,39.65-14.48,39.65-14.48-10.7,5.67-29.58-8.18-29.58-8.18,32.1,2.51,45.31-18.25,45.31-18.25Z" fill="#f3753c"/>
          <path d="m135.55,197.86c.83-.72,1.65-1.41,2.46-2.09-.81.68-1.63,1.37-2.46,2.09Z" fill="#f3753c"/>
          <path d="m126.45,206.65c.78-.87,1.59-1.74,2.45-2.61-.86.87-1.67,1.75-2.45,2.61Z" fill="#f3753c"/>
          <path d="m131.66,201.37c.24-.23.48-.46.73-.68-.25.23-.48.45-.73.68Z" fill="#f9cda0"/>
          <path d="m128.9,204.03c.08-.08.17-.16.25-.24-.08.08-.17.16-.25.24Z" fill="#f9cda0"/>
          <path d="m125.88,207.29c.19-.21.38-.43.57-.64-.2.21-.38.43-.57.64Z" fill="#f9cda0"/>
          <path d="m143.83,191.07c.12-.1.25-.2.37-.29-.12.1-.24.19-.37.29Z" fill="#f9cda0"/>
          <path d="m141.28,193.08c.12-.1.23-.18.34-.28-.12.1-.23.18-.34.28Z" fill="#f9cda0"/>
          <path d="m135.13,198.22c.14-.12.28-.24.42-.37-.14.12-.28.24-.42.37Z" fill="#f9cda0"/>
          <path d="m138,195.77c.23-.19.46-.38.68-.57-.23.19-.45.38-.68.57Z" fill="#f9cda0"/>
          <path d="m343.73,207.66c18.13-.03,32.29,2.26,32.29,2.26-.01-.02-.02-.03-.03-.05-2.12-.32-15.52-2.25-32.26-2.21Z" fill="#f9cda0"/>
          <path d="m290.59,126.22c0,6.25-5.07,11.33-11.33,11.33s-11.33-5.07-11.33-11.33,5.07-11.33,11.33-11.33,11.33,5.07,11.33,11.33Z" fill="#222"/>
          <circle cx="220.74" cy="126.22" r="11.33" fill="#222"/>
          <circle cx="250.37" cy="250.52" r="17.77" fill="#222"/>
        </g>
      </g>
    </g>
  </g>
</svg>