<?xml version="1.0" encoding="UTF-8"?>
<svg id="Layer_2" data-name="Layer 2" xmlns="http://www.w3.org/2000/svg" xmlns:xlink="http://www.w3.org/1999/xlink" viewBox="0 0 500 500">
  <defs>
    <clipPath id="clippath">
      <path d="m94.14,269.46c-7.57,18.43-12.31,39.31-6.05,58.23,4.41,13.35,14.46,24.74,27.17,30.77,12.7,6.04,27.88,6.64,41.02,1.63,10.74-61.28,14.45-123.78,11.05-185.89,0,0-48.33,34.75-73.19,95.27Z" fill="none"/>
    </clipPath>
    <clipPath id="clippath-1">
      <path d="m405.87,269.46c7.57,18.43,12.3,39.31,6.05,58.23-4.41,13.35-14.47,24.74-27.17,30.77-12.7,6.04-27.88,6.64-41.02,1.63-10.74-61.28-20.92-123.78-17.52-185.89,0,0,54.8,34.75,79.66,95.27Z" fill="none"/>
    </clipPath>
  </defs>
  <g id="Layer_1-2" data-name="Layer 1">
    <g>
      <rect width="500" height="500" fill="none"/>
      <g>
        <g>
          <g clip-path="url(#clippath)">
            <path d="m94.14,269.46c-7.57,18.43-12.31,39.31-6.05,58.23,4.41,13.35,14.46,24.74,27.17,30.77,12.7,6.04,27.88,6.64,41.02,1.63,10.74-61.28,20.91-123.78,17.51-185.89,0,0-54.79,34.75-79.65,95.27Z" fill="#6d5558"/>
            <path d="m157.84,364.12c-9.65-2.96-18.06-9.7-23.06-18.47-5-8.78-6.52-19.44-4.16-29.25l6.29,1.51c-1.98,8.23-.71,17.18,3.49,24.54,4.2,7.36,11.25,13.01,19.35,15.49l-1.9,6.18Z" fill="#604548"/>
            <path d="m153.03,363.38c-14.94,0-25.69-3.95-31.99-11.76-8.78-10.89-5.32-24.97-5.17-25.56l6.26,1.59c-.02.12-2.8,11.63,3.98,19.96,5.43,6.68,15.49,9.77,30.05,9.25l.24,6.46c-1.15.04-2.27.07-3.37.07Z" fill="#604548"/>
          </g>
          <g clip-path="url(#clippath-1)">
            <path d="m405.87,269.46c7.57,18.43,12.3,39.31,6.05,58.23-4.41,13.35-14.47,24.74-27.17,30.77-12.7,6.04-27.88,6.64-41.02,1.63-10.74-61.28-14.46-123.78-11.06-185.89,0,0,48.33,34.75,73.2,95.27Z" fill="#6d5558"/>
            <path d="m342.15,364.12c9.65-2.96,18.07-9.7,23.07-18.47,5-8.78,6.52-19.44,4.16-29.25l-6.29,1.51c1.98,8.23.71,17.18-3.49,24.54-4.19,7.36-11.25,13.01-19.34,15.49l1.89,6.18Z" fill="#604548"/>
            <path d="m346.97,363.38c14.93,0,25.68-3.95,31.99-11.76,8.79-10.89,5.32-24.97,5.17-25.56l-6.26,1.59c.03.12,2.8,11.63-3.97,19.96-5.43,6.68-15.5,9.77-30.05,9.25l-.24,6.46c1.15.04,2.27.07,3.37.07Z" fill="#604548"/>
          </g>
          <path d="m326.24,170.25c-23.6-2.91-47.31-1.14-70.9,1.81-25.34-3.02-57.48-4.74-80.89-1.81-47.29,87.78-55.02,195.93-20.71,289.54,20.64.21,41.28.43,61.93.65-5.68-18.55-10.9-38.25-6.46-57.13,4.44-18.89,21.92-36.13,41.13-33.45,19.22-2.68,36.68,14.57,41.13,33.45,4.45,18.89-.78,38.58-6.45,57.13,20.64-.22,41.28-.43,61.93-.65,34.31-93.61,26.57-201.77-20.71-289.54Z" fill="#755e61"/>
          <path d="m314.53,268.83c0,44.39-27.51,80.37-61.43,80.37s-61.43-35.98-61.43-80.37,27.51-80.38,61.43-80.38,61.43,35.99,61.43,80.38Z" fill="#bf9073"/>
          <path d="m228.74,466.16c0-9.75-6.18-17.65-13.8-17.65-5.85,0-10.81,4.66-12.82,11.22-2.01-6.56-6.98-11.22-12.82-11.22s-10.81,4.66-12.83,11.22c-2.01-6.56-6.98-11.22-12.82-11.22-7.62,0-13.8,7.9-13.8,17.65,0,8.58,4.79,15.72,11.13,17.31,6.77,4,16.94,6.54,28.32,6.54s21.55-2.54,28.31-6.54c6.34-1.59,11.13-8.73,11.13-17.31Z" fill="#bf9073"/>
          <path d="m271.26,466.16c0-9.75,6.18-17.65,13.8-17.65,5.84,0,10.81,4.66,12.82,11.22,2.01-6.56,6.98-11.22,12.82-11.22s10.81,4.66,12.82,11.22c2.01-6.56,6.98-11.22,12.83-11.22,7.62,0,13.8,7.9,13.8,17.65,0,8.58-4.79,15.72-11.12,17.31-6.77,4-16.94,6.54-28.32,6.54s-21.55-2.54-28.31-6.54c-6.34-1.59-11.13-8.73-11.13-17.31Z" fill="#bf9073"/>
        </g>
        <g>
          <path d="m277.59,28.78s33.94-39.54,57.26-3.87c18.52,28.32-22.4,52.29-22.4,52.29l-34.86-48.42Z" fill="#a09092"/>
          <path d="m339.05,39.95c.21.21.38.45.59.67.12-4.99-1.23-10.27-4.79-15.71-23.32-35.67-57.26,3.87-57.26,3.87l6.47,8.99c34.08-23.31,51.88-.92,54.99,2.18Z" fill="#755e61"/>
          <path d="m222.75,28.78s-33.93-39.54-57.26-3.87c-18.52,28.32,22.4,52.29,22.4,52.29l34.86-48.42Z" fill="#a09092"/>
          <path d="m161.29,39.95c-.21.21-.38.45-.59.67-.12-4.99,1.23-10.27,4.79-15.71,23.32-35.67,57.26,3.87,57.26,3.87l-6.47,8.99c-34.08-23.31-51.88-.92-54.98,2.18Z" fill="#755e61"/>
          <path d="m250.17,19.65c-94.9,0-89.09,166.08-89.09,166.08h178.19s5.81-166.08-89.09-166.08Z" fill="#755e61"/>
          <path d="m285.52,82.48c0,5.08-4.12,9.2-9.2,9.2s-9.2-4.12-9.2-9.2,4.12-9.2,9.2-9.2,9.2,4.12,9.2,9.2Z" fill="#222"/>
          <path d="m233.22,82.48c0,5.08-4.12,9.2-9.2,9.2s-9.2-4.12-9.2-9.2,4.12-9.2,9.2-9.2,9.2,4.12,9.2,9.2Z" fill="#222"/>
          <path d="m284.19,129.93c0,18.79-15.23,34.01-34.02,34.01s-34.01-15.23-34.01-34.01,15.23-34.02,34.01-34.02,34.02,15.23,34.02,34.02Z" fill="#bf9073"/>
          <path d="m267.12,119.4c0,9.36-16.95,16.95-16.95,16.95,0,0-16.95-7.59-16.95-16.95s7.59-16.95,16.95-16.95,16.95,7.59,16.95,16.95Z" fill="#222"/>
          <path d="m239.33,146.6c-8.04,0-15.88-7.75-16.25-8.11l1.87-1.87c.09.09,8.75,8.64,16.15,7.17,3.3-.66,5.95-3.34,7.85-7.94l2.44,1c-2.26,5.48-5.55,8.69-9.78,9.53-.76.15-1.52.22-2.28.22Z" fill="#545454"/>
          <path d="m261,146.6c-.76,0-1.52-.07-2.27-.22-4.23-.84-7.52-4.05-9.78-9.53l2.44-1c1.9,4.61,4.54,7.29,7.85,7.95,7.41,1.48,16.05-7.08,16.14-7.17l1.87,1.87c-.36.36-8.21,8.11-16.25,8.11Z" fill="#545454"/>
        </g>
      </g>
    </g>
  </g>
</svg>