<?xml version="1.0" encoding="UTF-8"?>
<svg id="Layer_2" data-name="Layer 2" xmlns="http://www.w3.org/2000/svg" viewBox="0 0 500 500">
  <g id="Layer_1-2" data-name="Layer 1">
    <g>
      <rect width="500" height="500" fill="none"/>
      <g>
        <path d="m261.04,453.07v-9.29h-62.86s-69.78,34.73-22.64,44.15c22.64,4.53,43.76,1.49,65.77-7.44,11.53-4.67,19.73-14.98,19.73-27.41Z" fill="#e1dfe2"/>
        <path d="m270.72,453.07v-9.29h62.86s69.78,34.73,22.64,44.15c-22.64,4.53-43.76,1.49-65.77-7.44-11.53-4.67-19.73-14.98-19.73-27.41Z" fill="#e1dfe2"/>
        <path d="m121.58,371.74s1.66,89.02,80.62,60.35c0,0-33.5-66.12-80.62-60.35Z" fill="#abbdcd"/>
        <path d="m265.44,287.18s-154.21,26.08-68.29,156.85c0,0,6.6,11.57,68.29,11.57s68.29-11.57,68.29-11.57c85.92-130.77-68.29-156.85-68.29-156.85Z" fill="#89a3b9"/>
        <path d="m324.76,287.82c-4.83,17.19-45.16,14.66-55.29,13.74v-.23s-.5.05-1.2.11c-.65-.06-1.11-.11-1.11-.11v.22c-10.57.9-54.46,3.57-59.32-13.73,0,0-35.27,36.27-21.71,72.81,4.19,11.3,12.89,20.33,23.47,26.08,9.72,5.28,23.89,14.39,22.89,22.12-1.51,11.69-7.92,41.11,19.61,38.1,27.54-3.02,6.27-39.27,2.64-52.06-3.68-12.94-8.4-30.2,13.46-30.87,18.09.67,11.14,17.92,9.66,30.87-1.51,13.2-24.9,49.04,2.64,52.06,27.54,3.02,21.12-26.4,19.61-38.1-1-7.73,13.17-16.84,22.89-22.12,10.58-5.75,19.27-14.79,23.47-26.08,13.56-36.54-21.71-72.81-21.71-72.81Z" fill="#abbdcd"/>
        <path d="m324.65,260.09c-5.8-7-13.61-12.31-22.85-16.08-6.29,4.97-12.96,8.98-20.68,11.88-5.22,1.96-10.45,3.19-15.68,3.88-5.23-.69-10.46-1.92-15.68-3.88-7.73-2.9-14.39-6.91-20.68-11.88-9.24,3.76-17.05,9.08-22.85,16.08-15.76,19.01-15.55,41.17,11.57,56.33,36.78,20.57,46.39,31.13,47.57,32.52v.17s.04-.05.07-.09c.03.04.07.09.07.09v-.17c1.18-1.39,10.79-11.95,47.57-32.52,27.11-15.16,27.33-37.32,11.57-56.33Z" fill="#d7d4d8"/>
        <g>
          <path d="m271.27,121.12s0-93.66,107.15-111.12c0,0-10.32,75.41-94.45,127l-12.7-15.88Z" fill="#d7d4d8"/>
          <path d="m271.27,121.12s0-93.66,107.15-111.12c0,0-59.29,22.85-94.45,127l-12.7-15.88Z" fill="#abbdcd"/>
          <path d="m257.66,121.12s0-93.66-107.15-111.12c0,0,10.32,75.41,94.45,127l12.7-15.88Z" fill="#d7d4d8"/>
          <path d="m257.66,121.12s0-93.66-107.15-111.12c0,0,59.29,22.85,94.45,127l12.7-15.88Z" fill="#abbdcd"/>
          <path d="m339.13,213.59c-9.92-13.89-14.17-35.52-14.17-35.52-9.21-65.48-60.44-57.15-60.44-57.15,0,0-51.24-8.34-60.44,57.15,0,0-4.24,21.63-14.17,35.52-9.92,13.89,19.45,52.78,74.61,52.78s84.53-38.89,74.61-52.78Z" fill="#abbdcd"/>
          <circle cx="235.15" cy="188.19" r="7.54"/>
          <path d="m297.89,188.19c0,4.16-3.38,7.54-7.54,7.54s-7.54-3.38-7.54-7.54,3.38-7.54,7.54-7.54,7.54,3.38,7.54,7.54Z"/>
          <path d="m264.52,120.92s-.07,0-.1-.01v-.08c-.14.02-.24.03-.35.04-.11-.01-.21-.03-.35-.04v.08s-.1.01-.1.01c0,0-35.47-5.71-52.67,30.11,0,0,8.95-.6,13.09-.05,37.42,4.94,29.16,55.46,29.16,55.46,3.63-.21,7.26-.53,10.87-.87,3.61.34,7.24.66,10.87.87,0,0-8.25-50.52,29.16-55.46,4.14-.55,13.09.05,13.09.05-17.21-35.82-52.67-30.11-52.67-30.11Z" fill="#e1dfe2"/>
          <path d="m302.62,237.53c0-18.78-17.06-34-38.1-34s-38.1,15.22-38.1,34c0,10.43,5.27,19.76,13.56,25.99,7.5,1.75,15.64,2.85,24.54,2.85s17.04-1.09,24.53-2.85c8.29-6.23,13.57-15.56,13.57-25.99Z" fill="#e1dfe2"/>
          <g>
            <path d="m254.43,241.42c-5.73,0-11.43-3.24-11.74-3.42l1.41-2.45c.09.05,9.15,5.19,14.62,2.02,2.92-1.69,4.4-5.58,4.4-11.58h2.83c0,7.08-1.96,11.8-5.82,14.03-1.76,1.01-3.73,1.4-5.69,1.4Z" fill="#404040"/>
            <path d="m274.62,241.42c-1.97,0-3.93-.38-5.69-1.4-3.86-2.23-5.82-6.95-5.82-14.03h2.83c0,5.99,1.48,9.89,4.4,11.58,5.47,3.17,14.53-1.97,14.62-2.02l1.41,2.45c-.32.18-6.01,3.42-11.74,3.42Z" fill="#404040"/>
          </g>
          <path d="m264.52,202.08c-60.38,1.55,0,26.59,0,26.59,0,0,60.37-25.04,0-26.59Z"/>
        </g>
      </g>
    </g>
  </g>
</svg>