<?xml version="1.0" encoding="UTF-8"?>
<svg id="Layer_2" data-name="Layer 2" xmlns="http://www.w3.org/2000/svg" viewBox="0 0 500 500">
  <g id="Layer_1-2" data-name="Layer 1">
    <g>
      <rect width="500" height="500" fill="none"/>
      <g>
        <path d="m342.09,278.58c14.69,5.28,29.77,16.61,36.09,30.88,6.32,14.27,6.52,31.12.56,45.54-1.83-.13-3.67-.26-5.5-.39,5.53-9.65,7.04-21.51,4.11-32.23-2.93-10.72-10.28-20.16-19.95-25.65-3.67-2.08-7.66-3.62-11.08-6.08-3.42-2.47-6.31-6.17-6.41-10.38,1-.06,2.17-1.67,2.17-1.67Z" fill="#bf9073"/>
        <path d="m376.01,349.51c-4.17.74-7.79,4.26-9.07,8.41-1.52,4.94-.2,10.4,2.38,14.88,2.58,4.48,6.32,8.15,10.02,11.77,1.59-4.44,4.85-8.03,7.67-11.82,2.82-3.78,5.51-8.23,4.97-12.92-.89-7.75-8.95-12.14-13.54-11.06,0,0-1.62.6-2.43.74Z" fill="gray"/>
        <path d="m183.05,95.27c4.62,48.03-1.58,97.07-18.02,142.43-7.62,21.01-17.53,43.62-10.5,64.84,5.65,17.06,21.2,29.11,28.44,45.57,5.81,13.21,15.29,30.01,15.19,44.44-.19,28.3-3.16,48.66-10.06,83.01,5.87-.58,11.74-1.14,17.61-1.72-.64-26.47,8.2-51.07,7.55-77.54-.66-26.95-10.79-55.77-11.44-82.72-.62-25.28-1.23-50.56-1.84-75.84-.9-37.01-1.79-74.17,2.61-110.93,1.51-12.59,2.17-28.35-8.86-34.61l-10.67,3.07Z" fill="#ac6d48"/>
        <path d="m278.6,309.53c-17.8,16.88-18.88,48.3-2.28,66.36,5.39,5.87,12.54,10.8,14.82,18.44,1.13,3.78.91,7.81.66,11.75-1.57,24.31-4.04,48.56-7.42,72.69,3.47.18,4.83-.91,8.3-.73,2.71-6.36,6.09-11.18,11.61-14.46-1.07-31.53,4.93-65.36,10.62-96.38.34-1.83.67-3.67,1.01-5.5,2.92-15.96,5.06-34.71-6.31-46.28-4.75-4.83-12.7-7.54-18.34-3.78l-12.66-2.11Z" fill="#ac6d48"/>
        <path d="m321.8,346.5c-41.98,6.42-107.58-2.71-148.48-14.13-24.85-34.04-21.47-37-19.41-60.65,1.98-22.65,28.08-45.69,30.56-138.98.28-10.49,8.61-1.31,10.12-2.88,8.61-8.98,29.65,149.04,42.06,149.84,37.41,2.41,72.29,28.3,85.41,63.42l-.27,3.4Z" fill="#b98566"/>
        <path d="m316.1,485.92c4.07-.59,8.13-1.18,12.19-1.77.03-1.43.23-2.88.66-4.3,2.05-6.84,7.11-9.9,11.74-15.38-7.54-30.05.15-67.46,22.6-88.97-16.44-7.79-25.12-26.86-25.76-45.04-.53-15.16,3.53-29.98,8.3-44.47,1.32-3.99-1.82-7.98-6.01-7.72-39.67,2.45-80.28-15.18-105.16-46.26-26.75-33.42-34.35-81.17-19.3-121.24l2.39-1.01c-.41-3.72-.82-7.45-1.24-11.17-2.64.91-27.12-5.3-29.76-4.39-2.31,63.95,3.86,105.62-5.13,154.87-3.12,17.1-6.07,35.57,1.54,51.2,4.2,8.61,11.33,15.62,14.98,24.49,3.69,8.94,3.5,18.94,3.26,28.61-.33,13.25,6.77,28.68,6.44,41.93-.7,28.02-8.82,53.85-9.52,81.87,6.42-1.53,12.84-3.06,19.26-4.59-4.8-26.8,2.78-52.24,7.59-79.03,4.95-27.59,7.41-56.48,21.89-80.48,18.33,3.94,36.66,7.88,54.98,11.82-9.56,21.98,4.07,50.86,27.12,57.45-1.12,22.8-2.24,45.6-3.36,68.4-.25,5.03-1.36,9.95-2.98,14.71-3.16,9.28-1.6,14.41-6.73,20.47Z" fill="#bf9073"/>
        <path d="m198.4,470.74c-5.54,4.43-8.54,12.07-6.89,19.02,11-.75,8.34-.57,19.34-1.32.28-3.83,1.51-7.57,3.48-10.86,1.81-3.01-.4-6.84-3.91-6.84h-12.02Z" fill="#373737"/>
        <path d="m187.77,470.74c-5.6,4.48-8.6,12.25-6.83,19.26,6.41-.31,12.83-.61,19.24-.91.31-7.12,3.94-13.98,9.56-18.35h-21.97Z" fill="#373737"/>
        <path d="m321.37,470.74c-5.66,4.36-8.78,12.05-7.2,19.06,11.04-.66,8.34-.49,19.38-1.15.28-3.9,1.55-7.7,3.58-11.03,1.84-3.02-.35-6.88-3.89-6.88h-11.88Z" fill="#373737"/>
        <path d="m282.32,470.74c-5.6,4.48-8.61,12.25-6.83,19.26l19.24-.91c.18-4.06,1.44-8.05,3.53-11.53,1.8-3-.42-6.81-3.93-6.81h-12.02Z" fill="#373737"/>
        <g>
          <path d="m226.11,42.68s3.73-30.05,55.63-30.05c0,0,5.08,22.1-18.2,31.05-23.28,8.94-33.21,20.12-33.21,20.12l-4.22-21.11Z" fill="#d5d2c4"/>
          <path d="m164.06,42.68s-3.72-30.05-55.63-30.05c0,0-5.08,22.1,18.2,31.05,23.28,8.94,33.21,20.12,33.21,20.12l4.22-21.11Z" fill="#d5d2c4"/>
          <path d="m225.59,34.4c-18.48-4.09-4.24-22.91-4.24-22.91l-15.02-1.49c0,11.59-2.57,16.41-5.26,18.29-2.92,2.05-9.13,2.09-12.09-.09-2.64-1.95-5.12-6.8-5.12-18.2l-15.03,1.49s14.24,18.82-4.24,22.91c-18.48,4.1-15.13,15.27-12.71,22.17,2.42,6.89,16.14,28.19,14.71,48.8-.56,8.05,15.34,6.21,28.5,6.21s29.06,1.83,28.5-6.21c-1.43-20.61,12.29-41.91,14.71-48.8,2.42-6.9,5.78-18.07-12.71-22.17Z" fill="#bf9073"/>
          <path d="m216.5,21.6c1.21-5.29,4.85-10.11,4.85-10.11l-15.02-1.49c0,5.05-.49,8.81-1.26,11.6h11.44Z" fill="#434343"/>
          <path d="m185.11,21.6c-.77-2.8-1.26-6.56-1.26-11.6l-15.03,1.49s3.65,4.82,4.85,10.11h11.44Z" fill="#434343"/>
          <path d="m183.01,60.19c-5.2-8.74-18.08-2.6-29.83-.57,4.17,8.9,14.67,27.59,13.41,45.75-.42,6.15,8.75,6.52,18.98,6.36,2.14-16.85,5.73-37.61-2.56-51.54Z" fill="#dabf90"/>
          <path d="m207.43,60.19c5.2-8.74,18.08-2.6,29.83-.57-4.17,8.9-14.67,27.59-13.41,45.75.42,6.15-8.76,6.52-18.98,6.36-2.14-16.85-5.73-37.61,2.56-51.54Z" fill="#dabf90"/>
          <path d="m221.66,71.59c0,2.88-2.34,5.22-5.22,5.22s-5.22-2.34-5.22-5.22,2.34-5.21,5.22-5.21,5.22,2.33,5.22,5.21Z" fill="#222"/>
          <path d="m177.95,71.59c0,2.88-2.34,5.22-5.22,5.22s-5.22-2.34-5.22-5.22,2.34-5.21,5.22-5.21,5.22,2.33,5.22,5.21Z" fill="#222"/>
          <path d="m229.11,121.76c0,12.34-15.24,22.36-34.03,22.36s-34.02-10.01-34.02-22.36,15.23-22.35,34.02-22.35,34.03,10.01,34.03,22.35Z" fill="#f9cda0"/>
          <path d="m209.43,114.5c0,2.67-2.17,4.84-4.84,4.84s-4.84-2.17-4.84-4.84,2.17-4.84,4.84-4.84,4.84,2.17,4.84,4.84Z" fill="#222"/>
          <path d="m190.05,114.5c0,2.67-2.17,4.84-4.84,4.84s-4.84-2.17-4.84-4.84,2.17-4.84,4.84-4.84,4.84,2.17,4.84,4.84Z" fill="#222"/>
          <path d="m196.47,132.73l-2.78-.07c-15.71-.89-17.99-9.27-18.08-9.65l2-.5c.09.31,2.25,7.71,17.47,8.14,15.23-.42,17.39-7.83,17.48-8.15l2,.51c-.09.38-2.38,8.75-18.08,9.65v.07Z" fill="#3d3d3d"/>
        </g>
        <path d="m216.61,246.17c-5,1.82-10.2,3.76-13.85,7.63-3.65,3.87-5.17,10.31-1.96,14.55,3.19,4.21,9.29,4.55,14.57,4.51,3.65,3.2,9.13,4.16,13.65,2.4,4.53-1.76,7.91-6.16,8.45-10.99.34-.23.69-.45,1.03-.68.11-4.3-1.85-8.61-5.16-11.35-3.31-2.74-7.91-3.85-12.12-2.93l-4.62-3.15Z" fill="#a6653c"/>
        <path d="m195.77,232.39c-.22,1.77-.38,3.76.73,5.16,1.05,1.33,2.98,1.69,4.62,1.28,1.64-.41,3.04-1.46,4.33-2.54,3.65-3.09,6.89-6.88,8.34-11.44,1.45-4.56.85-9.96-2.38-13.48-3.23-3.53-9.28-4.43-12.9-1.3-.91,7.44-1.82,14.88-2.74,22.32Z" fill="#a6653c"/>
        <path d="m277.83,305.1c1.93-1.62,2.48-4.46,1.98-6.93-.51-2.47-1.88-4.67-3.27-6.78-2.73-4.13-5.6-8.17-8.61-12.11-2.21-2.89-4.79-5.91-8.35-6.62-4.45-.88-8.66,2.13-12.05,5.14-2.44,2.17-4.84,4.49-6.3,7.41-1.46,2.91-1.86,6.55-.27,9.4,1.95,3.47,6.14,4.87,9.97,5.98,5.64,1.64,11.28,3.28,16.92,4.91,3.34.97,7.32,1.82,9.98-.41Z" fill="#a6653c"/>
        <path d="m299.96,289.97c-3.15-3.97-9.22-5.26-13.71-2.92-.55,3.22-1.1,6.53-.56,9.76.54,3.24,2.4,6.44,5.42,7.7,3.57,1.5,8.06-.3,9.96-3.67,1.9-3.36,1.3-7.85-1.11-10.88Z" fill="#a6653c"/>
        <path d="m305.13,304.42c-3.11,2.37-4.42,6.86-3.05,10.53,2.03,5.44,9.89,7.6,14.41,3.95,4.52-3.65,4.08-11.79-.82-14.92-3.16-2.02-7.56-1.84-10.54.44Z" fill="#a6653c"/>
        <path d="m336.17,286.75c-3.32-3.72-9.27-2.81-14.1-1.59-1.76.45-3.57.91-5.03,1.98-1.46,1.07-2.52,2.91-2.13,4.69.33,1.52,1.59,2.62,2.78,3.62,3.87,3.23,7.74,6.47,11.61,9.71,2.84-2.35,5.76-4.78,7.45-8.05,1.7-3.27,1.87-7.62-.58-10.37Z" fill="#a6653c"/>
        <path d="m238.29,302.9c.13,5.29-3.45,10.04-7.73,13.16-3.88,2.83-8.6,4.72-13.4,4.51-4.8-.2-9.62-2.74-11.85-6.99-.96-2.49-.13-5.4,1.46-7.55,1.59-2.16,3.83-3.71,6.04-5.22,5.84-4.01,11.69-8.02,17.53-12.03,3.79,4.03,7.81,8.59,7.95,14.12Z" fill="#a6653c"/>
        <path d="m215.23,292.64c2.15-.48,2.88-3.47,1.84-5.41-1.04-1.94-3.17-3.01-5.21-3.84-7.28-2.95-15.19-4.34-23.04-4.05-.55,3.94-1.1,7.98-.31,11.88.79,3.9,3.18,7.71,6.92,9.1,3.63,1.35,7.73.19,11.19-1.56,3.16-1.59,6.08-3.67,8.62-6.13Z" fill="#a6653c"/>
        <path d="m244.65,273.05c4.58-.07,8.75-4.08,9-8.65.25-4.57-3.46-9.02-8.01-9.59-1.41,2.49-2.82,4.98-4.23,7.46-1.66,2.93-3.22,6.94-.87,9.35,1.04,1.06,2.61,1.46,4.1,1.43Z" fill="#a6653c"/>
        <path d="m273.24,280.33c2.38,2.46,5.37,5.13,8.73,4.49,3.76-.71,5.52-5.72,3.83-9.15-1.69-3.43-5.73-5.19-9.55-5.27-2.32-.06-5.02.68-5.9,2.83-1.03,2.51,1.01,5.14,2.89,7.09Z" fill="#a6653c"/>
        <path d="m312.88,283.07c-.82-1.18-2.32-1.61-3.7-1.97-2.99-.77-5.98-1.55-8.98-2.33-1.28,2.1-1,4.94.42,6.95,1.41,2.02,3.81,3.21,6.25,3.5,1.8.21,3.75-.09,5.13-1.27,1.37-1.18,1.93-3.39.89-4.87Z" fill="#a6653c"/>
        <path d="m188.39,243.34c-.45,3.79-2.27,7.27-3.53,10.87-1.27,3.61-1.95,7.74-.22,11.14,1.73,3.41,6.71,5.24,9.54,2.68-1.28-3.13-.47-6.68.48-9.93.95-3.24,2.03-6.65,1.23-9.93-.8-3.28-4.38-6.14-7.49-4.83Z" fill="#a6653c"/>
        <path d="m227.57,244.76c.52,1.3,2.47,1.54,3.54.63,1.07-.91,1.29-2.52.91-3.87-.38-1.35-1.24-2.5-2.09-3.61-2.8-3.67-5.61-7.35-8.41-11.02-2.68-.5-5.62.91-6.89,3.33-1.27,2.41-.79,5.63,1.14,7.57.85.85,1.91,1.45,2.95,2.03,2.95,1.64,5.9,3.29,8.85,4.93Z" fill="#a6653c"/>
        <path d="m200.34,180.48c-2.91.72-3.78,4.37-4.1,7.35-.55,5.13-.73,11.19,3.29,14.41,2.93,2.35,7.07,2.26,10.82,2.06.57-4.64-1.28-9.52-4.79-12.61.53-2.43,1.05-4.99.33-7.36-.72-2.38-3.14-4.44-5.55-3.85Z" fill="#a6653c"/>
        <path d="m192.05,154.49c-3.22,3.62-3.77,9.38-1.24,13.53,2.52,4.14,7.92,6.3,12.6,5-.48-7.44-.97-14.88-1.45-22.31-3.65-.42-7.46,1.04-9.9,3.78Z" fill="#a6653c"/>
        <path d="m193.6,217.61c.75-2.83,1.5-5.72,1.24-8.64-.26-2.91-1.74-5.9-4.38-7.14-1.03,5.18-2.07,10.35-3.1,15.53-.34,1.68-.5,3.8.94,4.74,1.14.75,2.76.23,3.67-.79.91-1.02,1.29-2.39,1.63-3.71Z" fill="#a6653c"/>
        <path d="m322.76,316.92c-1.3,3.02-.63,6.78,1.63,9.17,2.26,2.39,5.98,3.26,9.07,2.13-.52-6.39.32-12.88,2.43-18.94-5.18,1.02-11.04,2.79-13.13,7.64Z" fill="#a6653c"/>
      </g>
    </g>
  </g>
</svg>