<?xml version="1.0" encoding="UTF-8"?>
<svg id="Layer_2" data-name="Layer 2" xmlns="http://www.w3.org/2000/svg" viewBox="0 0 368.2 243.6">
  <g id="Layer_1-2" data-name="Layer 1">
    <g id="Design">
      <polygon points="316.5 184.2 291.3 39.3 53.7 64.2 48.1 75 45.7 207.5 233.6 197.7 253.6 225.1 261.4 215.8 267.5 196 308.2 193.8 308.2 193.8 316.5 184.2" fill="#a8a8a8"/>
      <polygon points="270.4 186.6 316.5 184.2 291.3 39.3 53.7 64.2 51.3 198 241.1 188.1 261.4 215.8 270.4 186.6" fill="#ff1c63"/>
      <g>
        <polygon points="263.2 211.4 241.9 184.4 202.6 188 202.4 186 242.8 182.3 262.3 207 269.5 179.9 313.2 175.9 305.1 137.9 307.1 137.5 315.7 177.7 271.1 181.8 263.2 211.4" fill="#fefefe"/>
        <path d="m302.6,126l-1.3-6,2-.4,1.3,6-2,.4Zm-6.4-29.9l-2.6-12,2-.4,2.6,12-2,.4Z" fill="#fefefe"/>
        <polygon points="292.4 78.1 284.2 39.9 245.5 45.5 245.2 43.5 285.8 37.7 294.3 77.7 292.4 78.1" fill="#fefefe"/>
        <path d="m112.5,64.5l-.3-2,29.6-4.2.3,2-29.6,4.2Zm88.7-12.7l-.3-2,14.8-2.1.3,2-14.8,2.1Z" fill="#fefefe"/>
        <polygon points="57.8 111.4 57 70.5 97.4 64.7 97.7 66.7 59 72.2 59.8 111.3 57.8 111.4" fill="#fefefe"/>
        <path d="m58.7,155l-.2-9.7h2l.2,9.7h-2Zm-.6-29.1l-.1-4.9h2l.1,4.8-2,.1Z" fill="#fefefe"/>
        <polygon points="59.6 200.9 58.8 159.8 60.8 159.8 61.5 198.7 100.3 195.2 100.5 197.2 59.6 200.9" fill="#fefefe"/>
        <path d="m120.9,195.4l-.2-2,10.2-.9.2,2c0-.1-10.2.9-10.2.9Zm51.1-4.7l-.2-2,20.4-1.9.2,2-20.4,1.9Z" fill="#fefefe"/>
      </g>
      <g>
        <polygon points="233.1 19.3 225.7 55 257.6 18.8 233.1 19.3" fill="#fff"/>
        <polygon points="135.6 234.5 165.1 199.3 157.7 240.9 135.6 234.5" fill="#fff"/>
        <polygon points="12.8 218.5 107 181.2 25.9 237.7 12.8 218.5" fill="#fff"/>
        <polygon points="275.6 68.3 335.4 20.4 368.2 31.6 275.6 68.3" fill="#fff"/>
        <polygon points="289.6 172.7 331.3 201.5 354.3 189.2 289.6 172.7" fill="#fff"/>
        <polygon points="109.7 31.7 144.2 66.1 130.8 21.5 109.7 31.7" fill="#fff"/>
        <polygon points="7.1 79.7 65.2 101.5 5.5 97.3 7.1 79.7" fill="#fff"/>
        <polygon points="239.4 238.1 229 196.8 274.3 238.1 239.4 238.1" fill="#fff"/>
      </g>
      <g>
        <path d="m211.5,63c-11.1,0-20.1-9-20.1-20.1s9-20.1,20.1-20.1,20.1,9,20.1,20.1-9,20.1-20.1,20.1Zm0-27.2c-3.9,0-7.1,3.2-7.1,7.1s3.2,7.1,7.1,7.1,7.1-3.2,7.1-7.1-3.2-7.1-7.1-7.1Z" fill="#fff"/>
        <path d="m211.5,59.5c-9.2,0-16.6-7.5-16.6-16.6s7.5-16.6,16.6-16.6,16.6,7.5,16.6,16.6-7.4,16.6-16.6,16.6Zm0-27.2c-5.9,0-10.6,4.8-10.6,10.6s4.8,10.6,10.6,10.6,10.6-4.8,10.6-10.6-4.7-10.6-10.6-10.6Z" fill="#003463"/>
        <circle cx="212.9" cy="41.5" r="13.6" fill="#00d4a1"/>
      </g>
      <g>
        <path d="m41.7,197.8c-11.1,0-20.1-9-20.1-20.1s9-20.1,20.1-20.1,20.1,9,20.1,20.1-9,20.1-20.1,20.1Zm0-27.2c-3.9,0-7.1,3.2-7.1,7.1s3.2,7.1,7.1,7.1,7.1-3.2,7.1-7.1-3.1-7.1-7.1-7.1Z" fill="#fff"/>
        <path d="m41.7,194.3c-9.2,0-16.6-7.5-16.6-16.6s7.5-16.6,16.6-16.6,16.6,7.5,16.6,16.6-7.4,16.6-16.6,16.6Zm0-27.2c-5.9,0-10.6,4.8-10.6,10.6s4.8,10.6,10.6,10.6,10.6-4.8,10.6-10.6-4.7-10.6-10.6-10.6Z" fill="#003463"/>
        <circle cx="43.2" cy="176.3" r="13.6" fill="#ffdc23"/>
      </g>
      <g>
        <polygon points="94.4 44.1 87.4 42.8 84 49 83.1 41.9 76.1 40.6 82.5 37.5 81.6 30.5 86.5 35.6 93 32.6 89.6 38.9 94.4 44.1" fill="#fff"/>
        <polygon points="324 140.7 332.4 126.2 321.2 113.7 337.6 117.1 346.1 102.7 347.8 119.3 364.2 122.9 348.9 129.7 350.6 146.4 339.4 134 324 140.7" fill="#fff"/>
        <polygon points="111.3 218.9 103.8 215.5 98.2 221.5 99.2 213.3 91.8 209.9 99.8 208.2 100.8 200.1 104.8 207.2 112.9 205.7 107.3 211.7 111.3 218.9" fill="#fff"/>
        <polygon points="201.4 238.5 205.7 235.7 204.3 230.7 208.3 233.9 212.6 231 210.9 235.9 214.9 239 209.8 238.9 208 243.6 206.6 238.7 201.4 238.5" fill="#fff"/>
        <polygon points="27.8 142 17.2 139.3 11.3 148.5 10.6 137.6 0 134.9 10.1 130.8 9.5 119.9 16.5 128.3 26.6 124.3 20.8 133.5 27.8 142" fill="#fff"/>
        <polygon points="309.2 222.5 309.2 218.4 305.4 217.1 309.2 215.8 309.3 211.8 311.7 215.1 315.6 213.9 313.2 217.1 315.5 220.5 311.6 219.2 309.2 222.5" fill="#fff"/>
        <polygon points="302.7 21.6 290.9 20 285.7 30.8 283.5 19 271.7 17.4 282.2 11.7 280.1 0 288.7 8.2 299.2 2.6 294.1 13.3 302.7 21.6" fill="#fff"/>
      </g>
      <g>
        <g>
          <path d="m71.1,90.7c1.6-.2,3.6-.4,5.9-.7.2,0,.3,0,.4.1s.2.2.2.4c1.2,7.2,2,12.8,2.6,16.7.4,2.6.7,5.1,1,7.5h.2c3.5-.5,6.4-.9,8.8-1.1.2,0,.3,0,.4.1s.2.2.2.4c.4,2.3.6,4,.8,5,.2,1.5.4,2.9.5,4.2-1.8.3-4.7.8-8.5,1.3-.9.1-3,.4-6.1.8s-5.2.6-6.2.7c-.2,0-.3,0-.4-.1s-.2-.2-.2-.4c-1.2-7.2-2-12.8-2.6-16.7-.8-5.4-1.5-11.2-2.2-17.4,2-.3,3.7-.6,5.2-.8m-.6-4.7c-1.6.2-3.4.5-5.3.9l-4.4.8.5,4.4c.7,6.2,1.5,12.1,2.2,17.5.6,3.9,1.4,9.6,2.6,16.8.2,1.4.9,2.6,2.1,3.5s2.5,1.2,3.9,1.1c1-.1,3-.3,6.2-.7,3.3-.4,5.2-.6,6.2-.8,4-.6,6.8-1,8.7-1.4l4.4-.8-.5-4.4c-.2-1.4-.3-2.8-.6-4.4-.1-1-.4-2.7-.8-5.1-.2-1.3-.9-2.6-2.1-3.5-1.1-.8-2.5-1.2-3.8-1.1s-2.8.3-4.4.5c-.1-.9-.2-1.8-.4-2.8-.6-3.9-1.4-9.6-2.6-16.8-.2-1.4-.9-2.6-2.1-3.5-1.1-.8-2.5-1.2-3.9-1.1-2.3.4-4.3.6-5.9.9h0Z" fill="#fff"/>
          <path d="m101.7,86.5c4.4-.6,7.7-1,10.1-1.3.2,0,.3,0,.4.1s.2.2.2.4c.4,2.3.6,4,.8,5,.2,1.5.4,2.9.5,4.2-1.6.3-4.7.8-9.2,1.4-.8.1-1.5.2-2.2.3.2,1.3.3,2.3.4,3,3.4-.5,5.8-.8,6.9-.9.2,0,.3,0,.4.1s.2.2.2.4c.2,1.6.5,3,.7,4.3.2,1.2.3,2.5.5,3.9l-7.5,1.1c.1.7.3,1.7.5,3l.7-.1c4.7-.7,8.1-1.1,10.2-1.3.2,0,.3,0,.4.1s.2.2.2.4c.4,2.3.6,4,.8,5,.2,1.5.4,2.9.5,4.2-1.8.3-5.1.8-9.9,1.5-.9.1-3,.4-6.1.8s-5.2.6-6.2.7c-.2,0-.3,0-.4-.1s-.2-.2-.2-.4c-1.2-7.2-2-12.8-2.6-16.7-.8-5.4-1.5-11.2-2.2-17.4,2-.3,5.9-.9,12.1-1.7m-.7-4.8c-6.3.9-10.3,1.5-12.2,1.8l-4.4.8.5,4.4c.7,6.2,1.4,12.1,2.2,17.5.6,3.9,1.4,9.6,2.6,16.8.2,1.4.9,2.6,2.1,3.5s2.5,1.2,3.9,1.1c1-.1,3-.3,6.2-.7,3.3-.4,5.2-.6,6.2-.8,4.9-.7,8.2-1.2,10.1-1.6l4.4-.8-.5-4.4c-.2-1.4-.3-2.8-.6-4.4-.1-1-.4-2.7-.8-5.1-.2-1.3-.9-2.6-2.1-3.5-.8-.6-1.7-.9-2.6-1.1-.1-.8-.2-1.6-.3-2.4-.2-1.1-.3-2.2-.5-3.4l3.8-.7-.5-4.4c-.2-1.4-.3-2.8-.6-4.4-.1-1-.4-2.7-.8-5.1-.2-1.3-.9-2.6-2.1-3.5-1.1-.8-2.5-1.2-3.9-1.1-2.3.5-5.7.9-10.1,1.5h0Z" fill="#fff"/>
          <path d="m128.2,82.8c3.1-.4,5.9-.8,8.2-1,.1,0,.3,0,.5.1.1.1.2.2.3.4.7,2.1,1.9,5.5,3.6,10.2s3.2,8.9,4.4,12.6c1.2,3.6,2.4,7.1,3.3,10.4-1.8.3-3.5.6-5,.8-2.4.3-4.4.6-5.7.7-.2,0-.3,0-.5-.1-.1-.1-.2-.2-.3-.4-.7-2.2-1.4-4-1.9-5.6l-5.4.8c0,2.1-.1,4.3-.2,6.5-1.8.3-3.4.6-4.8.8-1.6.2-3.6.4-5.9.7-.1,0-.3,0-.4-.1s-.2-.2-.2-.3v-1.8c.1-3.2.2-6.6.4-10.1s.4-7.8.8-13,.6-8.6.7-10.2c2-.5,4.7-.9,8.1-1.4m1.6,21.1l3.2-.4c-.4-1.6-1.1-3.8-1.9-6.6s-1.4-4.9-1.7-6.1c0,1.6.1,3.9.2,6.9.1,2.9.1,5,.2,6.2m-2.3-25.9c-3.4.5-6.2.9-8.1,1.3l-3.7.7-.2,3.7c-.1,1.6-.3,5-.7,10.2-.3,5.2-.6,9.6-.8,13.1-.2,3.5-.3,6.9-.4,10.2-.1,1.7,0,2.1,0,2.6.2,1.3.9,2.6,1.9,3.4,1.1.9,2.5,1.3,3.9,1.1,2.4-.2,4.4-.5,6.1-.7,1.4-.2,3.1-.5,5-.8l3.7-.7.1-1.6c.2.1.3.2.5.4,1,.7,2.2.9,3.4.8,1.4-.1,3.4-.3,5.9-.7,1.6-.2,3.4-.5,5.2-.9l5.2-1-1.5-5.1c-1-3.3-2.1-6.9-3.4-10.6-1.2-3.7-2.7-7.9-4.4-12.6-1.7-4.6-2.9-8.1-3.6-10.2-.4-1.2-1.2-2.3-2.4-2.9-1-.6-2.3-.9-3.5-.8-2.3.4-5.1.7-8.2,1.1h0Z" fill="#fff"/>
          <path d="m157.8,78.4c1.4-.2,2.6-.3,3.6-.4s2-.1,3.1-.1,2.1.1,2.8.3,1.5.5,2.3.9,1.4.9,1.9,1.6.9,1.5,1.3,2.4c.4,1,.7,2.1.9,3.5.3,2.1,0,4-.9,5.7s-2.2,3.2-4,4.4c1.4.3,2.6,1.1,3.6,2.3,2.4,3.5,4.6,7.6,6.4,12.3-1.7.5-3.7.8-6,1.2-1.6.2-3.2.4-4.6.5-.2,0-.4,0-.6-.1s-.3-.2-.4-.4c-2.7-5.4-4.8-9.8-6.3-13.2l-.8.1c.2,1.1.5,3.3,1.1,6.6s.9,5.8,1.2,7.6c-1.6.3-3.2.6-5.1.8-1.6.2-3.6.5-5.9.7-.2,0-.3,0-.4-.1-.1-.1-.2-.2-.2-.4-.2-1.8-.7-4.7-1.3-8.6s-1-6.9-1.3-8.9-.6-4.6-1.1-8c-.4-3.4-.8-6.1-1.1-8,1.9-.6,3.9-1.1,6-1.6s4.2-.9,5.8-1.1m1.3,13.8l1-.1c.9-.1,1.6-.5,2.1-1s.7-1.2.6-1.9c-.1-.9-.4-1.6-.9-2-.4-.4-1.2-.5-2.1-.4-.5.1-1,.2-1.4.2.3,2.2.5,3.9.7,5.2m-2-18.6c-1.7.2-3.8.6-6,1.1s-4.4,1.1-6.4,1.7l-3.9,1.2.6,4.1c.3,1.9.6,4.6,1.1,7.9.4,3.4.8,6.1,1.1,8.1s.7,4.9,1.3,8.9c.6,3.9,1,6.8,1.2,8.6.2,1.4.9,2.7,2.1,3.6,1.1.9,2.5,1.2,3.9,1.1,2.4-.3,4.4-.5,6-.7,1.9-.3,3.6-.5,5.2-.8l3.7-.7c.6.1,1.1.2,1.7.1,1.5-.1,3.2-.3,4.9-.5,2.4-.3,4.6-.8,6.6-1.3l5.2-1.4-1.9-5c-2-5.1-4.3-9.6-6.9-13.4l-.1-.1-.1-.1c.3-.5.6-1.1.9-1.6,1.3-2.6,1.7-5.5,1.3-8.5-.2-1.7-.6-3.2-1.2-4.6-.6-1.4-1.2-2.6-2-3.6-.9-1.2-2.1-2.2-3.6-2.9-1.1-.6-2.2-1-3.3-1.2-1.1-.3-2.4-.4-3.9-.4-1.3,0-2.5.1-3.6.2-1.1-.1-2.4,0-3.9.2h0Z" fill="#fff"/>
          <path d="m197.6,73.1c1.5-.2,3.3-.4,5.4-.6.2,0,.3,0,.4.1.1.1.2.2.2.4,1.2,7.2,2,12.8,2.6,16.7.8,5.4,1.5,11.2,2.2,17.4-1.6.3-3.1.6-4.5.8-1.6.2-3.4.4-5.3.6-.3,0-.5-.1-.7-.5l-8-13.9,2.4,15.3c-1.8.3-3.4.6-4.8.8-1.5.2-3.4.4-5.6.7-.2,0-.3,0-.4-.1-.1-.1-.2-.2-.2-.4-1.2-7.2-2-12.8-2.6-16.7-.8-5.4-1.5-11.2-2.2-17.4,1.8-.3,3.4-.6,4.8-.8,1.1-.2,2.8-.3,5-.6.3,0,.5.1.7.5l8,13.9-2.4-15.3c1.8-.4,3.4-.7,5-.9m-.7-4.8c-1.6.2-3.4.5-5.3.9l-4.6.9h0c-.5-.1-1-.1-1.5,0-2.2.2-3.9.4-5.2.6-1.4.2-3.1.5-5,.8l-4.4.8.5,4.4c.7,6.2,1.4,12.1,2.2,17.5.6,3.9,1.4,9.6,2.6,16.8.2,1.4.9,2.6,2.1,3.5,1,.8,2.4,1.2,3.7,1.1h0c2.3-.2,4.3-.5,5.8-.7,1.4-.2,3.1-.5,5-.8l4.6-.9h0c.5.1,1,.1,1.5,0,1.9-.2,3.7-.4,5.5-.6,1.5-.2,3.1-.5,4.7-.8l4.4-.8-.5-4.4c-.7-6.2-1.4-12.1-2.2-17.5-.6-3.9-1.4-9.6-2.6-16.8-.2-1.4-.9-2.6-2.1-3.5-1.1-.8-2.4-1.2-3.7-1.1-2.1.2-3.9.4-5.5.6h0Z" fill="#fff"/>
          <path d="m213.2,70.9c1.6-.2,3.6-.4,5.9-.7.1,0,.3,0,.4.1.1.1.2.2.2.4,1.2,7.2,2,12.8,2.6,16.7.8,5.4,1.5,11.2,2.2,17.4-1.8.3-3.5.6-5,.8s-3.6.4-5.9.7c-.1,0-.3,0-.4-.1-.1-.1-.2-.2-.2-.4-1.2-7.2-2-12.8-2.6-16.7-.8-5.4-1.5-11.2-2.2-17.4,1.8-.3,3.4-.6,5-.8m-.7-4.8c-1.6.2-3.4.5-5.3.9l-4.4.8.5,4.4c.7,6.2,1.4,12.1,2.2,17.5.6,3.9,1.4,9.6,2.6,16.8.2,1.4.9,2.6,2.1,3.5s2.5,1.2,3.9,1.1c2.4-.2,4.4-.5,6.1-.7s3.4-.5,5.3-.9l4.4-.8-.5-4.4c-.7-6.2-1.4-12.1-2.2-17.5-.6-3.9-1.4-9.6-2.6-16.8-.2-1.4-.9-2.6-2.1-3.5-1.1-.8-2.5-1.2-3.9-1.1-2.4.3-4.5.5-6.1.7h0Z" fill="#fff"/>
          <path d="m245.5,66.4c1.5-.2,3.3-.4,5.4-.6.2,0,.3,0,.4.1.1.1.2.2.2.4,1.2,7.2,2,12.8,2.6,16.7.8,5.4,1.5,11.2,2.2,17.4-1.6.3-3.1.6-4.5.8-1.6.2-3.4.4-5.3.6-.3,0-.5-.1-.7-.5l-8-13.9,2.4,15.3c-1.8.3-3.4.6-4.8.8-1.5.2-3.4.4-5.6.7-.2,0-.3,0-.4-.1-.1-.1-.2-.2-.2-.4-1.2-7.2-2-12.8-2.6-16.7-.8-5.4-1.5-11.2-2.2-17.4,1.8-.3,3.4-.6,4.8-.8,1.1-.2,2.8-.3,5-.6.3,0,.5.1.7.5l8,13.9-2.4-15.3c1.8-.4,3.5-.7,5-.9m-.7-4.8c-1.6.2-3.4.5-5.3.9l-4.6.9h0c-.5-.1-1-.1-1.5,0-2.2.2-3.9.4-5.2.6-1.4.2-3.1.5-5,.8l-4.4.8.5,4.4c.7,6.2,1.4,12.1,2.2,17.5.6,3.9,1.4,9.6,2.6,16.8.2,1.4.9,2.6,2.1,3.5,1,.8,2.4,1.2,3.7,1.1h0c2.3-.2,4.3-.5,5.8-.7,1.4-.2,3.1-.5,5-.8l4.6-.9h0c.5.1,1,.1,1.5,0,1.9-.2,3.7-.4,5.5-.6,1.5-.2,3.1-.5,4.7-.8l4.4-.8-.5-4.4c-.7-6.2-1.5-12.1-2.2-17.5-.5-3.9-1.4-9.6-2.6-16.8-.2-1.4-.9-2.6-2.1-3.5-1.1-.8-2.4-1.2-3.7-1.1-2,.2-3.9.4-5.5.6h0Z" fill="#fff"/>
          <path d="m270.5,62.6c2.8-.4,6.3-.5,10.5-.5l.1,9.3-10.3,1.4c-.4.1-.6.1-.9.2s-.4.3-.6.7-.3.8-.4,1.3c-.1.6-.1,1.3,0,2.3,0,1,.1,2.1.3,3.4.2,1.1.3,2.1.5,2.9s.4,1.5.6,2.1c.2.5.4.9.6,1.3.2.3.5.6.7.7.3.1.5.2.7.3h.8l1.1-.2c-.3-1.9-.8-4.8-1.5-8.8,1.7-.3,3.2-.6,4.5-.8,1.4-.2,3.1-.4,5-.6.2,0,.3,0,.4.1s.2.2.2.4c.6,3.5,1.1,6.2,1.4,8.1.4,3.2.8,6.1,1,8.9-1.6.5-2.8.9-3.5,1.1s-1.7.5-2.9.7c-1.2.3-2.4.5-3.7.7-1.1.2-2.2.3-3.1.3-1,.1-1.9,0-2.9,0-1-.1-1.8-.2-2.6-.4s-1.6-.5-2.3-.9c-.8-.4-1.5-.9-2.1-1.5s-1.2-1.3-1.8-2.1-1-1.7-1.5-2.8c-.4-1-.8-2.2-1.1-3.5s-.6-2.8-.8-4.4c-.4-2.7-.5-5.1-.3-7.2s.6-3.9,1.3-5.3,1.6-2.7,2.9-3.7,2.6-1.8,4.1-2.4,3.6-.8,5.6-1.1m-.7-4.7c-2.4.3-4.5.8-6.4,1.5-2,.8-3.9,1.9-5.5,3.2-1.7,1.5-3.1,3.3-4.1,5.4-.9,2-1.5,4.3-1.8,6.9-.2,2.5-.1,5.2.3,8.3.2,1.8.6,3.4.9,4.9.4,1.5.9,2.9,1.4,4.2.6,1.3,1.2,2.6,2,3.7.8,1.1,1.6,2.1,2.5,2.9.9.9,2,1.6,3.1,2.2s2.2,1,3.3,1.3c1.1.3,2.3.5,3.5.6,1.1.1,2.3.1,3.5,0,1.1-.1,2.3-.2,3.5-.3,1.4-.2,2.8-.4,4.1-.7s2.4-.6,3.2-.8,2-.6,3.6-1.2l3.6-1.2-.3-3.8c-.2-2.8-.6-5.9-1-9.1-.3-1.9-.7-4.6-1.4-8.3h0c-.3-1.3-1-2.4-2-3.2v-2.8l-.1-9.3v-4.7l-4.7-.1c-4.4-.2-8.1-.1-11.2.4h0Z" fill="#fff"/>
        </g>
        <g>
          <path d="m71.1,90.7c1.6-.2,3.6-.4,5.9-.7.2,0,.3,0,.4.1s.2.2.2.4c1.2,7.2,2,12.8,2.6,16.7.4,2.6.7,5.1,1,7.5h.2c3.5-.5,6.4-.9,8.8-1.1.2,0,.3,0,.4.1s.2.2.2.4c.4,2.3.6,4,.8,5,.2,1.5.4,2.9.5,4.2-1.8.3-4.7.8-8.5,1.3-.9.1-3,.4-6.1.8s-5.2.6-6.2.7c-.2,0-.3,0-.4-.1s-.2-.2-.2-.4c-1.2-7.2-2-12.8-2.6-16.7-.8-5.4-1.5-11.2-2.2-17.4,2-.3,3.7-.6,5.2-.8m-.4-3.1c-1.6.2-3.3.5-5.2.9l-2.9.5.3,3c.7,6.2,1.5,12.1,2.2,17.4.6,3.9,1.4,9.6,2.6,16.8.1.9.7,1.8,1.4,2.4.8.6,1.8.9,2.7.8,1-.1,3-.3,6.2-.7,3.3-.4,5.2-.6,6.2-.8,3.9-.6,6.8-1,8.7-1.3l2.9-.6-.3-2.9c-.2-1.4-.3-2.8-.6-4.3-.1-1-.4-2.7-.8-5-.1-.9-.7-1.8-1.5-2.4s-1.7-.8-2.7-.7c-1.7.2-3.7.4-5.9.7-.2-1.4-.4-2.9-.6-4.3-.6-3.9-1.4-9.6-2.6-16.8-.1-.9-.7-1.8-1.4-2.4-.8-.6-1.8-.9-2.7-.8-2.4,0-4.4.2-6,.5h0Z" fill="#003463"/>
          <path d="m101.7,86.5c4.4-.6,7.7-1,10.1-1.3.2,0,.3,0,.4.1s.2.2.2.4c.4,2.3.6,4,.8,5,.2,1.5.4,2.9.5,4.2-1.6.3-4.7.8-9.2,1.4-.8.1-1.5.2-2.2.3.2,1.3.3,2.3.4,3,3.4-.5,5.8-.8,6.9-.9.2,0,.3,0,.4.1s.2.2.2.4c.2,1.6.5,3,.7,4.3.2,1.2.3,2.5.5,3.9l-7.5,1.1c.1.7.3,1.7.5,3l.7-.1c4.7-.7,8.1-1.1,10.2-1.3.2,0,.3,0,.4.1s.2.2.2.4c.4,2.3.6,4,.8,5,.2,1.5.4,2.9.5,4.2-1.8.3-5.1.8-9.9,1.5-.9.1-3,.4-6.1.8s-5.2.6-6.2.7c-.2,0-.3,0-.4-.1s-.2-.2-.2-.4c-1.2-7.2-2-12.8-2.6-16.7-.8-5.4-1.5-11.2-2.2-17.4,2-.3,5.9-.9,12.1-1.7m-.4-3.2c-6.3.9-10.3,1.5-12.2,1.8l-2.9.6.3,3c.7,6.2,1.4,12.1,2.2,17.4.6,3.9,1.4,9.6,2.6,16.8.1.9.7,1.8,1.4,2.4.8.6,1.8.9,2.7.8,1-.1,3-.3,6.2-.7,3.3-.4,5.2-.6,6.2-.8,4.9-.7,8.2-1.2,10-1.5l2.9-.6-.3-2.9c-.2-1.3-.3-2.8-.6-4.3-.1-1-.4-2.7-.8-5-.1-.9-.7-1.8-1.5-2.4s-1.7-.8-2.7-.7h-.4c-.2-1.4-.3-2.6-.5-3.8-.2-1.3-.4-2.8-.7-4.4,0-.2-.1-.4-.1-.5.3-.1.7-.1.9-.2l2.9-.6-.3-2.9c-.2-1.3-.3-2.8-.6-4.3-.1-1-.4-2.7-.8-5-.1-.9-.7-1.8-1.5-2.4s-1.8-.8-2.7-.7c-2-.1-5.4.3-9.7.9h0Z" fill="#003463"/>
          <path d="m128.2,82.8c3.1-.4,5.9-.8,8.2-1,.1,0,.3,0,.5.1.1.1.2.2.3.4.7,2.1,1.9,5.5,3.6,10.2s3.2,8.9,4.4,12.6c1.2,3.6,2.4,7.1,3.3,10.4-1.8.3-3.5.6-5,.8-2.4.3-4.4.6-5.7.7-.2,0-.3,0-.5-.1-.1-.1-.2-.2-.3-.4-.7-2.2-1.4-4-1.9-5.6l-5.4.8c0,2.1-.1,4.3-.2,6.5-1.8.3-3.4.6-4.8.8-1.6.2-3.6.4-5.9.7-.1,0-.3,0-.4-.1s-.2-.2-.2-.3v-1.8c.1-3.2.2-6.6.4-10.1s.4-7.8.8-13,.6-8.6.7-10.2c2-.5,4.7-.9,8.1-1.4m1.6,21.1l3.2-.4c-.4-1.6-1.1-3.8-1.9-6.6s-1.4-4.9-1.7-6.1c0,1.6.1,3.9.2,6.9.1,2.9.1,5,.2,6.2m-2.1-24.3c-3.4.5-6.1.9-8.1,1.3l-2.5.5-.2,2.5c-.1,1.6-.3,5-.7,10.2-.3,5.2-.6,9.6-.8,13-.2,3.5-.3,6.9-.4,10.2-.1,1.7,0,2.1,0,2.3.1.9.6,1.8,1.3,2.4.8.6,1.7.9,2.7.8,2.4-.2,4.4-.5,6-.7,1.4-.2,3-.5,4.9-.8l2.5-.5.1-2.5c.1-1.3.1-2.6.2-3.9.3,1,.7,2,1.1,3.1.3.8.8,1.5,1.6,2,.7.5,1.6.7,2.4.6,1.4-.1,3.3-.3,5.9-.7,1.6-.2,3.3-.5,5.2-.9l3.5-.7-1-3.4c-1-3.3-2.1-6.8-3.4-10.5-1.2-3.7-2.7-7.9-4.4-12.6s-2.9-8.1-3.6-10.2c-.3-.8-.9-1.6-1.7-2.1s-1.6-.7-2.5-.6c-2.1.4-4.9.8-8.1,1.2h0Z" fill="#003463"/>
          <path d="m157.8,78.4c1.4-.2,2.6-.3,3.6-.4s2-.1,3.1-.1,2.1.1,2.8.3,1.5.5,2.3.9,1.4.9,1.9,1.6.9,1.5,1.3,2.4c.4,1,.7,2.1.9,3.5.3,2.1,0,4-.9,5.7s-2.2,3.2-4,4.4c1.4.3,2.6,1.1,3.6,2.3,2.4,3.5,4.6,7.6,6.4,12.3-1.7.5-3.7.8-6,1.2-1.6.2-3.2.4-4.6.5-.2,0-.4,0-.6-.1s-.3-.2-.4-.4c-2.7-5.4-4.8-9.8-6.3-13.2l-.8.1c.2,1.1.5,3.3,1.1,6.6s.9,5.8,1.2,7.6c-1.6.3-3.2.6-5.1.8-1.6.2-3.6.5-5.9.7-.2,0-.3,0-.4-.1-.1-.1-.2-.2-.2-.4-.2-1.8-.7-4.7-1.3-8.6s-1-6.9-1.3-8.9-.6-4.6-1.1-8c-.4-3.4-.8-6.1-1.1-8,1.9-.6,3.9-1.1,6-1.6s4.2-.9,5.8-1.1m1.3,13.8l1-.1c.9-.1,1.6-.5,2.1-1s.7-1.2.6-1.9c-.1-.9-.4-1.6-.9-2-.4-.4-1.2-.5-2.1-.4-.5.1-1,.2-1.4.2.3,2.2.5,3.9.7,5.2m-1.8-17c-1.7.2-3.7.6-5.9,1.1s-4.3,1-6.3,1.6l-2.6.8.4,2.7c.3,1.9.6,4.6,1.1,8,.4,3.4.8,6.1,1.1,8s.7,4.9,1.3,8.9c.6,3.9,1,6.8,1.3,8.6.1,1,.7,1.9,1.5,2.5s1.8.9,2.8.7c2.3-.3,4.4-.5,6-.7,1.8-.2,3.6-.5,5.2-.8l3-.6-.1-.6c.1.1.3.2.4.2.7.3,1.4.4,2.1.3,1.5-.1,3.1-.3,4.8-.5,2.4-.3,4.5-.8,6.4-1.2l3.5-.9-1.3-3.3c-1.9-5-4.2-9.3-6.8-13l-.1-.1-.1-.1c-.2-.3-.5-.6-.8-.9.6-.8,1.1-1.6,1.5-2.4,1.1-2.3,1.5-4.9,1.1-7.6-.2-1.6-.6-3-1.1-4.2s-1.1-2.3-1.8-3.2c-.8-1-1.8-1.9-3-2.5-1-.5-2-.9-3-1.1s-2.2-.4-3.6-.3c-1.2,0-2.4.1-3.4.2-.9,0-2.1.2-3.6.4h0Z" fill="#003463"/>
          <path d="m197.6,73.1c1.5-.2,3.3-.4,5.4-.6.2,0,.3,0,.4.1.1.1.2.2.2.4,1.2,7.2,2,12.8,2.6,16.7.8,5.4,1.5,11.2,2.2,17.4-1.6.3-3.1.6-4.5.8-1.6.2-3.4.4-5.3.6-.3,0-.5-.1-.7-.5l-8-13.9,2.4,15.3c-1.8.3-3.4.6-4.8.8-1.5.2-3.4.4-5.6.7-.2,0-.3,0-.4-.1-.1-.1-.2-.2-.2-.4-1.2-7.2-2-12.8-2.6-16.7-.8-5.4-1.5-11.2-2.2-17.4,1.8-.3,3.4-.6,4.8-.8,1.1-.2,2.8-.3,5-.6.3,0,.5.1.7.5l8,13.9-2.4-15.3c1.8-.4,3.4-.7,5-.9m-.5-3.2c-1.6.2-3.3.5-5.2.9l-3,.6.3,1.7c-.8-1-2.1-1.5-3.4-1.4-2.2.2-3.9.4-5.1.6-1.4.2-3,.5-4.9.8l-2.9.6.3,3c.7,6.2,1.4,12.1,2.2,17.4.6,3.9,1.4,9.6,2.6,16.8.1.9.6,1.8,1.5,2.4.7.6,1.7.8,2.6.8,2.3-.2,4.3-.5,5.8-.7,1.4-.2,3-.5,4.9-.8l3-.6-.3-1.7c.8,1,2.1,1.6,3.4,1.4,1.9-.2,3.7-.4,5.4-.6,1.4-.2,3-.5,4.6-.8l2.9-.6-.3-2.9c-.7-6.2-1.4-12-2.2-17.4-.6-3.9-1.4-9.6-2.6-16.8-.1-.9-.6-1.8-1.4-2.4-.8-.6-1.7-.8-2.6-.8-2.2.1-4,.3-5.6.5h0Z" fill="#003463"/>
          <path d="m213.2,70.9c1.6-.2,3.6-.4,5.9-.7.1,0,.3,0,.4.1.1.1.2.2.2.4,1.2,7.2,2,12.8,2.6,16.7.8,5.4,1.5,11.2,2.2,17.4-1.8.3-3.5.6-5,.8s-3.6.4-5.9.7c-.1,0-.3,0-.4-.1-.1-.1-.2-.2-.2-.4-1.2-7.2-2-12.8-2.6-16.7-.8-5.4-1.5-11.2-2.2-17.4,1.8-.3,3.4-.6,5-.8m-.5-3.2c-1.6.2-3.3.5-5.2.9l-2.9.6.3,3c.7,6.2,1.4,12.1,2.2,17.4.6,3.9,1.4,9.6,2.6,16.8.1.9.6,1.8,1.4,2.4.8.6,1.8.9,2.7.8,2.4-.2,4.4-.5,6-.7s3.3-.5,5.2-.9l2.9-.6-.3-3c-.7-6.2-1.4-12-2.2-17.4-.6-3.9-1.4-9.6-2.6-16.8-.1-.9-.6-1.8-1.4-2.4-.8-.6-1.8-.9-2.7-.8-2.3.3-4.4.5-6,.7h0Z" fill="#003463"/>
          <path d="m245.5,66.4c1.5-.2,3.3-.4,5.4-.6.2,0,.3,0,.4.1.1.1.2.2.2.4,1.2,7.2,2,12.8,2.6,16.7.8,5.4,1.5,11.2,2.2,17.4-1.6.3-3.1.6-4.5.8-1.6.2-3.4.4-5.3.6-.3,0-.5-.1-.7-.5l-8-13.9,2.4,15.3c-1.8.3-3.4.6-4.8.8-1.5.2-3.4.4-5.6.7-.2,0-.3,0-.4-.1-.1-.1-.2-.2-.2-.4-1.2-7.2-2-12.8-2.6-16.7-.8-5.4-1.5-11.2-2.2-17.4,1.8-.3,3.4-.6,4.8-.8,1.1-.2,2.8-.3,5-.6.3,0,.5.1.7.5l8,13.9-2.4-15.3c1.8-.4,3.5-.7,5-.9m-.4-3.2c-1.6.2-3.3.5-5.2.9l-3,.6.3,1.7c-.8-1-2.1-1.5-3.4-1.4-2.2.2-3.9.4-5.1.6-1.4.2-3,.5-4.9.8l-2.9.6.3,3c.7,6.2,1.4,12.1,2.2,17.4.6,3.9,1.4,9.6,2.6,16.8.1.9.6,1.8,1.5,2.4.7.6,1.7.8,2.6.8,2.3-.2,4.3-.5,5.8-.7,1.4-.2,3-.5,4.9-.8l3-.6-.3-1.7c.8,1,2.1,1.6,3.4,1.4,1.9-.2,3.7-.4,5.4-.6,1.4-.2,3-.5,4.6-.8l2.9-.6-.3-2.9c-.7-6.2-1.4-12-2.2-17.4-.5-3.9-1.4-9.6-2.6-16.8-.1-.9-.6-1.8-1.4-2.4-.8-.6-1.7-.8-2.6-.8-2.3.1-4.1.3-5.6.5h0Z" fill="#003463"/>
          <path d="m270.5,62.6c2.8-.4,6.3-.5,10.5-.5l.1,9.3-10.3,1.4c-.4.1-.6.1-.9.2s-.4.3-.6.7-.3.8-.4,1.3c-.1.6-.1,1.3,0,2.3,0,1,.1,2.1.3,3.4.2,1.1.3,2.1.5,2.9s.4,1.5.6,2.1c.2.5.4.9.6,1.3.2.3.5.6.7.7.3.1.5.2.7.3h.8l1.1-.2c-.3-1.9-.8-4.8-1.5-8.8,1.7-.3,3.2-.6,4.5-.8,1.4-.2,3.1-.4,5-.6.2,0,.3,0,.4.1s.2.2.2.4c.6,3.5,1.1,6.2,1.4,8.1.4,3.2.8,6.1,1,8.9-1.6.5-2.8.9-3.5,1.1s-1.7.5-2.9.7c-1.2.3-2.4.5-3.7.7-1.1.2-2.2.3-3.1.3-1,.1-1.9,0-2.9,0-1-.1-1.8-.2-2.6-.4s-1.6-.5-2.3-.9c-.8-.4-1.5-.9-2.1-1.5s-1.2-1.3-1.8-2.1-1-1.7-1.5-2.8c-.4-1-.8-2.2-1.1-3.5s-.6-2.8-.8-4.4c-.4-2.7-.5-5.1-.3-7.2s.6-3.9,1.3-5.3,1.6-2.7,2.9-3.7,2.6-1.8,4.1-2.4,3.6-.8,5.6-1.1m-.5-3.2c-2.2.3-4.3.8-6,1.5-1.9.7-3.6,1.7-5.1,3-1.6,1.3-2.8,2.9-3.7,4.8-.8,1.8-1.4,3.9-1.6,6.4-.2,2.3-.1,5,.3,7.9.2,1.7.5,3.3.9,4.7.4,1.5.8,2.8,1.3,4,.5,1.2,1.1,2.4,1.8,3.4s1.4,1.9,2.2,2.6c.8.8,1.8,1.4,2.8,1.9s2,.9,3,1.2c1,.3,2.1.4,3.2.5s2.2.1,3.2,0,2.2-.2,3.4-.3c1.4-.2,2.7-.4,4-.7,1.3-.3,2.3-.5,3.1-.8.8-.2,2-.6,3.6-1.1l2.4-.8-.2-2.5c-.2-2.8-.6-5.8-1-9.1-.3-1.9-.7-4.6-1.4-8.2-.2-1-.7-1.8-1.5-2.3-.7-.6-1.7-.8-2.6-.8-2,.2-3.8.4-5.2.6s-3,.5-4.7.8l-.3.1v-.2l9.5-1.3,2.8-.4v-2.8l-.1-9.3v-3.1l-3.1-.1c-4.3-.1-8,0-11,.4h0Z" fill="#003463"/>
        </g>
        <g>
          <path d="m90.8,113.7c-.1-.1-.3-.1-.4-.1-2.4.2-5.3.6-8.8,1.1h-.2c-.3-2.4-.7-4.9-1-7.5-.6-3.9-1.4-9.5-2.6-16.7,0-.2-.1-.3-.2-.4-.3,0-.4-.1-.6-.1-2.4.2-4.3.5-5.9.7s-3.2.5-5,.8c.7,6.2,1.4,12,2.2,17.4.6,3.9,1.4,9.5,2.6,16.7,0,.2.1.3.2.4s.3.1.4.1c1-.1,3.1-.3,6.2-.7,3.1-.4,5.2-.6,6.1-.8,3.8-.5,6.7-1,8.5-1.3-.2-1.3-.3-2.7-.5-4.2-.1-1-.4-2.6-.8-5,0-.1-.1-.3-.2-.4h0Z" fill="#00d4a1"/>
          <path d="m115.8,110.2c-.1-.1-.3-.1-.4-.1-2.1.2-5.5.7-10.2,1.3l-.7.1c-.2-1.3-.4-2.3-.5-3l7.5-1.1c-.2-1.4-.3-2.7-.5-3.9-.2-1.3-.4-2.8-.7-4.3,0-.2-.1-.3-.2-.4s-.3-.1-.4-.1c-1.2.1-3.5.4-6.9.9-.1-.7-.2-1.7-.4-3,.7-.1,1.4-.2,2.2-.3,4.5-.6,7.6-1.1,9.2-1.4-.2-1.3-.3-2.7-.5-4.2-.1-1-.4-2.6-.8-5,0-.2-.1-.3-.2-.4s-.3-.1-.4-.1c-2.4.2-5.7.7-10.1,1.3-6.2.9-10.2,1.5-12,1.8.7,6.2,1.4,12,2.2,17.4.6,3.9,1.4,9.5,2.6,16.7,0,.2.1.3.2.4s.3.1.4.1c1-.1,3.1-.3,6.2-.7,3.1-.4,5.2-.6,6.1-.8,4.8-.7,8.1-1.2,9.9-1.5-.2-1.3-.3-2.7-.5-4.2-.1-1-.4-2.6-.8-5,0-.2-.1-.4-.3-.5h0Z" fill="#00d4a1"/>
          <path d="m140.8,92.5c-1.7-4.7-2.9-8.1-3.6-10.2-.1-.2-.1-.3-.3-.4-.1-.1-.3-.1-.5-.1-2.4.2-5.1.6-8.2,1-3.4.5-6,.9-7.9,1.2-.1,1.6-.3,5-.7,10.2-.3,5.2-.6,9.5-.8,13-.2,3.5-.3,6.8-.4,10.1v1.8c0,.1.1.2.2.3s.2.1.4.1c2.3-.2,4.3-.5,5.9-.7,1.3-.2,2.9-.4,4.8-.8.1-2.2.2-4.4.2-6.5l5.4-.8c.5,1.6,1.1,3.5,1.9,5.6.1.2.1.3.3.4.1.1.3.1.5.1,1.3-.1,3.2-.3,5.7-.7,1.5-.2,3.2-.5,5-.8-1-3.3-2.1-6.7-3.3-10.4-1.4-3.5-2.9-7.7-4.6-12.4h0Zm-11,11.4c0-1.2-.1-3.3-.2-6.3-.1-3-.1-5.3-.2-6.9.3,1.2.9,3.2,1.7,6.1s1.4,5.1,1.9,6.6l-3.2.5h0Z" fill="#00d4a1"/>
          <path d="m168.8,96.5c1.8-1.2,3.1-2.6,4-4.4s1.1-3.7.9-5.7c-.2-1.3-.5-2.5-.9-3.5s-.8-1.8-1.3-2.4c-.5-.7-1.1-1.2-1.9-1.6s-1.6-.7-2.3-.9-1.7-.3-2.8-.3-2.2.1-3.1.1-2.1.2-3.6.4c-1.6.2-3.5.6-5.7,1.1s-4.2,1-6,1.6c.3,1.9.6,4.6,1.1,8,.4,3.4.8,6.1,1.1,8s.7,4.9,1.3,8.9,1,6.8,1.3,8.6c0,.2.1.3.2.4.1.1.3.1.4.1,2.3-.3,4.3-.5,5.9-.7,1.8-.2,3.5-.5,5.1-.8-.2-1.7-.6-4.2-1.2-7.6-.5-3.3-.9-5.5-1.1-6.6l.8-.1c1.5,3.4,3.6,7.8,6.3,13.2.1.2.2.3.4.4s.4.1.6.1c1.5-.1,3-.3,4.6-.5,2.3-.3,4.3-.7,6-1.2-1.8-4.7-4-8.9-6.4-12.3-1.1-1.3-2.3-2.1-3.7-2.3h0Zm-6.6-5.4c-.5.5-1.2.9-2.1,1l-1,.1c-.2-1.2-.4-3-.7-5.2.4-.1.9-.2,1.4-.2,1-.1,1.7,0,2.1.4s.7,1.1.9,2c.1.7-.1,1.3-.6,1.9h0Z" fill="#00d4a1"/>
          <path d="m203.4,72.6c-.1-.1-.3-.1-.4-.1-2.1.2-3.9.4-5.4.6s-3.2.5-5,.8l2.4,15.3-8-13.9c-.2-.4-.4-.5-.7-.5-2.2.2-3.9.4-5,.6-1.4.2-2.9.4-4.8.8.7,6.2,1.4,12,2.2,17.4.6,3.9,1.4,9.5,2.6,16.7,0,.2.1.3.2.4.1.1.3.1.4.1,2.2-.2,4.1-.4,5.6-.7,1.4-.2,2.9-.4,4.8-.8l-2.5-15.3,8,13.9c.2.4.4.5.7.5,1.9-.2,3.7-.4,5.3-.6,1.4-.2,2.9-.4,4.5-.8-.7-6.2-1.4-12-2.2-17.4-.6-3.9-1.4-9.5-2.6-16.7.1-.1,0-.2-.1-.3h0Z" fill="#00d4a1"/>
          <path d="m219.5,70.3c-.1-.1-.3-.1-.4-.1-2.4.2-4.4.5-5.9.7s-3.2.5-5,.8c.7,6.2,1.4,12,2.2,17.4.6,3.9,1.4,9.5,2.6,16.7,0,.2.1.3.2.4.1.1.3.1.4.1,2.4-.2,4.4-.5,5.9-.7s3.2-.5,5-.8c-.7-6.2-1.4-12-2.2-17.4-.6-3.9-1.4-9.5-2.6-16.7,0-.1,0-.3-.2-.4h0Z" fill="#00d4a1"/>
          <path d="m251.3,65.9c-.1-.1-.3-.1-.4-.1-2.1.2-3.9.4-5.4.6s-3.2.5-5,.8l2.4,15.3-8-13.9c-.2-.4-.4-.5-.7-.5-2.2.2-3.9.4-5,.6-1.4.2-2.9.4-4.8.8.7,6.2,1.4,12,2.2,17.4.6,3.9,1.4,9.5,2.6,16.7,0,.2.1.3.2.4.1.1.3.1.4.1,2.2-.2,4.1-.4,5.6-.7,1.4-.2,2.9-.4,4.8-.8l-2.4-15.3,8,13.9c.2.4.4.5.7.5,1.9-.2,3.7-.4,5.3-.6,1.4-.2,2.9-.4,4.5-.8-.7-6.2-1.4-12-2.2-17.4-.6-3.9-1.4-9.5-2.6-16.7,0-.1-.1-.2-.2-.3h0Z" fill="#00d4a1"/>
          <path d="m283.1,78.3c0-.2-.1-.3-.2-.4s-.3-.1-.4-.1c-1.9.2-3.6.4-5,.6s-2.9.4-4.5.8c.7,3.9,1.2,6.9,1.5,8.8l-1.1.2c-.3,0-.6.1-.8,0-.2,0-.5-.1-.7-.3-.3-.1-.5-.4-.7-.7-.2-.3-.4-.8-.6-1.3s-.4-1.2-.6-2.1-.4-1.8-.5-2.9c-.2-1.3-.3-2.5-.3-3.4v-2.3c.1-.6.2-1,.4-1.3s.4-.6.6-.7.5-.2.9-.2l10.3-1.4-.1-9.3c-4.2-.1-7.6.1-10.5.5-2,.3-3.8.7-5.3,1.3s-2.9,1.4-4.1,2.4-2.2,2.3-2.9,3.7c-.7,1.5-1.1,3.2-1.3,5.3s-.1,4.5.3,7.2c.2,1.6.5,3,.8,4.4s.7,2.5,1.1,3.5.9,2,1.5,2.8,1.1,1.5,1.8,2.1c.6.6,1.3,1.1,2.1,1.5.8.4,1.5.7,2.3.9s1.7.3,2.6.4c1,.1,1.9.1,2.9,0s2-.2,3.1-.3c1.3-.2,2.6-.4,3.7-.7,1.2-.3,2.1-.5,2.9-.7s2-.6,3.5-1.1c-.2-2.8-.6-5.7-1-8.9-.6-2-1-4.7-1.7-8.3h0Z" fill="#00d4a1"/>
        </g>
      </g>
      <g>
        <g isolation="isolate">
          <path d="m72.1,159.8c-.6-5.7-1.3-11.9-1.8-18.5,1.9-.3,3.6-.5,5.1-.7,1.2-.1,3-.3,5.3-.5.3,0,.5.2.7.5l8.1,15-2.1-16.3c1.9-.3,3.7-.6,5.4-.7,1.6-.2,3.5-.3,5.7-.5.2,0,.3,0,.5.1.1.1.2.2.2.4,1,7.7,1.8,13.6,2.3,17.8.6,5.7,1.3,11.9,1.8,18.5-1.7.3-3.3.5-4.8.7-1.8.2-3.6.4-5.6.5-.3,0-.6-.2-.7-.5l-8.1-15,2.1,16.3c-1.9.3-3.6.5-5.1.7-1.6.2-3.6.4-6,.5-.2,0-.3,0-.5-.1-.1-.1-.2-.2-.2-.4-1.1-7.7-1.8-13.6-2.3-17.8Z" fill="none" stroke="#fff" stroke-width="5.41"/>
          <path d="m104.8,156.4c-.7-5.9-1.3-12.1-1.9-18.7,1.9-.3,3.7-.6,5.4-.7,1.7-.2,3.8-.4,6.3-.6.2,0,.3,0,.5.1s.2.2.2.4c1,7.7,1.9,14.3,2.5,19.9.2,1.3.3,2.4.5,3.3.2.8.4,1.5.7,1.9.3.4.6.7.9.8s.7.1,1.1.1c.6-.1,1-.3,1.3-.6s.4-.9.5-1.9c.1-.9,0-2.3-.2-4.1-.8-7.1-1.5-14-2.1-20.6,1.9-.3,3.7-.6,5.4-.7,1.7-.2,3.8-.4,6.3-.6.2,0,.3,0,.5.1.1.1.2.2.2.4,1,7.7,1.8,13.7,2.3,18,.3,2.6.4,5,.2,7.1s-.5,3.9-1.1,5.4-1.4,2.8-2.4,3.9c-1,1.1-2.2,1.9-3.6,2.6-1.4.6-2.9,1.1-4.7,1.4-1.4.2-2.8.3-3.9.3-1.2,0-2.3-.1-3.4-.2-1.1-.2-2.1-.4-3-.8s-1.7-.9-2.5-1.5-1.5-1.4-2.1-2.3c-.6-.9-1.2-1.9-1.7-3.1-.5-1.2-.9-2.6-1.3-4.1-.4-1.6-.7-3.3-.9-5.2Z" fill="none" stroke="#fff" stroke-width="5.41"/>
          <path d="m138.5,152.3c-.6-5.7-1.3-11.9-1.8-18.5,1.9-.3,3.6-.5,5.1-.7,1.7-.2,3.5-.3,5.3-.5.3,0,.5.2.7.5l9.5,14.9,5.9-16.6c.2-.4.5-.6.7-.7,1.3-.2,2.7-.5,4.3-.6,1.7-.2,3.6-.4,5.7-.5.2,0,.3,0,.5.1.1.1.2.2.2.4,1,7.7,1.8,13.6,2.3,17.8.6,5.7,1.3,11.9,1.8,18.5-1.8.3-3.3.5-4.8.7-1.3.1-3.2.3-5.7.5-.2,0-.3,0-.5-.1-.1-.1-.2-.2-.2-.4-.2-1.1-.4-2.9-.7-5.1-.3-2.3-.6-4.4-.9-6.2-.3-1.9-.5-3.7-.7-5.4l-5.4,15.1-.7.2-.6-.1-8.2-12.9,2.1,16.7c-1.9.3-3.6.5-5.1.7s-3.5.3-6,.5c-.2,0-.3,0-.5-.1-.1-.1-.2-.2-.2-.4-.9-7.6-1.7-13.6-2.1-17.8Z" fill="none" stroke="#fff" stroke-width="5.41"/>
          <path d="m181.3,146.7c-.2-2.1-.5-4.9-.9-8.5s-.7-6.5-.9-8.5c4.5-1.2,8.4-2,11.9-2.4,1.4-.2,2.6-.3,3.5-.3,1-.1,2-.1,3.2,0,1.1,0,2.1.2,2.9.4.8.2,1.6.5,2.4,1s1.5,1,2,1.7,1,1.6,1.3,2.6c.4,1.1.7,2.3.8,3.7.4,3.2-.5,6-2.7,8.4,1.8.7,3.3,1.7,4.4,2.9,1.1,1.2,1.7,2.5,1.9,4,.2,1.4.2,2.6,0,3.8-.1,1.1-.4,2.1-.8,3-.4.8-.9,1.6-1.6,2.3-.7.7-1.4,1.2-2.1,1.7-.8.4-1.7.8-2.7,1.2-1,.3-2.1.6-3.1.8s-2.2.4-3.4.5c-4.4.5-8.8.8-13.2.8-.2,0-.3-.1-.5-.2-.1-.1-.2-.3-.2-.4-.2-1.9-.6-4.9-1.1-8.9-.5-4.5-.8-7.5-1.1-9.6Zm11.6-5.6l.5-.1c1-.1,1.8-.4,2.4-1,.6-.5.9-1.2.8-2-.1-.8-.5-1.4-1.1-1.7-.7-.4-1.4-.5-2.3-.4-.3,0-.6.1-.8.1,0,.4.1,1.2.2,2.3.2,1.2.3,2.1.3,2.8Zm1.1,9.2c.1,1.1.4,2.7.7,4.9l1-.1c1.1-.1,1.9-.4,2.4-.9s.6-1.1.6-1.9c-.1-.7-.4-1.3-1-1.7s-1.3-.6-2.1-.5l-1.6.2Z" fill="none" stroke="#fff" stroke-width="5.41"/>
          <path d="m213,143.9c-.6-5.7-1.3-11.9-1.8-18.5,1.9-.3,6.2-.8,12.8-1.6,4.6-.5,8.2-.9,10.8-1.1.2,0,.3,0,.5.1.1.1.2.2.2.4.3,2.5.5,4.3.7,5.3.2,1.6.3,3.1.4,4.5-1.7.3-5,.7-9.8,1.2-.9.1-1.6.2-2.3.2.1,1.4.2,2.5.3,3.2,3.7-.4,6.1-.6,7.4-.7.2,0,.3,0,.5.1.1.1.2.2.2.4.2,1.7.4,3.2.6,4.6.1,1.3.3,2.6.4,4.1l-8,.9c.1.7.2,1.8.4,3.2l.7-.1c5-.6,8.7-.9,10.9-1.1.2,0,.3,0,.5.1s.2.2.2.4c.3,2.5.5,4.3.7,5.3.2,1.6.3,3.1.4,4.5-1.9.3-5.5.8-10.5,1.3-1,.1-3.2.3-6.5.6s-5.5.5-6.6.6c-.2,0-.3,0-.5-.1-.1-.1-.2-.2-.2-.4-1.1-7.3-1.9-13.2-2.4-17.4Z" fill="none" stroke="#fff" stroke-width="5.41"/>
          <path d="m241,139.9c-.2-2.1-.5-4.9-.9-8.5-.4-3.6-.7-6.5-.9-8.5,2-.5,4.2-1,6.5-1.5s4.3-.8,6-1c1.5-.2,2.8-.3,3.8-.4,1-.1,2.1-.1,3.3-.1s2.2.1,3,.4c.8.2,1.6.5,2.4,1,.8.4,1.5,1,2,1.7s1,1.6,1.3,2.6c.4,1.1.7,2.3.8,3.7.3,2.2-.1,4.3-1.1,6.1s-2.4,3.3-4.4,4.5c1.4.3,2.7,1.2,3.7,2.6,2.5,3.8,4.6,8.2,6.5,13.3-1.9.4-4,.8-6.4,1.1-1.7.2-3.4.3-5,.4-.2,0-.4,0-.6-.1s-.3-.2-.4-.4c-2.7-5.8-4.8-10.6-6.3-14.2l-.8.1c.2,1.1.5,3.5.9,7,.5,3.6.8,6.2,1,8.1-1.7.3-3.5.5-5.4.7-1.7.2-3.8.4-6.3.6-.2,0-.3,0-.5-.1-.1-.1-.2-.2-.2-.4-.2-1.9-.6-5-1.1-9.2-.3-4.2-.7-7.4-.9-9.5Zm11.7-4.8l1-.1c1-.1,1.7-.4,2.3-1s.8-1.2.7-2c-.1-1-.4-1.7-.9-2.2-.5-.4-1.2-.6-2.3-.5-.5.1-1,.1-1.5.2.4,2.4.6,4.3.7,5.6Z" fill="none" stroke="#fff" stroke-width="5.41"/>
          <path d="m274.7,155.3l.3-11.3c4.7.9,8.4,1.2,11.2.9,1.1-.1,1.9-.4,2.4-.9s.7-1,.7-1.6c0-.2-.1-.4-.2-.5-.1-.2-.3-.3-.5-.4l-.6-.3c-.2-.1-.5-.2-.9-.3s-.7-.1-1-.2c-.3,0-.7-.1-1.2-.2-.9-.2-1.7-.3-2.2-.4-.5-.1-1.3-.3-2.2-.6-1-.3-1.8-.6-2.4-.9-.6-.3-1.3-.8-2.1-1.4-.8-.6-1.4-1.2-1.9-2-.5-.7-.9-1.6-1.3-2.7-.4-1.1-.7-2.3-.8-3.6-.2-1.4-.2-2.7,0-3.8.1-1.1.4-2.1.7-2.9.3-.8.8-1.5,1.5-2.1s1.3-1.1,2-1.5,1.6-.7,2.7-1,2.1-.5,3-.7,2.1-.3,3.5-.5c3.4-.4,7.4-.4,12,0l-.2,10.4c-1.6-.5-3.5-.9-5.6-1.2-2.1-.3-4-.3-5.8-.1-1,.1-1.7.3-2.2.7-.5.4-.7.8-.7,1.4,0,.2.1.3.2.5.1.1.3.3.5.4.2.1.5.2.7.3s.5.2,1,.3c.4.1.8.2,1.1.2.3.1.7.1,1.3.2,2.6.5,4.6.9,5.9,1.4,3.5,1.2,5.9,3.2,7.2,5.9.5,1.1.8,2.3,1,3.6.2,1.4.2,2.6,0,3.8-.1,1.2-.4,2.2-.8,3.1-.4.9-.9,1.7-1.5,2.4s-1.4,1.3-2.1,1.8c-.8.5-1.7.9-2.7,1.3-1,.4-2.1.7-3.1.9s-2.2.4-3.4.5c-4.8.8-9.1,1-13.5,1.1Z" fill="none" stroke="#fff" stroke-width="5.41"/>
        </g>
        <g isolation="isolate">
          <path d="m72.1,159.8c-.6-5.7-1.3-11.9-1.8-18.5,1.9-.3,3.6-.5,5.1-.7,1.2-.1,3-.3,5.3-.5.3,0,.5.2.7.5l8.1,15-2.1-16.3c1.9-.3,3.7-.6,5.4-.7,1.6-.2,3.5-.3,5.7-.5.2,0,.3,0,.5.1.1.1.2.2.2.4,1,7.7,1.8,13.6,2.3,17.8.6,5.7,1.3,11.9,1.8,18.5-1.7.3-3.3.5-4.8.7-1.8.2-3.6.4-5.6.5-.3,0-.6-.2-.7-.5l-8.1-15,2.1,16.3c-1.9.3-3.6.5-5.1.7-1.6.2-3.6.4-6,.5-.2,0-.3,0-.5-.1-.1-.1-.2-.2-.2-.4-1.1-7.7-1.8-13.6-2.3-17.8Z" fill="#ffdc23"/>
          <path d="m104.8,156.4c-.7-5.9-1.3-12.1-1.9-18.7,1.9-.3,3.7-.6,5.4-.7,1.7-.2,3.8-.4,6.3-.6.2,0,.3,0,.5.1s.2.2.2.4c1,7.7,1.9,14.3,2.5,19.9.2,1.3.3,2.4.5,3.3.2.8.4,1.5.7,1.9.3.4.6.7.9.8s.7.1,1.1.1c.6-.1,1-.3,1.3-.6s.4-.9.5-1.9c.1-.9,0-2.3-.2-4.1-.8-7.1-1.5-14-2.1-20.6,1.9-.3,3.7-.6,5.4-.7,1.7-.2,3.8-.4,6.3-.6.2,0,.3,0,.5.1.1.1.2.2.2.4,1,7.7,1.8,13.7,2.3,18,.3,2.6.4,5,.2,7.1s-.5,3.9-1.1,5.4-1.4,2.8-2.4,3.9c-1,1.1-2.2,1.9-3.6,2.6-1.4.6-2.9,1.1-4.7,1.4-1.4.2-2.8.3-3.9.3-1.2,0-2.3-.1-3.4-.2-1.1-.2-2.1-.4-3-.8s-1.7-.9-2.5-1.5-1.5-1.4-2.1-2.3c-.6-.9-1.2-1.9-1.7-3.1-.5-1.2-.9-2.6-1.3-4.1-.4-1.6-.7-3.3-.9-5.2Z" fill="#ffdc23"/>
          <path d="m138.5,152.3c-.6-5.7-1.3-11.9-1.8-18.5,1.9-.3,3.6-.5,5.1-.7,1.7-.2,3.5-.3,5.3-.5.3,0,.5.2.7.5l9.5,14.9,5.9-16.6c.2-.4.5-.6.7-.7,1.3-.2,2.7-.5,4.3-.6,1.7-.2,3.6-.4,5.7-.5.2,0,.3,0,.5.1.1.1.2.2.2.4,1,7.7,1.8,13.6,2.3,17.8.6,5.7,1.3,11.9,1.8,18.5-1.8.3-3.3.5-4.8.7-1.3.1-3.2.3-5.7.5-.2,0-.3,0-.5-.1-.1-.1-.2-.2-.2-.4-.2-1.1-.4-2.9-.7-5.1-.3-2.3-.6-4.4-.9-6.2-.3-1.9-.5-3.7-.7-5.4l-5.4,15.1-.7.2-.6-.1-8.2-12.9,2.1,16.7c-1.9.3-3.6.5-5.1.7s-3.5.3-6,.5c-.2,0-.3,0-.5-.1-.1-.1-.2-.2-.2-.4-.9-7.6-1.7-13.6-2.1-17.8Z" fill="#ffdc23"/>
          <path d="m181.3,146.7c-.2-2.1-.5-4.9-.9-8.5s-.7-6.5-.9-8.5c4.5-1.2,8.4-2,11.9-2.4,1.4-.2,2.6-.3,3.5-.3,1-.1,2-.1,3.2,0,1.1,0,2.1.2,2.9.4.8.2,1.6.5,2.4,1s1.5,1,2,1.7,1,1.6,1.3,2.6c.4,1.1.7,2.3.8,3.7.4,3.2-.5,6-2.7,8.4,1.8.7,3.3,1.7,4.4,2.9,1.1,1.2,1.7,2.5,1.9,4,.2,1.4.2,2.6,0,3.8-.1,1.1-.4,2.1-.8,3-.4.8-.9,1.6-1.6,2.3-.7.7-1.4,1.2-2.1,1.7-.8.4-1.7.8-2.7,1.2-1,.3-2.1.6-3.1.8s-2.2.4-3.4.5c-4.4.5-8.8.8-13.2.8-.2,0-.3-.1-.5-.2-.1-.1-.2-.3-.2-.4-.2-1.9-.6-4.9-1.1-8.9-.5-4.5-.8-7.5-1.1-9.6Zm11.6-5.6l.5-.1c1-.1,1.8-.4,2.4-1,.6-.5.9-1.2.8-2-.1-.8-.5-1.4-1.1-1.7-.7-.4-1.4-.5-2.3-.4-.3,0-.6.1-.8.1,0,.4.1,1.2.2,2.3.2,1.2.3,2.1.3,2.8Zm1.1,9.2c.1,1.1.4,2.7.7,4.9l1-.1c1.1-.1,1.9-.4,2.4-.9s.6-1.1.6-1.9c-.1-.7-.4-1.3-1-1.7s-1.3-.6-2.1-.5l-1.6.2Z" fill="#ffdc23"/>
          <path d="m213,143.9c-.6-5.7-1.3-11.9-1.8-18.5,1.9-.3,6.2-.8,12.8-1.6,4.6-.5,8.2-.9,10.8-1.1.2,0,.3,0,.5.1.1.1.2.2.2.4.3,2.5.5,4.3.7,5.3.2,1.6.3,3.1.4,4.5-1.7.3-5,.7-9.8,1.2-.9.1-1.6.2-2.3.2.1,1.4.2,2.5.3,3.2,3.7-.4,6.1-.6,7.4-.7.2,0,.3,0,.5.1.1.1.2.2.2.4.2,1.7.4,3.2.6,4.6.1,1.3.3,2.6.4,4.1l-8,.9c.1.7.2,1.8.4,3.2l.7-.1c5-.6,8.7-.9,10.9-1.1.2,0,.3,0,.5.1s.2.2.2.4c.3,2.5.5,4.3.7,5.3.2,1.6.3,3.1.4,4.5-1.9.3-5.5.8-10.5,1.3-1,.1-3.2.3-6.5.6s-5.5.5-6.6.6c-.2,0-.3,0-.5-.1-.1-.1-.2-.2-.2-.4-1.1-7.3-1.9-13.2-2.4-17.4Z" fill="#ffdc23"/>
          <path d="m241,139.9c-.2-2.1-.5-4.9-.9-8.5-.4-3.6-.7-6.5-.9-8.5,2-.5,4.2-1,6.5-1.5s4.3-.8,6-1c1.5-.2,2.8-.3,3.8-.4,1-.1,2.1-.1,3.3-.1s2.2.1,3,.4c.8.2,1.6.5,2.4,1,.8.4,1.5,1,2,1.7s1,1.6,1.3,2.6c.4,1.1.7,2.3.8,3.7.3,2.2-.1,4.3-1.1,6.1s-2.4,3.3-4.4,4.5c1.4.3,2.7,1.2,3.7,2.6,2.5,3.8,4.6,8.2,6.5,13.3-1.9.4-4,.8-6.4,1.1-1.7.2-3.4.3-5,.4-.2,0-.4,0-.6-.1s-.3-.2-.4-.4c-2.7-5.8-4.8-10.6-6.3-14.2l-.8.1c.2,1.1.5,3.5.9,7,.5,3.6.8,6.2,1,8.1-1.7.3-3.5.5-5.4.7-1.7.2-3.8.4-6.3.6-.2,0-.3,0-.5-.1-.1-.1-.2-.2-.2-.4-.2-1.9-.6-5-1.1-9.2-.3-4.2-.7-7.4-.9-9.5Zm11.7-4.8l1-.1c1-.1,1.7-.4,2.3-1s.8-1.2.7-2c-.1-1-.4-1.7-.9-2.2-.5-.4-1.2-.6-2.3-.5-.5.1-1,.1-1.5.2.4,2.4.6,4.3.7,5.6Z" fill="#ffdc23"/>
          <path d="m274.7,155.3l.3-11.3c4.7.9,8.4,1.2,11.2.9,1.1-.1,1.9-.4,2.4-.9s.7-1,.7-1.6c0-.2-.1-.4-.2-.5-.1-.2-.3-.3-.5-.4l-.6-.3c-.2-.1-.5-.2-.9-.3s-.7-.1-1-.2c-.3,0-.7-.1-1.2-.2-.9-.2-1.7-.3-2.2-.4-.5-.1-1.3-.3-2.2-.6-1-.3-1.8-.6-2.4-.9-.6-.3-1.3-.8-2.1-1.4-.8-.6-1.4-1.2-1.9-2-.5-.7-.9-1.6-1.3-2.7-.4-1.1-.7-2.3-.8-3.6-.2-1.4-.2-2.7,0-3.8.1-1.1.4-2.1.7-2.9.3-.8.8-1.5,1.5-2.1s1.3-1.1,2-1.5,1.6-.7,2.7-1,2.1-.5,3-.7,2.1-.3,3.5-.5c3.4-.4,7.4-.4,12,0l-.2,10.4c-1.6-.5-3.5-.9-5.6-1.2-2.1-.3-4-.3-5.8-.1-1,.1-1.7.3-2.2.7-.5.4-.7.8-.7,1.4,0,.2.1.3.2.5.1.1.3.3.5.4.2.1.5.2.7.3s.5.2,1,.3c.4.1.8.2,1.1.2.3.1.7.1,1.3.2,2.6.5,4.6.9,5.9,1.4,3.5,1.2,5.9,3.2,7.2,5.9.5,1.1.8,2.3,1,3.6.2,1.4.2,2.6,0,3.8-.1,1.2-.4,2.2-.8,3.1-.4.9-.9,1.7-1.5,2.4s-1.4,1.3-2.1,1.8c-.8.5-1.7.9-2.7,1.3-1,.4-2.1.7-3.1.9s-2.2.4-3.4.5c-4.8.8-9.1,1-13.5,1.1Z" fill="#ffdc23"/>
        </g>
        <g isolation="isolate">
          <path d="m72.1,159.8c-.6-5.7-1.3-11.9-1.8-18.5,1.9-.3,3.6-.5,5.1-.7,1.2-.1,3-.3,5.3-.5.3,0,.5.2.7.5l8.1,15-2.1-16.3c1.9-.3,3.7-.6,5.4-.7,1.6-.2,3.5-.3,5.7-.5.2,0,.3,0,.5.1.1.1.2.2.2.4,1,7.7,1.8,13.6,2.3,17.8.6,5.7,1.3,11.9,1.8,18.5-1.7.3-3.3.5-4.8.7-1.8.2-3.6.4-5.6.5-.3,0-.6-.2-.7-.5l-8.1-15,2.1,16.3c-1.9.3-3.6.5-5.1.7-1.6.2-3.6.4-6,.5-.2,0-.3,0-.5-.1-.1-.1-.2-.2-.2-.4-1.1-7.7-1.8-13.6-2.3-17.8Z" fill="none" stroke="#003463" stroke-miterlimit="10" stroke-width="2.16"/>
          <path d="m104.8,156.4c-.7-5.9-1.3-12.1-1.9-18.7,1.9-.3,3.7-.6,5.4-.7,1.7-.2,3.8-.4,6.3-.6.2,0,.3,0,.5.1s.2.2.2.4c1,7.7,1.9,14.3,2.5,19.9.2,1.3.3,2.4.5,3.3.2.8.4,1.5.7,1.9.3.4.6.7.9.8s.7.1,1.1.1c.6-.1,1-.3,1.3-.6s.4-.9.5-1.9c.1-.9,0-2.3-.2-4.1-.8-7.1-1.5-14-2.1-20.6,1.9-.3,3.7-.6,5.4-.7,1.7-.2,3.8-.4,6.3-.6.2,0,.3,0,.5.1.1.1.2.2.2.4,1,7.7,1.8,13.7,2.3,18,.3,2.6.4,5,.2,7.1s-.5,3.9-1.1,5.4-1.4,2.8-2.4,3.9c-1,1.1-2.2,1.9-3.6,2.6-1.4.6-2.9,1.1-4.7,1.4-1.4.2-2.8.3-3.9.3-1.2,0-2.3-.1-3.4-.2-1.1-.2-2.1-.4-3-.8s-1.7-.9-2.5-1.5-1.5-1.4-2.1-2.3c-.6-.9-1.2-1.9-1.7-3.1-.5-1.2-.9-2.6-1.3-4.1-.4-1.6-.7-3.3-.9-5.2Z" fill="none" stroke="#003463" stroke-miterlimit="10" stroke-width="2.16"/>
          <path d="m138.5,152.3c-.6-5.7-1.3-11.9-1.8-18.5,1.9-.3,3.6-.5,5.1-.7,1.7-.2,3.5-.3,5.3-.5.3,0,.5.2.7.5l9.5,14.9,5.9-16.6c.2-.4.5-.6.7-.7,1.3-.2,2.7-.5,4.3-.6,1.7-.2,3.6-.4,5.7-.5.2,0,.3,0,.5.1.1.1.2.2.2.4,1,7.7,1.8,13.6,2.3,17.8.6,5.7,1.3,11.9,1.8,18.5-1.8.3-3.3.5-4.8.7-1.3.1-3.2.3-5.7.5-.2,0-.3,0-.5-.1-.1-.1-.2-.2-.2-.4-.2-1.1-.4-2.9-.7-5.1-.3-2.3-.6-4.4-.9-6.2-.3-1.9-.5-3.7-.7-5.4l-5.4,15.1-.7.2-.6-.1-8.2-12.9,2.1,16.7c-1.9.3-3.6.5-5.1.7s-3.5.3-6,.5c-.2,0-.3,0-.5-.1-.1-.1-.2-.2-.2-.4-.9-7.6-1.7-13.6-2.1-17.8Z" fill="none" stroke="#003463" stroke-miterlimit="10" stroke-width="2.16"/>
          <path d="m181.3,146.7c-.2-2.1-.5-4.9-.9-8.5s-.7-6.5-.9-8.5c4.5-1.2,8.4-2,11.9-2.4,1.4-.2,2.6-.3,3.5-.3,1-.1,2-.1,3.2,0,1.1,0,2.1.2,2.9.4.8.2,1.6.5,2.4,1s1.5,1,2,1.7,1,1.6,1.3,2.6c.4,1.1.7,2.3.8,3.7.4,3.2-.5,6-2.7,8.4,1.8.7,3.3,1.7,4.4,2.9,1.1,1.2,1.7,2.5,1.9,4,.2,1.4.2,2.6,0,3.8-.1,1.1-.4,2.1-.8,3-.4.8-.9,1.6-1.6,2.3-.7.7-1.4,1.2-2.1,1.7-.8.4-1.7.8-2.7,1.2-1,.3-2.1.6-3.1.8s-2.2.4-3.4.5c-4.4.5-8.8.8-13.2.8-.2,0-.3-.1-.5-.2-.1-.1-.2-.3-.2-.4-.2-1.9-.6-4.9-1.1-8.9-.5-4.5-.8-7.5-1.1-9.6Zm11.6-5.6l.5-.1c1-.1,1.8-.4,2.4-1,.6-.5.9-1.2.8-2-.1-.8-.5-1.4-1.1-1.7-.7-.4-1.4-.5-2.3-.4-.3,0-.6.1-.8.1,0,.4.1,1.2.2,2.3.2,1.2.3,2.1.3,2.8Zm1.1,9.2c.1,1.1.4,2.7.7,4.9l1-.1c1.1-.1,1.9-.4,2.4-.9s.6-1.1.6-1.9c-.1-.7-.4-1.3-1-1.7s-1.3-.6-2.1-.5l-1.6.2Z" fill="none" stroke="#003463" stroke-miterlimit="10" stroke-width="2.16"/>
          <path d="m213,143.9c-.6-5.7-1.3-11.9-1.8-18.5,1.9-.3,6.2-.8,12.8-1.6,4.6-.5,8.2-.9,10.8-1.1.2,0,.3,0,.5.1.1.1.2.2.2.4.3,2.5.5,4.3.7,5.3.2,1.6.3,3.1.4,4.5-1.7.3-5,.7-9.8,1.2-.9.1-1.6.2-2.3.2.1,1.4.2,2.5.3,3.2,3.7-.4,6.1-.6,7.4-.7.2,0,.3,0,.5.1.1.1.2.2.2.4.2,1.7.4,3.2.6,4.6.1,1.3.3,2.6.4,4.1l-8,.9c.1.7.2,1.8.4,3.2l.7-.1c5-.6,8.7-.9,10.9-1.1.2,0,.3,0,.5.1s.2.2.2.4c.3,2.5.5,4.3.7,5.3.2,1.6.3,3.1.4,4.5-1.9.3-5.5.8-10.5,1.3-1,.1-3.2.3-6.5.6s-5.5.5-6.6.6c-.2,0-.3,0-.5-.1-.1-.1-.2-.2-.2-.4-1.1-7.3-1.9-13.2-2.4-17.4Z" fill="none" stroke="#003463" stroke-miterlimit="10" stroke-width="2.16"/>
          <path d="m241,139.9c-.2-2.1-.5-4.9-.9-8.5-.4-3.6-.7-6.5-.9-8.5,2-.5,4.2-1,6.5-1.5s4.3-.8,6-1c1.5-.2,2.8-.3,3.8-.4,1-.1,2.1-.1,3.3-.1s2.2.1,3,.4c.8.2,1.6.5,2.4,1,.8.4,1.5,1,2,1.7s1,1.6,1.3,2.6c.4,1.1.7,2.3.8,3.7.3,2.2-.1,4.3-1.1,6.1s-2.4,3.3-4.4,4.5c1.4.3,2.7,1.2,3.7,2.6,2.5,3.8,4.6,8.2,6.5,13.3-1.9.4-4,.8-6.4,1.1-1.7.2-3.4.3-5,.4-.2,0-.4,0-.6-.1s-.3-.2-.4-.4c-2.7-5.8-4.8-10.6-6.3-14.2l-.8.1c.2,1.1.5,3.5.9,7,.5,3.6.8,6.2,1,8.1-1.7.3-3.5.5-5.4.7-1.7.2-3.8.4-6.3.6-.2,0-.3,0-.5-.1-.1-.1-.2-.2-.2-.4-.2-1.9-.6-5-1.1-9.2-.3-4.2-.7-7.4-.9-9.5Zm11.7-4.8l1-.1c1-.1,1.7-.4,2.3-1s.8-1.2.7-2c-.1-1-.4-1.7-.9-2.2-.5-.4-1.2-.6-2.3-.5-.5.1-1,.1-1.5.2.4,2.4.6,4.3.7,5.6Z" fill="none" stroke="#003463" stroke-miterlimit="10" stroke-width="2.16"/>
          <path d="m274.7,155.3l.3-11.3c4.7.9,8.4,1.2,11.2.9,1.1-.1,1.9-.4,2.4-.9s.7-1,.7-1.6c0-.2-.1-.4-.2-.5-.1-.2-.3-.3-.5-.4l-.6-.3c-.2-.1-.5-.2-.9-.3s-.7-.1-1-.2c-.3,0-.7-.1-1.2-.2-.9-.2-1.7-.3-2.2-.4-.5-.1-1.3-.3-2.2-.6-1-.3-1.8-.6-2.4-.9-.6-.3-1.3-.8-2.1-1.4-.8-.6-1.4-1.2-1.9-2-.5-.7-.9-1.6-1.3-2.7-.4-1.1-.7-2.3-.8-3.6-.2-1.4-.2-2.7,0-3.8.1-1.1.4-2.1.7-2.9.3-.8.8-1.5,1.5-2.1s1.3-1.1,2-1.5,1.6-.7,2.7-1,2.1-.5,3-.7,2.1-.3,3.5-.5c3.4-.4,7.4-.4,12,0l-.2,10.4c-1.6-.5-3.5-.9-5.6-1.2-2.1-.3-4-.3-5.8-.1-1,.1-1.7.3-2.2.7-.5.4-.7.8-.7,1.4,0,.2.1.3.2.5.1.1.3.3.5.4.2.1.5.2.7.3s.5.2,1,.3c.4.1.8.2,1.1.2.3.1.7.1,1.3.2,2.6.5,4.6.9,5.9,1.4,3.5,1.2,5.9,3.2,7.2,5.9.5,1.1.8,2.3,1,3.6.2,1.4.2,2.6,0,3.8-.1,1.2-.4,2.2-.8,3.1-.4.9-.9,1.7-1.5,2.4s-1.4,1.3-2.1,1.8c-.8.5-1.7.9-2.7,1.3-1,.4-2.1.7-3.1.9s-2.2.4-3.4.5c-4.8.8-9.1,1-13.5,1.1Z" fill="none" stroke="#003463" stroke-miterlimit="10" stroke-width="2.16"/>
        </g>
      </g>
    </g>
  </g>
</svg>