<?xml version="1.0" encoding="UTF-8"?>
<svg id="Layer_2" data-name="Layer 2" xmlns="http://www.w3.org/2000/svg" viewBox="0 0 500 500">
  <g id="Layer_1-2" data-name="Layer 1">
    <g>
      <rect width="500" height="500" fill="none"/>
      <g>
        <path d="m399.12,370.57c-.32,0-.62.07-.94.09-.86-21.59-18.58-38.84-40.38-38.84h-15.5c-22.35,0-40.46,18.12-40.46,40.46s18.11,40.46,40.46,40.46h56.81c11.65,0,21.09-9.44,21.09-21.09s-9.44-21.09-21.09-21.09Z" fill="#657576"/>
        <path d="m283.75,158.39c7.99,38.17,44.09,67.1,44.09,67.1,0,0,23.14-32.98,15.15-71.15-7.99-38.18-44.09-67.1-44.09-67.1,0,0-23.14,32.98-15.15,71.15Z" fill="#657576"/>
        <path d="m457.58,158.39c-7.99,38.17-44.09,67.1-44.09,67.1,0,0-23.14-32.98-15.15-71.15,7.99-38.18,44.09-67.1,44.09-67.1,0,0,23.14,32.98,15.15,71.15Z" fill="#657576"/>
        <path d="m399.46,311.8c0,55.74-61.86,100.96-138.19,100.96s-138.14-45.21-138.14-100.96c0-38.37,29.37-71.76,72.61-88.79,5.43-2.15,11.09-4.08,16.97-5.71,5.04-1.36,10.24-2.55,15.56-3.51,5.55-.97,11.2-1.75,16.97-2.21,5.1-.45,10.3-.68,15.56-.68h.46c5.6,0,11.09.23,16.52.73,68.52,5.94,121.67,48.56,121.67,100.17Z" fill="#758586"/>
        <path d="m231.57,366.53c-.35,0-.68.09-1.02.1-.95-23.65-20.36-42.55-44.24-42.55h-16.98c-24.49,0-44.33,19.85-44.33,44.33s19.84,44.33,44.33,44.33h62.24c12.77,0,23.11-10.34,23.11-23.11s-10.34-23.11-23.11-23.11Z" fill="#95a5a6"/>
        <path d="m360.92,370.57c-.32,0-.62.07-.94.09-.86-21.59-18.57-38.84-40.38-38.84h-15.5c-22.34,0-40.46,18.12-40.46,40.46s18.11,40.46,40.46,40.46h56.82c11.65,0,21.09-9.44,21.09-21.09s-9.44-21.09-21.09-21.09Z" fill="#95a5a6"/>
        <path d="m453.07,215.25c0,44.59-35.99,80.82-80.48,81.15h-.62c-44.82,0-81.16-36.33-81.16-81.15s36.34-81.15,81.16-81.15h.62c44.49.34,80.48,36.56,80.48,81.15Z" fill="#95a5a6"/>
        <path d="m396.48,239.64l-16.92,16.86c-2.09,2.09-4.93,3.06-7.65,2.83-2.31-.11-4.58-1.07-6.34-2.83l-16.86-16.86c-3.85-3.9-3.85-10.13,0-13.98h47.76c3.85,3.85,3.85,10.07,0,13.98Z" fill="#263536"/>
        <path d="m340.29,206.66c0,3.23-2.6,5.84-5.84,5.84s-5.84-2.61-5.84-5.84,2.61-5.85,5.84-5.85,5.84,2.62,5.84,5.85Z" fill="#1a1a1a"/>
        <path d="m422.28,206.66c0,3.23-2.61,5.84-5.84,5.84s-5.85-2.61-5.85-5.84,2.62-5.85,5.85-5.85,5.84,2.62,5.84,5.85Z" fill="#333"/>
        <path d="m162.34,290.86c-6.56,2.32-13.41,3.51-20.37,3.51-33.22,0-60.27-27.05-60.27-60.27v-84.99c0-7.25-5.94-13.19-13.19-13.19s-13.24,5.94-13.24,13.19c0,12.5-10.13,22.63-22.64,22.63s-22.64-10.13-22.64-22.63c0-21.34,11.55-40.07,28.69-50.25,5.21-3.12,10.92-5.44,16.98-6.74,4.13-.96,8.43-1.47,12.84-1.47.91,0,1.81,0,2.72.05,5.94.28,11.65,1.41,16.97,3.4,22.58,8.09,38.77,29.71,38.77,55v84.99c0,8.26,6.74,15,15,15,1.75,0,3.45-.28,5.09-.85,11.77-4.24,24.74,1.87,28.92,13.64,4.24,11.77-1.87,24.73-13.64,28.97Z" fill="#556566"/>
        <path d="m212.71,217.3v60.1c0,4.7-3.79,8.49-8.49,8.49s-8.48-3.79-8.48-8.49v-54.38c5.43-2.15,11.09-4.08,16.97-5.71Z" fill="#556566"/>
        <path d="m55.67,92.11v25.41c0,4.7-3.79,8.48-8.49,8.48s-8.49-3.79-8.49-8.48v-18.67c5.21-3.12,10.92-5.44,16.98-6.74Z" fill="#758586"/>
        <path d="m88.21,94.1v23.43c0,4.7-3.79,8.48-8.49,8.48s-8.48-3.79-8.48-8.48v-26.82c5.94.28,11.65,1.41,16.97,3.4Z" fill="#758586"/>
        <path d="m245.25,211.58v65.82c0,4.7-3.79,8.49-8.48,8.49s-8.49-3.79-8.49-8.49v-63.6c5.55-.97,11.2-1.75,16.97-2.21Z" fill="#556566"/>
        <path d="m126.98,165.96v16.98h-21.45c-4.7,0-8.49-3.79-8.49-8.49s3.79-8.49,8.49-8.49h21.45Z" fill="#758586"/>
        <path d="m126.98,198.51v16.97h-21.45c-4.7,0-8.49-3.79-8.49-8.49s3.79-8.48,8.49-8.48h21.45Z" fill="#758586"/>
        <path d="m277.79,211.63v65.76c0,4.7-3.79,8.49-8.49,8.49s-8.49-3.79-8.49-8.49v-66.49h.46c5.6,0,11.09.23,16.52.73Z" fill="#556566"/>
        <path d="m490,248.39c0,1.17-.95,2.12-2.12,2.12h-77.81c-1.18,0-2.13-.95-2.13-2.12h0c0-1.18.95-2.12,2.13-2.12h77.81c1.17,0,2.12.95,2.12,2.12h0Z" fill="#455556"/>
        <path d="m488.77,215.76c.28,1.14-.41,2.29-1.54,2.57l-75.47,18.96c-1.14.29-2.29-.4-2.57-1.54h0c-.29-1.14.4-2.29,1.54-2.58l75.47-18.96c1.13-.29,2.29.4,2.57,1.54h0Z" fill="#455556"/>
        <path d="m255.15,248.39c0,1.17.95,2.12,2.12,2.12h77.81c1.17,0,2.12-.95,2.12-2.12h0c0-1.18-.95-2.12-2.12-2.12h-77.81c-1.17,0-2.12.95-2.12,2.12h0Z" fill="#455556"/>
        <path d="m256.39,215.76c-.28,1.14.41,2.29,1.54,2.57l75.47,18.96c1.13.29,2.29-.4,2.57-1.54h0c.28-1.14-.41-2.29-1.54-2.58l-75.47-18.96c-1.13-.29-2.29.4-2.57,1.54h0Z" fill="#455556"/>
      </g>
    </g>
  </g>
</svg>