<?xml version="1.0" encoding="UTF-8"?>
<svg id="Layer_2" data-name="Layer 2" xmlns="http://www.w3.org/2000/svg" viewBox="0 0 500 500">
  <g id="Layer_1-2" data-name="Layer 1">
    <g>
      <rect width="500" height="500" fill="none"/>
      <g>
        <path d="m210.65,387.09c-6.63,6.77-7.65,17.03-9.06,26.4-1.4,9.36-4.36,19.78-12.74,24.19-7.16,3.77-15.89,1.86-23.88,3.18-15.22,2.51-26.75,14.91-24.13,30.12.59,3.38,2.19,7.09,5.47,8.12,4.78,1.49,9.1-3.84,9.88-8.79.79-4.95-.26-6.42,1.63-11.06,1.89-4.65,9.01-7.5,11.76-3.31-6.95,5.01-9.56,15.02-6.48,22.92.71,1.84,2.52,2.75,4.47,3.02,10.15,1.42,5.12-12.42,8.68-17.36,3.55-4.93,9.98-7.62,15.98-6.69-4.66,4.11-9.63,8.81-10.29,14.98-.65,6.18,6.18,12.89,11.48,9.65,5.35-3.27,3.12-11.49,5.18-17.42,2.39-6.88,12.16-9.84,17.96-5.43l-2.59,19.34c3.89,2.87,9.76,1.63,13.22-1.76,3.46-3.39,4.9-8.34,5.43-13.16.75-6.79-.14-13.93-3.63-19.8-3.49-5.87-9.86-10.24-16.69-10.26,11.64-13.54,15.63-33.22,10.3-50.24-4.77-.37-5.12-.39-9.89-.76l-2.06,4.12Z" fill="#d5b38c"/>
        <path d="m291.97,386.18c-4.98,8.05-3.73,18.29-3.04,27.74.69,9.45.08,20.26-7.12,26.4-6.16,5.25-15.09,5.31-22.6,8.35-14.3,5.8-21.98,20.33-16.08,34.59,1.31,3.18,3.69,6.45,7.12,6.72,4.99.4,8.04-5.74,7.71-10.74-.32-5.01-2.5-6.12-1.68-11.06.82-4.95,7.14-9.29,10.74-5.81-3.82,4.31-6.12,10.62-4.3,16.07,3.3,9.88,8.65,10.36,12.04,9.44,2.56-.7,4.05-3.54,3.2-6.05-1.28-3.83-4.15-8.82-2.56-12.55,2.38-5.59,8.06-9.62,14.12-10.04-3.64,5.03-7.46,10.71-6.75,16.87.71,6.17,8.86,11.22,13.31,6.9,4.5-4.37.53-11.91,1.23-18.14.82-7.24,9.7-12.27,16.33-9.25l1.72,19.44c4.43,1.95,9.88-.56,12.51-4.62,2.63-4.06,2.95-9.21,2.41-14.02-.76-6.79-3.19-13.56-7.89-18.52-4.7-4.96-11.87-7.83-18.54-6.34,8.4-15.81,7.96-35.95-1.06-51.4-4.67.75-5.08.81-9.75,1.56l-1.1,4.48Z" fill="#d5b38c"/>
        <path d="m417.72,234.95c18.97-7.18,15.89-22.04,15.89-22.04-2.56-45.11-28.19-22.04-28.19-22.04,8.2-31.27-16.4-29.22-16.4-29.22-12.68,48.66-65.45,64.19-125.11,56.6-40.29-1.72-49.94-1.72-91.34,14.22-38.91,14.99-55.22,21.79-67.89,64.54,4.98,40.12,40.49,127.16,162.35,101.95,133.78-27.68,117.63-87.65,117.63-87.65,11.53-3.07,14.61-3.07,26.91-16.14,12.3-13.07-5.76-22.3-5.76-22.3,14.99-1.15,20.75-9.61,20.75-9.61,23.07-33.45-8.84-28.32-8.84-28.32Z" fill="#d5dee6"/>
        <path d="m254.17,205.55c-22.21-11.16-33.56-32.91-41.03-55.84-4.23,3.93-8.37,7.78-9.01,8.32-12.65,10.59-29.31,20.73-45.72,24.02-22.54,4.53-43.31,3.98-62.62-4.25-1.32.2-2.67.26-4.02.32,8.16,28.83,5.13,66.04-5.7,110.89-2.7,11.2,7.55,21.57,19.03,22.54,11.48.97,21.58-7.54,22.54-19.03.06-.71-.02-1.4-.03-2.1.72-.06,1.43-.15,2.15-.23,2.67,7.45,9.44,13.07,17.84,13.78,11.48.97,21.57-7.54,22.54-19.03.15-1.77,0-3.48-.27-5.16.7-.25,1.41-.47,2.11-.73,3.18,6.16,9.32,10.63,16.74,11.26,11.47.97,21.57-7.55,22.54-19.03.34-4-.53-7.79-2.21-11.12.03-.02.07-.04.1-.07,3.44,4.67,8.73,7.94,14.97,8.47,11.47.97,21.57-7.54,22.54-19.03.39-4.6-.8-8.95-3.04-12.61,2.25,1.43,4.82,2.41,7.66,2.65,9.4.8,17.68-6.18,18.47-15.59.8-9.4-7.15-14.24-15.59-18.47Z" fill="#abbdcd"/>
        <g>
          <path d="m209.17,104.88c-1.45-74.72-64.53-54.34-64.53-54.34,0,0-63.08-20.38-64.54,54.34,0,0-1.45,27.82-15.04,51.76,0,0,19.41,46.58,79.58,46.58s79.57-46.58,79.57-46.58c-13.58-23.94-15.04-51.76-15.04-51.76Z" fill="#d5dee6"/>
          <path d="m208.2,104.88c-1.38-71.04-58.43-56.13-64.04-54.49-5.62-1.64-62.66-16.55-64.05,54.49,0,0-1.32,24.95-13,47.92,4.26-2.56,41.37-14.84,77.05-15.97,35.68,1.13,72.79,13.41,77.05,15.97-11.68-22.97-13.01-47.92-13.01-47.92Z" fill="#abbdcd"/>
          <path d="m161.04,58.3c-9.87-12.48-9.18-34.36-9.28-41.41-.16-11.45-7.11-5.17-7.11-5.17,0,0-6.96-6.28-7.12,5.17-.1,7.05.59,28.92-9.29,41.41-17.16,21.7,3.06,41.58,16.4,54.35,13.34-12.77,33.56-32.64,16.4-54.35Z" fill="#f3753c"/>
          <path d="m193.16,104.88c0,4.29-3.47,7.77-7.76,7.77s-7.77-3.47-7.77-7.77,3.48-7.76,7.77-7.76,7.76,3.47,7.76,7.76Z" fill="#222"/>
          <path d="m111.64,104.88c0,4.29-3.47,7.77-7.76,7.77s-7.77-3.47-7.77-7.77,3.48-7.76,7.77-7.76,7.76,3.47,7.76,7.76Z" fill="#222"/>
          <path d="m163.57,119.43s5.82-26.2-18.92-14.55c-24.75-11.64-18.92,14.55-18.92,14.55-13.59,2.43-21.83,15.05-21.83,15.05,20.38,3.4,40.76,25.23,40.76,25.23,0,0,20.38-21.83,40.76-25.23,0,0-8.25-12.62-21.83-15.05Z" fill="#c9a672"/>
          <path d="m163.57,119.43s5.82-26.2-18.92-14.55c-24.75-11.64-18.92,14.55-18.92,14.55-7.51,1.34-18.08,11.33-21.83,15.05,19.85.8,36.18,8.51,39.46,23.9.82.82,1.3,1.33,1.3,1.33,0,0,.49-.52,1.3-1.33,3.27-15.39,19.61-23.1,39.46-23.9-3.76-3.72-14.33-13.7-21.83-15.05Z" fill="#f9cda0"/>
          <path d="m108.25,139.81s-29.11,31.54-7.28,32.03c21.83.49,12.14,6.79,22.81,9.22,10.68,2.42,5.53-30.78,1.93-37.13-3.61-6.34-14.37-7.69-17.45-4.12Z" fill="#f3753c"/>
          <path d="m177.76,139.81s29.11,31.54,7.28,32.03c-21.83.49-12.13,6.79-22.81,9.22-10.67,2.42-5.53-30.78-1.93-37.13,3.61-6.34,14.37-7.69,17.45-4.12Z" fill="#f3753c"/>
        </g>
      </g>
    </g>
  </g>
</svg>