<?xml version="1.0" encoding="UTF-8"?>
<svg id="Layer_2" data-name="Layer 2" xmlns="http://www.w3.org/2000/svg" viewBox="0 0 500 500">
  <g id="Layer_1-2" data-name="Layer 1">
    <g>
      <rect width="500" height="500" fill="none"/>
      <g>
        <path d="m295.25,301.51c-6.9,8.95-13.94,18.18-17.13,29.03-3.18,10.85-1.67,23.84,6.66,31.49,7.32,6.71,18.66,8.4,24.64,16.33,6.51,8.63,6.6,21.62,3.79,32.05-5.57,20.7-19.3,61.27-19.3,61.27,6.48.97,12.96,1.95,19.44,2.92,10.7-25.26,21.42-50.58,29.3-76.86,6.16-20.54,10.51-42.8,3.9-63.19-6.61-20.4-27.55-37.51-48.5-32.96l-2.81-.09Z" fill="#42718f"/>
        <path d="m137.92,285.18c-13.96,27.92,1.95,53.85,5.1,84.9,1.12,11.09,2.22,23.74.91,36.43-1.81,17.55-10.71,47.6-18.89,62.04,6.16.42,12.32.84,18.48,1.26,15.92-43.15,28.6-87.49,37.89-132.54,2.5-12.14,4.73-24.94.87-36.71-3.85-11.77-15.89-21.81-27.97-19.05l-16.39,3.68Z" fill="#42718f"/>
        <path d="m393.7,275.04c-9.27-2.69-24.23-2.77-24.23-2.77-4.27-8.28-11.21-15.45-19.32-20.11-15.48-8.88-34.19-10.17-51.98-8.83-17.79,1.35-35.39,5.11-53.23,5.5-11.38.25-23.71-1.28-32.06-9.02-15.19-14.09-9.16-39.08-14.94-58.97-5.81-19.96-25.65-34.93-46.43-35.04l-3.06-.79c-5.48,32.19-10.96,64.37-16.43,96.56-2.97,17.44-11.61,37.25-9.33,54.78,7.68,59.01,52.52,56.3,88.74,60.26,36.23,3.96,72.23-7,107.03-17.83,11.6-3.61,23.36-7.3,33.59-13.85,11.01-7.05,26.5-27.78,21.07-42.48,5.48-.67,12-.41,14.88.17,10.66,2.14,20.28,10.36,20.85,21.22.47,8.96-5.22,18.91-10.08,26.46-4.87,7.54-9.22,15.06-5.24,23.11,5.33-9.58,10.66-19.15,15.99-28.72,4.09-7.33,8.29-15.16,7.91-23.54-.57-12.54-11.67-22.6-23.72-26.1Z" fill="#6a8ba7"/>
        <path d="m380.1,360.39c.2-10.36,8.19-20.07,18.32-22.26,10.99,14.91,8.6,38.03-5.21,50.37-6.49-8.32-13.31-17.55-13.11-28.11Z" fill="gray"/>
        <path d="m362.7,346.62c-1.24-15.29,10.8-17.31,14.54-40.57,2.86-17.78-5.37-29.37-5.37-29.37-7.77-3.43-26.84,4.12-35.26,5.33-14.1,2.03-28.28,8.21-36.57,19.8-8.29,11.58-8.92,29.17,1.09,39.31,9.14,9.25,24.93,11.1,31.38,22.39,4.23,7.4,11.13,23.56,9.79,31.98-4.93,30.85-22.67,84.18-22.67,84.18,7.08-.28,14.17-.55,21.25-.83,8.81-26.04,17.63-52.08,26.43-78.12,3.37-9.95,6.78-20.63,4.06-30.78-2.15-8.06-8-15.01-8.68-23.32Z" fill="#6a8ba7"/>
        <path d="m163.07,294.12c-12.04,6.62-14.67,23.19-11.51,36.57,3.16,13.37,10.55,25.48,13.48,38.9,3.12,14.27,1.03,29.1-1.07,43.56-3.03,20.87-6.15,42.04-14.7,61.32,6.18-.05,12.36-.1,18.55-.15,18.24-59.62,36.48-119.25,54.72-178.87-20.44-2.67-40.88-5.35-61.31-8.03l1.84,6.7Z" fill="#6a8ba7"/>
        <path d="m144.13,490c.55-8.29,1.09-16.58,1.64-24.87-8.01-2.43-17.19-.52-23.56,4.91-5.72,4.88-8.97,12.46-8.74,19.96h30.66Z" fill="#373737"/>
        <path d="m172.39,490l1.64-24.87c-8-2.43-17.19-.52-23.55,4.91-5.72,4.88-8.97,12.46-8.75,19.96h30.66Z" fill="#373737"/>
        <path d="m315.09,490c.52-7.88,1.04-15.77,1.56-23.66-8-2.42-17.19-.51-23.55,4.91-5.41,4.62-8.61,11.65-8.75,18.75h30.74Z" fill="#373737"/>
        <path d="m344.81,490c.52-7.88,1.04-15.77,1.56-23.66-8.01-2.42-17.19-.51-23.56,4.91-5.41,4.62-8.61,11.65-8.75,18.75h30.75Z" fill="#373737"/>
        <g>
          <path d="m176.51,96.34s-6.54-75.87,73.26-86.34c0,0,6.54,67.37-44.48,98.11l-28.78-11.77Z" fill="#fbccd3"/>
          <path d="m178.77,97.27C208.78,30.5,249.76,10,249.76,10c-79.8,10.47-73.26,86.34-73.26,86.34l2.27.93Z" fill="#6a8ba7"/>
          <path d="m156.09,96.34s6.54-75.87-73.26-86.34c0,0-6.54,67.37,44.47,98.11l28.78-11.77Z" fill="#fbccd3"/>
          <path d="m153.82,97.27C123.82,30.5,82.83,10,82.83,10c79.8,10.47,73.26,86.34,73.26,86.34l-2.27.93Z" fill="#6a8ba7"/>
          <path d="m165.6,84.13c-19.45,0-60.69,4.33-52.55,41.64,8.14,37.31,0,70.64,0,70.64l5.5-2.85c29.5-15.3,64.6-15.3,94.1,0l5.5,2.85s-8.14-33.33,0-70.64c8.14-37.31-33.1-41.64-52.55-41.64Z" fill="#6a8ba7"/>
          <path d="m193.94,132.97c0,4.09-3.32,7.41-7.41,7.41s-7.42-3.32-7.42-7.41,3.32-7.42,7.42-7.42,7.41,3.32,7.41,7.42Z"/>
          <path d="m150.43,132.97c0,4.09-3.32,7.41-7.42,7.41s-7.41-3.32-7.41-7.41,3.32-7.42,7.41-7.42,7.42,3.32,7.42,7.42Z"/>
          <path d="m224.82,216.37c0,27.82-27.14,50.37-60.61,50.37s-60.62-22.55-60.62-50.37,27.14-50.36,60.62-50.36,60.61,22.55,60.61,50.36Z" fill="#fbddd3"/>
          <path d="m165.6,248.48h-.72c-22.76-.35-27.58-17.1-27.62-17.27l3.27-.89c.17.6,4.33,14.61,24.72,14.78,20.38-.16,24.54-14.18,24.71-14.78l3.27.89c-.05.17-4.87,16.93-27.62,17.27h0Z" fill="#333"/>
          <path d="m176.95,210.16s-2.01-21.52,8.44-21.52,6.37,21.52,6.37,21.52h-14.81Z" fill="#9f8181"/>
          <path d="m152.42,210.16s2.01-21.52-8.44-21.52-6.37,21.52-6.37,21.52h14.81Z" fill="#9f8181"/>
        </g>
      </g>
    </g>
  </g>
</svg>