<?xml version="1.0" encoding="UTF-8"?>
<svg id="Layer_2" data-name="Layer 2" xmlns="http://www.w3.org/2000/svg" viewBox="0 0 500 500">
  <g id="Layer_1-2" data-name="Layer 1">
    <g>
      <rect width="500" height="500" fill="none"/>
      <g>
        <path d="m137.75,172.38c-.07,57.51,52.79,104.34,118.28,104.67,65.48.32,118.82-45.98,119.31-103.48l-237.58-1.19Z" fill="#a5b5b6"/>
        <rect x="275.44" y="346.82" width="13.72" height="132.09" fill="#d5e5e6"/>
        <path d="m373.23,470.41c0,5.21-4.23,9.43-9.44,9.43h-87.09c-5.21,0-9.44-4.23-9.44-9.43h0c0-5.21,4.23-9.43,9.44-9.43h87.09c5.21,0,9.44,4.22,9.44,9.43h0Z" fill="#ef893a"/>
        <rect x="244.57" y="346.82" width="13.72" height="132.09" fill="#d5e5e6"/>
        <path d="m347.1,480.57c0,5.21-4.23,9.43-9.44,9.43h-87.1c-5.21,0-9.43-4.22-9.43-9.43h0c0-5.21,4.23-9.43,9.43-9.43h87.1c5.21,0,9.44,4.23,9.44,9.43h0Z" fill="#f3aa43"/>
        <path d="m307.18,484c0,3.25-2.63,5.88-5.88,5.88h-54.29c-3.25,0-5.88-2.63-5.88-5.88h0c0-3.25,2.63-5.89,5.88-5.89h54.29c3.25,0,5.88,2.64,5.88,5.89h0Z" fill="#f8be49"/>
        <path d="m294.19,343.39c68.15-.3,143.07-72.46,143.07-164.99s.2-150.38-67.95-150.68l-44.6,164.7-30.53,150.97Z" fill="#c5d5d6"/>
        <path d="m62.73,187.85c.34,96.06,84.04,173.84,187.26,173.84s186.94-77.77,187.27-173.84H62.73Z" fill="#c5d5d6"/>
        <path d="m110.88,195.83c-.07,57.51,52.79,104.34,118.28,104.68,65.48.32,118.82-45.98,119.31-103.49l-237.58-1.19Z" fill="#d5e5e6"/>
        <circle cx="374.99" cy="71.76" r="61.76" transform="translate(59.09 286.17) rotate(-45)" fill="#d5e5e6"/>
        <path d="m395.08,67.43c0-9.58-9-17.36-20.1-17.36s-20.09,7.78-20.09,17.36c0,0-12.42,61.13-12.42,70.08v14.52c0,15.52,14.56,28.1,32.52,28.1s32.52-12.57,32.52-28.1v-14.52c0-8.96-12.42-70.08-12.42-70.08Z" fill="#f7b23f"/>
        <path d="m353.28,51.84c0,4.21-3.41,7.63-7.63,7.63s-7.63-3.43-7.63-7.63,3.41-7.62,7.63-7.62,7.63,3.41,7.63,7.62Z" fill="#6c7a88"/>
        <path d="m412.23,51.84c0,4.21-3.41,7.63-7.62,7.63s-7.63-3.43-7.63-7.63,3.42-7.62,7.63-7.62,7.62,3.41,7.62,7.62Z" fill="#6c7a88"/>
        <path d="m365.08,131.89c0,4.45-1.15,8.05-2.56,8.05s-2.55-3.6-2.55-8.05,1.14-8.03,2.55-8.03,2.56,3.6,2.56,8.03Z" fill="#5d2c10"/>
        <path d="m389.19,131.89c0,4.45-1.14,8.05-2.55,8.05s-2.56-3.6-2.56-8.05,1.14-8.03,2.56-8.03,2.55,3.6,2.55,8.03Z" fill="#5d2c10"/>
      </g>
    </g>
  </g>
</svg>