<?xml version="1.0" encoding="UTF-8"?>
<svg id="Layer_2" data-name="Layer 2" xmlns="http://www.w3.org/2000/svg" viewBox="0 0 500 500">
  <g id="Layer_1-2" data-name="Layer 1">
    <g>
      <rect width="500" height="500" fill="none"/>
      <g>
        <path d="m177.05,279.97c-13.11-13.1-31.17-21.16-51.11-21.16-1.68,0-3.31.05-4.95.2-.25-.05-.51-.1-.76-.1-.66-.05-1.27-.1-1.94-.1-3.11,0-6.03.66-8.68,1.89-7.44,3.31-12.6,10.76-12.6,19.39v144.5c0,5.87,2.4,11.17,6.22,15.04,3.88,3.83,9.18,6.23,15.05,6.23,11.73,0,21.27-9.55,21.27-21.27v-33.32c6.53-28.61,29.07-51.16,57.69-57.63h.97v-2.55c0-19.94-8.11-38.06-21.16-51.11Z" fill="#a5b5b6"/>
        <g>
          <path d="m183.11,333.32c0,25.9-21,46.89-46.91,46.89h-25.2c-25.9,0-46.91-20.99-46.91-46.89h0c0-25.9,21-46.91,46.91-46.91h25.2c25.9,0,46.91,21,46.91,46.91h0Z" fill="#feccbd"/>
          <path d="m111.41,388.67c0,3.11-2.52,5.62-5.63,5.62h0c-3.11,0-5.63-2.51-5.63-5.62v-22.52c0-3.12,2.52-5.63,5.63-5.63h0c3.1,0,5.63,2.51,5.63,5.63v22.52Z" fill="#fd8c7f"/>
          <path d="m146.12,388.67c0,3.11-2.52,5.62-5.63,5.62h0c-3.1,0-5.63-2.51-5.63-5.62v-22.52c0-3.12,2.52-5.63,5.63-5.63h0c3.1,0,5.63,2.51,5.63,5.63v22.52Z" fill="#fd8c7f"/>
        </g>
        <path d="m339.42,279.97c-13.1-13.1-31.17-21.16-51.11-21.16-1.68,0-3.32.05-4.95.2-.26-.05-.51-.1-.77-.1-.66-.05-1.27-.1-1.94-.1-3.11,0-6.02.66-8.67,1.89-7.45,3.31-12.6,10.76-12.6,19.39v144.5c0,5.87,2.4,11.17,6.23,15.04,3.88,3.83,9.18,6.23,15.05,6.23,11.73,0,21.27-9.55,21.27-21.27v-33.32c6.53-28.61,29.07-51.16,57.68-57.63h.98v-2.55c0-19.94-8.12-38.06-21.18-51.11Z" fill="#a5b5b6"/>
        <path d="m373.33,424.6c0,11.73-9.52,21.25-21.25,21.25h0c-11.74,0-21.26-9.52-21.26-21.25v-144.53c0-11.73,9.52-21.25,21.26-21.25h0c11.74,0,21.25,9.52,21.25,21.25v144.53Z" fill="#d5e5e6"/>
        <path d="m386.76,151.55c-19.29-14.53-49.23-7.31-66.85,16.12,0,0-18.76,40.56-66.61,40.56H63.86c-14.08,0-25.51,11.43-25.51,25.5v74.39c0,.15.02.27.02.42v116.05c0,11.73,9.52,21.25,21.26,21.25s21.25-9.52,21.25-21.25v-32.91c6.38-28.8,28.96-51.56,57.7-58.05h130.78c1.89.43,5.07.36,9.03,0h69.43c14.08,0,25.5-11.43,25.5-25.51v-65.92l16.52-21.96c17.6-23.43,16.23-54.19-3.09-68.7Z" fill="#d5e5e6"/>
        <path d="m17.24,218.45c11.7,17.43,36.63,21.18,36.63,21.18,0,0,5.98-24.5-5.72-41.92-11.68-17.43-36.62-21.18-36.62-21.18,0,0-5.99,24.5,5.71,41.92Z" fill="#d5e5e6"/>
        <g>
          <path d="m371.53,312.69h0c-9.59,0-17.37-119.84-17.37-119.84,0-30.21,7.78-54.72,17.37-54.72h0c9.61,0,17.38,24.51,17.38,54.72,0,0-7.77,119.84-17.38,119.84Z" fill="#a5b5b6"/>
          <path d="m289.63,130.51c-25.8-14.71-37.08-43.58-37.08-43.58,0,0,30.59-5.02,56.4,9.69,25.81,14.71,37.08,43.58,37.08,43.58,0,0-30.57,5.01-56.4-9.69Z" fill="#a5b5b6"/>
          <path d="m452.91,134.92c25.8-14.71,37.09-43.57,37.09-43.57,0,0-30.59-5.02-56.41,9.7-25.82,14.71-37.07,43.57-37.07,43.57,0,0,30.57,5.01,56.39-9.7Z" fill="#a5b5b6"/>
          <path d="m371.53,271.4h0c-30.21,0-54.72-119.82-54.72-119.82,0-30.21,24.51-54.72,54.72-54.72h0c30.23,0,54.73,24.51,54.73,54.72,0,0-24.51,119.82-54.73,119.82Z" fill="#c5d5d6"/>
          <path d="m353.8,192.22c0,2.83-2.29,5.13-5.13,5.13s-5.11-2.3-5.11-5.13,2.28-5.13,5.11-5.13,5.13,2.3,5.13,5.13Z" fill="#455556"/>
          <path d="m382.09,240.8c-.06,5.57-4.85,12.6-10.64,12.57-5.85,0-10.51-7.04-10.46-12.6.02-1.18.25-2.33.66-3.39,1.46,3.8,5.27,6.5,9.8,6.52,4.57,0,8.51-2.78,9.99-6.67.43,1.11.65,2.32.65,3.58Z" fill="#a5b5b6"/>
          <path d="m390.49,191.45c0,2.84,2.3,5.13,5.13,5.13s5.13-2.29,5.13-5.13-2.31-5.12-5.13-5.12-5.13,2.29-5.13,5.12Z" fill="#455556"/>
          <g>
            <path d="m350.41,124.63c-3.13,0-8.49-2.53-8.49-5.66l2.83-69.37c0-3.12,2.54-8.49,5.66-8.49s5.65,5.37,5.65,8.49l2.84,69.37c0,3.14-5.37,5.66-8.49,5.66Z" fill="#fce2aa"/>
            <path d="m392.67,124.63c-3.12,0-8.49-2.53-8.49-5.66l2.82-69.37c0-3.12,2.55-8.49,5.66-8.49s5.66,5.37,5.66,8.49l2.84,69.37c0,3.14-5.36,5.66-8.5,5.66Z" fill="#fce2aa"/>
          </g>
        </g>
        <path d="m38.26,423.5v27.76c0,4.23,3.43,7.64,7.64,7.64h33.02c4.22,0,7.65-3.42,7.65-7.64l-5.63-27.76h-42.68Z" fill="#a5b5b6"/>
        <path d="m330.95,423.5v27.76c0,4.23,3.42,7.64,7.64,7.64h33.02c4.23,0,7.64-3.42,7.64-7.64l-5.63-27.76h-42.68Z" fill="#a5b5b6"/>
        <path d="m97.01,412.24v27.76c0,4.23,3.42,7.64,7.64,7.64h33.02c4.22,0,7.64-3.42,7.64-7.64l-5.63-27.76h-42.68Z" fill="#758586"/>
        <path d="m259.18,412.24v27.76c0,4.23,3.42,7.64,7.64,7.64h33.02c4.22,0,7.64-3.42,7.64-7.64l-5.62-27.76h-42.68Z" fill="#758586"/>
      </g>
    </g>
  </g>
</svg>