<?xml version="1.0" encoding="UTF-8"?>
<svg id="Layer_2" data-name="Layer 2" xmlns="http://www.w3.org/2000/svg" viewBox="0 0 500 500">
  <g id="Layer_1-2" data-name="Layer 1">
    <g>
      <rect width="500" height="500" fill="none"/>
      <g>
        <path d="m227.63,358.42s-7.63,39.24-41.36,51.55c-21.13,7.7,10.18,47.73,10.18,50.27s29.95,20.3-1.27,22.97c-41.47,3.55-22.45-11.38-22.27-20.42.14-7.05-20.96-33.85-19.05-63.12,1.91-29.27-7.67-60.66,19.69-55.4,27.36,5.25,62.62-.95,54.09,14.16Z" fill="#dbaa79"/>
        <path d="m164,374.33l107.75,11.45v-62.42s-95.03-37.48-104.57-11.39c-9.54,26.09-22.83,52.8-3.18,62.36Z" fill="#e8b585"/>
        <path d="m251.81,266.57c-3.39.42-181.57-17.39-145.09,91.21,36.48,108.6,22.06,106.91,22.06,106.91,0,0-15.06,19.73,21.85,18.45,36.91-1.27,7-19.09,7-19.09,0,0-28.64-68.73,15.91-77,44.54-8.27,8.6-35.07,8.6-35.07,0,0,25.55,10.11,57.36.57,0,0-3.48,13.13,15.48,44.05,14.83,24.18,9.54,64.27,7.63,70-1.91,5.73-14.63,16.61,12.73,16.61s28.64-6.42,19.73-17.24c-8.91-10.82-14.29-114.54,14.17-112,28.46,2.55,58.37-19.09,32.28,112,0,0-13.69,17.3,10.02,17.24,23.71-.06,29.91-1.97,20.76-17.88-9.14-15.91,7.04-62.44,16.31-78.91,14.17-25.15,48.37-90.57-16.31-119.85-39.78-18.01-120.51,0-120.51,0Z" fill="#f9cda0"/>
        <path d="m10,197.15s15.27,11.24,7,41.15c-8.27,29.91,30.12,15.12,40.94,22.06,0,0,21.43-35.19-11.67-47.51-33.09-12.32-36.27-15.7-36.27-15.7Z" fill="#dbaa79"/>
        <path d="m53.05,249.65c-3.09,1.38-4.72,4.94-3.46,8.08,3.24,8.06,4.94,25.92-19.23,55.93-26.3,32.67,38.83,57.22,83.58,37.33l-2.32-13.22s-68.96,17.89-66.83-14.78c1.43-22,34.16-43.51,16.45-71.04-1.71-2.66-5.17-3.64-8.06-2.36l-.12.05Z" fill="#f9cda0"/>
        <g>
          <path d="m483.79,108.48c-34.32-148.63-165.71-72.97-165.71-72.97,0,0-131.38-75.66-165.71,72.97-29.34,127.03,52.73,161.05,89.2,171.73,36.47,10.67,76.51,34.54,76.51,64.86,0-30.33,40.03-54.19,76.5-64.86,36.47-10.67,118.54-44.7,89.2-171.73Z" fill="#f3753c"/>
          <path d="m343.22,88.73s22.69-54.71,63.39-34.03c40.7,20.68,8.23,84.51-5.12,91.63,0,0-48.66-46.25-58.27-57.6Z" fill="#e2bd91"/>
          <path d="m361.71,96.61s12.6-30.4,35.22-18.91c22.62,11.49,4.57,46.96-2.84,50.91,0,0-27.03-25.7-32.38-32.01Z" fill="#bf9073"/>
          <path d="m294.19,88.73s-22.68-54.71-63.38-34.03c-40.7,20.68-8.23,84.51,5.12,91.63,0,0,48.66-46.25,58.27-57.6Z" fill="#e2bd91"/>
          <path d="m275.71,96.61s-12.6-30.4-35.22-18.91c-22.61,11.49-4.57,46.96,2.84,50.91,0,0,27.04-25.7,32.38-32.01Z" fill="#bf9073"/>
          <path d="m371.68,106.74c-24.02-34.03-53.6-31.36-53.6-31.36,0,0-29.58-2.67-53.6,31.36-24.02,34.03-56.46,31.9-49.37,85.4,6.89,52.04,87.18,75.17,102.97,75.17s96.07-23.13,102.97-75.17c7.09-53.5-25.35-51.37-49.37-85.4Z" fill="#f9cda0"/>
          <path d="m298.71,139.74c0,5.9-4.78,10.67-10.67,10.67s-10.68-4.78-10.68-10.67,4.78-10.68,10.68-10.68,10.67,4.78,10.67,10.68Z" fill="#222"/>
          <path d="m359.41,139.74c0,5.9-4.78,10.67-10.68,10.67s-10.67-4.78-10.67-10.67,4.78-10.68,10.67-10.68,10.68,4.78,10.68,10.68Z" fill="#222"/>
          <path d="m366.91,252.29c1.77-5.34,2.77-11.04,2.77-17,0-29.23-23.1-52.93-51.6-52.93s-51.6,23.7-51.6,52.93c0,5.96,1,11.66,2.77,17,20.97,10.19,41.62,15.03,48.83,15.03s27.86-4.84,48.83-15.03Z" fill="#fce1c6"/>
          <g>
            <path d="m299.68,230.54c-10.77,0-21.4-8.29-21.95-8.72l3.31-4.19c.15.11,14.3,11.09,24,6.43,6.66-3.2,10.24-13.62,10.37-30.16l5.34.04c-.15,18.99-4.66,30.74-13.41,34.93-2.46,1.18-5.07,1.66-7.66,1.66Z" fill="#4d4d4d"/>
            <path d="m337.11,230.54c-2.6,0-5.19-.48-7.66-1.66-8.75-4.19-13.26-15.95-13.41-34.93l5.34-.04c.13,16.54,3.72,26.97,10.38,30.16,8.1,3.89,20.07-3.33,23.99-6.43l3.31,4.18c-.55.44-11.18,8.72-21.95,8.72Z" fill="#4d4d4d"/>
          </g>
          <path d="m345.37,174.11c0,9.94-15.43,24.26-27.29,24.26-13.19,0-27.29-14.32-27.29-24.26s12.22-18,27.29-18,27.29,8.06,27.29,18Z" fill="#222"/>
        </g>
      </g>
    </g>
  </g>
</svg>