<?xml version="1.0" encoding="UTF-8"?>
<svg id="Layer_2" data-name="Layer 2" xmlns="http://www.w3.org/2000/svg" viewBox="0 0 500 500">
  <g id="Layer_1-2" data-name="Layer 1">
    <g>
      <rect width="500" height="500" fill="none"/>
      <g>
        <rect x="307.12" y="373.93" width="8.46" height="116.07" fill="#010101"/>
        <rect x="320.73" y="455.55" width="7.11" height="37.41" transform="translate(-240.31 367.89) rotate(-44.97)" fill="#010101"/>
        <rect x="279.28" y="470.71" width="37.41" height="7.1" transform="translate(-248.1 349.75) rotate(-45.01)" fill="#010101"/>
        <rect x="191.33" y="373.93" width="8.46" height="116.07" fill="#010101"/>
        <rect x="163.92" y="470.71" width="37.42" height="7.11" transform="translate(-281.91 268.16) rotate(-45.01)" fill="#010101"/>
        <rect x="205.38" y="455.55" width="7.11" height="37.42" transform="translate(-274.11 286.52) rotate(-44.99)" fill="#010101"/>
        <path d="m345.66,192.55s-66.59,73.44,29.04,174.56c0,0,83.33-145.52-29.04-174.56Z" fill="#9a6f56"/>
        <path d="m159.15,193.63s61.85,77.47-39.93,172.39c0,0-74.04-150.46,39.93-172.39Z" fill="#9a6f56"/>
        <path d="m336.56,181.37l-86.02,27.1-86.02-27.1s-121.09,169.19,86.02,235.52c207.11-66.33,86.02-235.52,86.02-235.52Z" fill="#bf9073"/>
        <path d="m349.29,201.3c-6.9-13.29-12.66-21.35-12.66-21.35l-86.82,14.04-86.82-14.04s-5.76,8.06-12.66,21.35c-19.99,55.2,73.89,89.48,99.48,138.49,25.59-49.01,119.47-83.29,99.48-138.49Z" fill="#dabf90"/>
        <g>
          <path d="m298.53,55.17s25.42-50.12,70.96-44.77c0,0-8.97,23.52-4.69,37.95,4.28,14.42,8.02,51.84-5.88,64.66l-60.39-57.84Z" fill="#47292c"/>
          <path d="m369.5,10.4c-45.54-5.35-70.96,44.77-70.96,44.77l33.31,31.9c2.17-42.53,37.65-76.68,37.65-76.68Z" fill="#9a6f56"/>
          <path d="m202.55,55.17S177.13,5.05,131.58,10.4c0,0,8.97,23.52,4.69,37.95-4.28,14.42-8.02,51.84,5.88,64.66l60.39-57.84Z" fill="#47292c"/>
          <path d="m131.58,10.4c45.54-5.35,70.96,44.77,70.96,44.77l-33.31,31.9c-2.17-42.53-37.65-76.68-37.65-76.68Z" fill="#9a6f56"/>
          <ellipse cx="250.86" cy="124.4" rx="118.64" ry="81.08" fill="#bf9073"/>
          <g>
            <path d="m227.69,96.98c0,18.72-15.18,33.9-33.91,33.9s-33.91-15.18-33.91-33.9,15.18-33.91,33.91-33.91,33.91,15.18,33.91,33.91Z" fill="#222"/>
            <path d="m216.7,96.98c0,12.65-10.26,22.91-22.91,22.91s-22.91-10.26-22.91-22.91,10.26-22.91,22.91-22.91,22.91,10.26,22.91,22.91Z" fill="#dabf90"/>
            <path d="m202.04,96.98c0,4.55-3.69,8.25-8.25,8.25s-8.25-3.69-8.25-8.25,3.69-8.25,8.25-8.25,8.25,3.69,8.25,8.25Z" fill="#222"/>
          </g>
          <g>
            <path d="m271.78,96.98c0,18.72,15.18,33.9,33.91,33.9s33.91-15.18,33.91-33.9-15.18-33.91-33.91-33.91-33.91,15.18-33.91,33.91Z" fill="#222"/>
            <path d="m282.78,96.98c0,12.65,10.26,22.91,22.91,22.91s22.91-10.26,22.91-22.91-10.26-22.91-22.91-22.91-22.91,10.26-22.91,22.91Z" fill="#dabf90"/>
            <path d="m297.44,96.98c0,4.55,3.69,8.25,8.25,8.25s8.25-3.69,8.25-8.25-3.69-8.25-8.25-8.25-8.25,3.69-8.25,8.25Z" fill="#222"/>
          </g>
          <polygon points="248.39 116.85 221.78 133.95 248.39 169.23 274.99 133.95 248.39 116.85" fill="#222"/>
          <path d="m256.09,73.03s22.85-30.47,45.71-27.16c24.85,3.6,35.47-4.44,35.86-11.92,0,0,10.94,29.7-38.22,23.56-18.75-2.34-36.31,16.07-36.31,16.07,0,0-4.35,6.65-7.03-.56Z"/>
          <path d="m244.11,73.03s-22.85-30.47-45.71-27.16c-24.84,3.6-35.47-4.44-35.86-11.92,0,0-10.94,29.7,38.22,23.56,18.75-2.34,36.31,16.07,36.31,16.07,0,0,4.35,6.65,7.03-.56Z"/>
        </g>
      </g>
    </g>
  </g>
</svg>