<?xml version="1.0" encoding="UTF-8"?>
<svg id="Layer_2" data-name="Layer 2" xmlns="http://www.w3.org/2000/svg" viewBox="0 0 500 500">
  <g id="Layer_1-2" data-name="Layer 1">
    <g>
      <rect width="500" height="500" fill="none"/>
      <g>
        <path d="m52.79,259.74c-6.64,0-14.06-1.69-20.19-4.95-8.53-4.54-13.33-11.46-13.53-19.51-.04-1.84.29-3.99.93-6.3-1.42-1.22-2.63-2.57-3.59-4.04-4.47-6.86-7.88-18.68-5.78-28.01.34-1.52.86-2.97,1.53-4.32,1.4-2.81,4.82-3.95,7.63-2.54,2.81,1.4,3.94,4.82,2.54,7.62-.27.53-.46,1.09-.61,1.73-1.25,5.53.74,13.24,3.52,18.18,3.65-5.6,8.6-10.33,13.96-11.53,3.01-.67,10.52-1.1,15.16,9.45,4.16,9.45.25,15.73-4.8,18.46-5.14,2.76-12.47,2.71-19.13.62,0,.14-.01.27,0,.39.15,6.31,6.84,9.75,10.81,11.24,8.57,3.21,16.68,2.2,18.56.84.07-2.94,2.38-5.37,5.36-5.54,3.1-.17,5.83,2.22,6,5.35.22,3.92-1.69,7.47-5.26,9.75-3.26,2.09-7.95,3.11-13.11,3.11Zm-18.13-35.76c3.67,1,7.46,1.1,9.5,0,.37-.2,1.22-.66-.2-3.88-1-2.27-1.86-2.91-2.04-2.96-.16-.04-1.16.15-2.83,1.58-1.6,1.35-3.12,3.23-4.43,5.26Z" fill="#fd7d70"/>
        <path d="m354.55,407.87c0,6.96-42.63,6.96-42.63,0v-126.68c0-6.96,42.63-6.96,42.63,0v126.68Z" fill="#fd7d70"/>
        <path d="m311.91,390.83v28.04c0,4.26,3.45,7.71,7.72,7.71h33.35c4.26,0,7.71-3.45,7.71-7.71l-5.68-28.04h-43.09Z" fill="#785753"/>
        <path d="m199.2,407.87c0,6.96-42.63,6.96-42.63,0v-126.68c0-6.96,42.63-6.96,42.63,0v126.68Z" fill="#fd7d70"/>
        <g>
          <path d="m415.97,96.69c30.01-30.01,74.03-34.65,74.03-34.65,0,0-4.64,44.03-34.64,74.03-30,30.01-74.02,34.64-74.02,34.64,0,0,4.63-44.01,34.63-74.02Z" fill="#fd7d70"/>
          <path d="m317.75,96.69c-30-30.01-74.02-34.65-74.02-34.65,0,0,4.63,44.03,34.64,74.03,30,30.01,74.02,34.64,74.02,34.64,0,0-4.63-44.01-34.64-74.02Z" fill="#fd7d70"/>
        </g>
        <path d="m382.82,265.43c0,64.74-72.83,117.22-162.69,117.22s-162.7-52.48-162.7-117.22,72.84-117.22,162.7-117.22,162.69,52.48,162.69,117.22Z" fill="#fd8c7f"/>
        <circle cx="366.87" cy="187.43" r="103.01" transform="translate(101.25 502.35) rotate(-76.92)" fill="#fdac9e"/>
        <path d="m139.85,425.39c0,6.96-42.63,6.96-42.63,0v-126.68c0-6.96,42.63-6.96,42.63,0v126.68Z" fill="#fd8c7f"/>
        <path d="m283.84,425.39c0,6.96-42.63,6.96-42.63,0v-126.68c0-6.96,42.63-6.96,42.63,0v126.68Z" fill="#fd8c7f"/>
        <path d="m97.24,402.19v28.04c0,4.26,3.46,7.72,7.72,7.72h33.35c4.26,0,7.72-3.46,7.72-7.72l-5.69-28.04h-43.09Z" fill="#8f6864"/>
        <path d="m241.23,402.19v28.04c0,4.26,3.45,7.72,7.71,7.72h33.35c4.27,0,7.72-3.46,7.72-7.72l-5.68-28.04h-43.09Z" fill="#8f6864"/>
        <path d="m156.56,390.83v28.04c0,4.26,3.45,7.71,7.72,7.71h33.35c4.26,0,7.72-3.45,7.72-7.71l-5.69-28.04h-43.09Z" fill="#785753"/>
        <path d="m421.33,219.4c0,30.09-24.39,54.48-54.47,54.48s-54.47-24.39-54.47-54.48,24.39-54.46,54.47-54.46,54.47,24.39,54.47,54.46Z" fill="#feccbd"/>
        <g>
          <path d="m346.82,152.62c0,4.04-3.27,7.32-7.32,7.32s-7.32-3.28-7.32-7.32,3.28-7.31,7.32-7.31,7.32,3.28,7.32,7.31Z" fill="#455556"/>
          <path d="m386.91,152.62c0,4.04,3.28,7.32,7.32,7.32s7.32-3.28,7.32-7.32-3.28-7.31-7.32-7.31-7.32,3.28-7.32,7.31Z" fill="#455556"/>
        </g>
        <g>
          <path d="m354.86,221.78c0,6.88-5.58,12.46-12.47,12.46s-12.47-5.58-12.47-12.46,5.58-12.47,12.47-12.47,12.47,5.58,12.47,12.47Z" fill="#fd7d70"/>
          <path d="m378.88,221.78c0,6.88,5.59,12.46,12.47,12.46s12.47-5.58,12.47-12.46-5.58-12.47-12.47-12.47-12.47,5.58-12.47,12.47Z" fill="#fd7d70"/>
        </g>
      </g>
    </g>
  </g>
</svg>