<?xml version="1.0" encoding="UTF-8"?>
<svg id="Layer_2" data-name="Layer 2" xmlns="http://www.w3.org/2000/svg" viewBox="0 0 500 500">
  <g id="Layer_1-2" data-name="Layer 1">
    <g>
      <rect width="500" height="500" fill="none"/>
      <g>
        <path d="m373.6,259.67c11.85,10.53,27.76,14.99,43.18,18.68,15.41,3.69,31.41,7.17,44.3,16.4,22.72,16.27,30.36,50.35,16.75,74.77-25.87-9.9-25.53-27.84-32.73-49.03-4.37,7.72,5.78,12.53,2.78,25.41-18.08-.87-33.84-22.46-29.61-40.07-4.2,4.48,1.28,17.63-1.81,24.41-13.38-6.62-23.47-19.56-26.61-34.16-2.63,6.03,4.13,11.64-.25,20.8-17.08-12.57-19.47-27.85-25.44-44.7-2.98-8.42-22.77-30.34-22.45-31.47,0,0,21.42,9.68,31.88,18.96Z" fill="#abbdcd"/>
        <path d="m64.12,472.43c-1.5,7.48,2.96,16.2,14.37,15.64,2.9-.14,10.39-2.08,17.95-3.99,10.56-2.66,19.91-11.59,16.89-27.84-4.46-24.08-3.1-52.2-2.91-76.94.45-58.32,5.34-114.07-9.23-170.31-17.4,2.92-33.41,13.3-43.17,27.99s-13.12,33.48-9.06,50.65c2.46,10.39,7.43,19.98,11.78,29.73,18.97,42.47,29.48,89.03,25.09,135.23-.34,3.54-2.74,6.65-6.12,7.72-7.38,2.33-14.32,5.75-15.59,12.12Z" fill="#819cb4"/>
        <path d="m339.2,367.17c-1.99-4.65-3.03-8.88-3.7-14-1.16-8.82.34-17.58,3.93-25.69,2.3-5.2,5.42-9.64,8.95-13.72,0-.06.01-.1.02-.16-8.64-18.89-28.7-28.4-47.45-36.53l-.47,6.04c-18.31,8.86-31.53,27.51-33.81,47.73-2.29,20.22,6.43,41.34,22.31,54.07,9.59,7.68,21.41,12.38,30.32,20.83,11.17,10.6,13.55,27.04,11.16,42.22-.38,2.45-2.45,4.26-4.91,4.57-25.43,3.21-27.03,9.78-26.63,15.91.56,8.33,4.62,14.33,23.85,13.35,3.23-.16,12.14-.72,15.28-1.43,9.03-2.03,12.46-6.92,12.7-15.67l1.68-60.94c.14-5.06-.98-10.08-3.34-14.56-4.5-8.51-10.06-22.38-9.91-22.02Z" fill="#819cb4"/>
        <path d="m150.07,206.81c-31.15-6.05-65.34,13.37-75.84,43.32-10.49,29.95,4.26,66.63,32.69,80.73,18.02,8.94,38.97,9.08,59.08,9.03,38.09-.08,76.19-.17,114.28-.25,8.07-.02,16.43-.1,23.73-3.54,14.99-7.06,20.6-26.88,15.88-42.76-4.71-15.88-17.3-28.21-30.76-37.85-38.86-27.83-87.01-38.63-133.72-48.82l-5.36.13Z" fill="#94aabf"/>
        <path d="m402.31,430.01c.96,10.57.49,21.13-.7,31.67-1.14,10.19-3.12,17.89-13.25,21.07-7.15,2.24-27.1,3.93-33.36-.17-6.8-4.47-5.82-15.84-.26-20.3,2.95-2.37,12.18-4.23,16.84-6.15,5.14-2.1,5.07-3.25,5.19-6.42.66-16.8-2.6-33.33-11.85-47.25-15.15-22.8-50.5-26.57-63.06-50.9-12.47-24.16-1.35-31.68-33.34-44.18-3.34-1.3-6.87-2.21-10.43-2.58-21.29-2.19-42.82-1.97-64.06.61-12.6,1.53-21.12,12.46-21.28,25.16-.26,20.9-3.47,47.06-3.16,63.16.65,33.34.73,60.63,1.21,68.4.75,12.3-5.68,22.87-16.3,25.54-9.23,2.33-20.19,3.48-25.07.59-7.54-4.46-7.36-12.76-4.13-17.23,2.63-3.63,10.07-6.66,14.22-8.81,4.47-2.32,7.36-6.92,7.16-11.95-1.04-25-.21-31.88-3.79-56.25-3.1-21.1-5.36-58.78-11.26-70.54-21.87-43.56-1.14-85.83-6.11-94.81-4.97-8.98-9.61-18.55-10.04-28.81-.43-10.26,4.4-21.38,13.83-25.44,7.73-3.33,16.83-1.31,24.28,2.61,7.45,3.92,13.81,9.59,20.89,14.15,18.79,12.1,41.7,15.83,63.99,17.5,22.28,1.68,44.91,1.62,66.54,7.25,21.62,5.63,42.76,18.04,52.69,38.06,15.55,31.37-.11,71.86,16.57,102.65,4.63,8.55,11.49,15.71,16.33,24.15,8.45,14.74,10.17,32.26,11.72,49.18Z" fill="#abbdcd"/>
        <path d="m173.08,165.34c-14.94-16.71-38.34-23.56-60.89-22.69-22.55-.87-45.95,5.98-60.9,22.69-16.41,18.36-18.79,49.6-1.31,66.94,10.17,10.08,24.66,14.07,37.52,20.35,5.08,2.48,23.83,20.27,23.83,20.27,0,0,20.13-17.65,25.52-20.27,12.86-6.27,27.35-10.27,37.52-20.35,17.48-17.33,15.11-48.58-1.31-66.94Z" fill="#d2cebe"/>
        <g>
          <path d="m115.55,29.8s42.4-3.79,72-19.8c0,0,24.73,28.38-28.27,61.5,0,0-41.07-16.16-43.73-41.7Z" fill="#d5d2c4"/>
          <path d="m188.03,10.62c-.3-.4-.48-.62-.48-.62-29.59,16.01-72,19.8-72,19.8,1.99,19.12,25.51,32.99,37.2,38.75,9.84-37.46,32.77-54.86,35.27-57.92Z" fill="#819cb4"/>
          <path d="m105.39,29.8s-42.4-3.79-71.99-19.8c0,0-24.74,28.38,28.26,61.5,0,0,41.08-16.16,43.73-41.7Z" fill="#d5d2c4"/>
          <path d="m32.92,10.62c.3-.4.49-.62.49-.62,29.59,16.01,71.99,19.8,71.99,19.8-1.99,19.12-25.5,32.99-37.2,38.75C58.36,31.09,35.42,13.69,32.92,10.62Z" fill="#819cb4"/>
          <path d="m195.96,146.02c1.89-15.9,2.62-27.94-9.13-40.07-9.57-9.89-16.42-21.69-23.5-33.39-6.14-10.15-14.12-25.73-26.49-29.47-17.32-5.25-35.47-2.14-52.48,3.03-6.87,2.08-16.31,3.65-22.42,7.43-8.12,5.02-5.62,17.98-7.28,26.11-2.81,13.76-11.86,23.21-21.34,32.93-4.64,4.76-11.17,10.21-9.1,17.7,2.42,8.73,4.68,17.32,6.8,26.13.31,1.26.67,2.5.99,3.76,14.02,11.07,38.37,22.13,78.46,31.9,49.07-11.96,74.58-25.85,86.39-39.34-.86-1.83-1.23-4.07-.91-6.72Z" fill="#e8e6de"/>
          <path d="m191.27,103.9c-7.57-7.94-13.45-17.41-17.58-27.57-12.61-31-29.17-43.43-42.3-48.18-6.14-2.23-13.75-3.33-21.35-3.37-7.6.04-15.21,1.14-21.35,3.37-13.13,4.76-29.69,17.19-42.3,48.18-4.14,10.17-10.01,19.63-17.58,27.57-14.52,15.22-30.74,45.45,30.89,71.93v-.08c-1.74-1.32-3.48-2.66-5.14-4.14-14.14-12.6-28.3-25.32-23.53-46.44,3.77-16.69,17.42-23.05,31.61-22.13.29-16.5,3.7-50.63,27.55-41.24,24.39,9.61,3.9,44.47-4.64,56.98,1.75,1.6,24.51.33,24.51.33,0,0,22.76,1.27,24.51-.33-8.54-12.51-29.04-47.37-4.64-56.98,23.85-9.39,27.26,24.75,27.55,41.24,14.19-.92,27.84,5.44,31.61,22.13,4.76,21.12-9.39,33.84-23.54,46.44-1.67,1.48-3.4,2.82-5.14,4.14v.08c61.63-26.48,45.41-56.7,30.89-71.93Z" fill="#abbdcd"/>
          <path d="m95.93,161.68c-10.34,0-20.82-10.33-21.31-10.82l1.92-1.91c.12.12,12.23,12.05,22.03,9.73,4.48-1.06,7.91-5.05,10.18-11.85l2.57.86c-2.59,7.75-6.67,12.34-12.13,13.63-1.07.26-2.17.37-3.25.37Z" fill="#434343"/>
          <path d="m124.14,161.68c-1.09,0-2.18-.11-3.26-.37-5.46-1.29-9.54-5.87-12.13-13.63l2.57-.86c2.28,6.8,5.7,10.79,10.19,11.85,9.83,2.3,21.9-9.61,22.02-9.73l1.92,1.91c-.49.49-10.97,10.82-21.3,10.82Z" fill="#434343"/>
          <path d="m89.5,84.8c0,3.84-3.12,6.96-6.96,6.96s-6.96-3.12-6.96-6.96,3.12-6.96,6.96-6.96,6.96,3.12,6.96,6.96Z" fill="#222"/>
          <path d="m144.48,84.8c0,3.84-3.11,6.96-6.96,6.96s-6.96-3.12-6.96-6.96,3.12-6.96,6.96-6.96,6.96,3.12,6.96,6.96Z" fill="#222"/>
          <path d="m110.48,108.43h0c-.08,0-.15,0-.22,0s-.14,0-.22,0h0c-68.68.18,0,38.83,0,38.83h.44s68.67-38.65,0-38.82Z" fill="#222"/>
        </g>
      </g>
    </g>
  </g>
</svg>